<?xml version="1.0" encoding="utf-8"?>
<!-- Generator: Adobe Illustrator 16.0.2, SVG Export Plug-In . SVG Version: 6.00 Build 0)  -->
<!DOCTYPE svg PUBLIC "-//W3C//DTD SVG 1.1//EN" "http://www.w3.org/Graphics/SVG/1.1/DTD/svg11.dtd">
<svg version="1.1" id="Layer_1" xmlns="http://www.w3.org/2000/svg" xmlns:xlink="http://www.w3.org/1999/xlink" x="0px" y="0px"
	 width="388.059px" height="388.059px" viewBox="0 0 388.059 388.059" enable-background="new 0 0 388.059 388.059"
	 xml:space="preserve">
<g>
	<path fill-rule="evenodd" clip-rule="evenodd" d="M85.147,315.734c0-5.103,0-10.09,0-15.388c5.107,0,10.11,0,15.552,0
		c0-5.385,0-10.485,0-15.847c2.504-0.141,4.593-0.258,6.962-0.39c-6.351-18.216-6.102-36.257,0.948-53.986
		c7.028-17.676,19.24-30.853,36.187-39.604c-35.956-21.981-48.306-53.208-37.651-94.127c-1.67,0-3.719,0-6.199,0
		c0-5.497,0-10.602,0-16.003c-5.423,0-10.428,0-15.71,0c0-5.287,0-10.276,0-15.585c62.776,0,125.705,0,188.85,0
		c0,4.994,0,9.981,0,15.415c-5.125,0-10.222,0-15.616,0c0,5.436,0,10.44,0,15.792c-2.366,0.11-4.447,0.208-6.87,0.321
		c6.329,18.218,6.099,36.257-0.921,53.964c-7.013,17.688-19.237,30.872-36.405,39.769c4.12,2.709,8.251,5.099,12.02,7.966
		c10.632,8.087,18.646,18.291,23.75,30.682c1.173,2.848,1.903,5.88,3.077,8.728c1.681,4.074,0.804,7.085-2.763,9.8
		c-3.623,2.758-6.857,6.026-9.704,8.572c-2.333-7.565-4.024-15.693-7.302-23.123c-6.897-15.642-19.189-25.758-35.38-30.979
		c-2.624-0.847-3.246-1.947-3.166-4.418c0.159-4.921,0.141-9.853,0.004-14.776c-0.059-2.114,0.65-3.041,2.719-3.64
		c10.417-3.015,19.317-8.624,26.497-16.711c7.999-9.009,12.907-19.516,14.847-31.509c1.938-11.989-0.544-23.194-4.95-34.327
		c-36.105,0-72.209,0-108.492,0c-4.062,9.309-6.421,19.057-5.663,29.245c0.891,11.975,4.879,22.957,12.191,32.626
		c7.609,10.062,17.492,16.916,29.491,20.608c2.449,0.753,3.061,1.849,2.998,4.172c-0.139,5.048-0.136,10.106,0.002,15.155
		c0.055,1.99-0.711,2.893-2.524,3.411c-10.439,2.985-19.337,8.564-26.548,16.621c-8.126,9.081-13.071,19.688-15.002,31.826
		c-1.906,11.988,0.602,23.146,4.966,34.146c5.181,0,10.206,0,15.246,0c-2.274-18.978,4.134-32.286,19.878-42.156
		c2.177-1.364,4.676-2.69,7.151-2.985c3.496-0.417,3.801-2.172,3.787-5.035c-0.091-18.566-0.116-37.135,0.018-55.701
		c0.023-3.271-0.988-4.141-4.26-4.948c-15.01-3.705-26.791-12.042-34.29-25.874c-0.763-1.407-1.522-2.816-2.459-4.551
		c32.824,0,65.489,0,98.387,0c-7.822,16.531-20.278,26.967-38.188,30.627c-1.778,0.363-2.768,1.087-2.759,3.236
		c0.083,19.577,0.083,39.156,0.002,58.733c-0.009,2.332,1.12,2.853,3.042,3.366c15.702,4.199,28.697,20.333,27.926,36.985
		c-1.406-1.468-2.525-2.479-3.457-3.642c-2.328-2.902-4.396-6.033-6.902-8.768c-2.114-2.307-4.878-3.168-7.646-0.881
		c-4.863,4.018-9.841,7.929-14.38,12.293c-2.558,2.459-4.053,1.807-5.954-0.407c-2.933-3.414-5.926-6.779-8.948-10.115
		c-2.46-2.717-5.014-2.778-7.818-0.329c-4.883,4.266-9.98,8.289-14.789,12.634c-3.38,3.055-3.551,4.951-0.769,8.342
		c4.67,5.693,9.571,11.198,14.399,16.761c3.963,4.566,7.961,9.103,12.256,14.009C144.703,315.734,115.022,315.734,85.147,315.734z"
		/>
	<path fill-rule="evenodd" clip-rule="evenodd" d="M188.504,279.591c4.684-3.974,8.864-7.518,13.303-11.282
		c9.746,11.813,19.54,23.683,29.58,35.852c3.769-3.238,7.358-6.25,10.869-9.352c13.397-11.842,26.75-23.735,40.159-35.563
		c7.773-6.856,15.614-13.638,23.442-20.433c7.447-6.465,14.88-12.949,22.436-19.284c0.714-0.6,2.845-0.725,3.331-0.184
		c3.381,3.766,6.502,7.766,9.722,11.71c-5.218,4.706-9.992,9.112-14.878,13.393c-4.876,4.271-9.897,8.376-14.792,12.628
		c-9.996,8.684-19.976,17.387-29.91,26.14c-7.229,6.368-14.346,12.863-21.568,19.239c-8.054,7.111-16.124,14.205-24.281,21.196
		c-3.57,3.059-8.984,2.549-12.283-1.265c-5.134-5.935-10.023-12.08-15.017-18.136c-5.701-6.915-11.409-13.822-17.099-20.746
		C190.51,282.278,189.578,280.99,188.504,279.591z"/>
	<path fill-rule="evenodd" clip-rule="evenodd" d="M306.529,231.118c-24.807,21.75-49.199,43.138-73.787,64.697
		c-3.555-4.314-6.968-8.374-10.236-12.548c-0.334-0.426-0.095-1.862,0.37-2.27c6.654-5.834,13.414-11.546,20.105-17.339
		c4.63-4.009,9.181-8.109,13.788-12.144c9.957-8.718,19.931-17.415,29.892-26.128c2.258-1.975,4.39-4.116,6.8-5.88
		c0.778-0.569,2.836-0.687,3.331-0.135C300.168,223.138,303.282,227.136,306.529,231.118z"/>
	<path fill-rule="evenodd" clip-rule="evenodd" d="M207.226,318.152c-2.039,1.795-3.67,2.979-4.991,4.44
		c-3.887,4.3-10.358,3.646-13.694-0.378c-4.92-5.936-9.807-11.897-14.711-17.847c-5.77-6.998-11.547-13.991-17.309-20.996
		c-0.934-1.136-1.805-2.323-2.897-3.734c4.5-3.829,8.82-7.505,13.42-11.418C180.086,285.201,194.948,300.691,207.226,318.152z"/>
</g>
</svg>
