<?xml version="1.0" encoding="utf-8"?>
<!-- Generator: Adobe Illustrator 16.0.2, SVG Export Plug-In . SVG Version: 6.00 Build 0)  -->
<!DOCTYPE svg PUBLIC "-//W3C//DTD SVG 1.1//EN" "http://www.w3.org/Graphics/SVG/1.1/DTD/svg11.dtd">
<svg version="1.1" id="Layer_1" xmlns="http://www.w3.org/2000/svg" xmlns:xlink="http://www.w3.org/1999/xlink" x="0px" y="0px"
	 width="1298.838px" height="1298.838px" viewBox="0 0 1298.838 1298.838" enable-background="new 0 0 1298.838 1298.838"
	 xml:space="preserve">
<g>
	<path fill-rule="evenodd" clip-rule="evenodd" d="M504.183,507.05c11.454-16.188,27.463-27.11,39.124-41.846
		c12.548-15.856,28.924-28,41.248-43.663c11.031-14.02,25.452-24.606,35.999-38.685c7.759-10.357,17.42-18.624,26.11-27.932
		c4.674-5.006,11.127-8.859,14.331-14.598c3.775-6.764,9.463-11.208,14.435-16.529c7.023-7.516,14.507-14.602,21.553-22.098
		c7.461-7.938,14.516-16.259,21.985-24.188c5.372-5.704,12.021-10.401,16.543-16.671c10.109-14.019,24.051-24.303,34.979-37.368
		c14.26-17.049,30.55-32.089,45.482-48.43c3.576-3.916,8.8-8.408,6.966-15.314c-0.52-1.959-2-3.81-2.033-5.728
		c-0.128-7.415,3.368-17.927,12.635-21.243c2.297-0.822,4.681-2.76,6.784-2.466c3.771,0.526,8.064,1.497,10.886,3.81
		c7.45,6.107,13.337,13.546,14.953,23.591c0.252,1.568,1.875,2.868,2.575,4.422c2.435,5.408,4.986,10.783,7.008,16.348
		c1.243,3.425,1.418,7.223,2.431,10.75c0.514,1.788,1.972,3.281,2.74,5.022c2.347,5.313,4.785,10.603,6.773,16.053
		c2.039,5.593,3.494,11.397,5.409,17.039c0.644,1.895,2.018,3.529,2.879,5.365c2.289,4.876,4.734,9.702,6.644,14.729
		c2.092,5.508,3.569,11.248,5.511,16.817c0.433,1.239,2.056,2.059,2.502,3.298c2.586,7.178,4.806,14.492,7.509,21.623
		c1.915,5.056,4.485,9.861,6.599,14.849c1.237,2.917,2.037,6.017,3.235,8.952c2.141,5.237,4.651,10.331,6.604,15.633
		c2.058,5.586,3.558,11.376,5.48,17.017c0.699,2.048,1.967,3.897,2.883,5.88c2.257,4.893,4.704,9.719,6.623,14.743
		c2.094,5.482,3.393,11.272,5.568,16.717c2.095,5.241,5.042,10.135,7.271,15.328c1.245,2.903,1.524,6.214,2.714,9.149
		c2.104,5.194,4.827,10.145,6.813,15.379c1.998,5.269,3.316,10.792,5.13,16.136c0.688,2.025,2.012,3.825,2.891,5.796
		c2.221,4.987,4.539,9.942,6.472,15.041c2.069,5.459,3.666,11.096,5.622,16.6c0.777,2.187,2.096,4.177,2.941,6.345
		c2.399,6.143,4.516,12.4,7.06,18.48c2.255,5.389,5.095,10.532,7.359,15.917c1.225,2.914,1.516,6.217,2.706,9.15
		c2.103,5.188,4.835,10.128,6.814,15.357c1.999,5.28,3.313,10.816,5.115,16.176c0.721,2.143,1.976,4.1,2.938,6.166
		c2.243,4.813,4.729,9.535,6.61,14.486c2.101,5.531,3.396,11.367,5.498,16.897c1.979,5.206,4.641,10.148,6.82,15.283
		c1.206,2.838,1.869,5.907,3.08,8.743c2.386,5.581,5.243,10.973,7.417,16.63c2.033,5.292,3.358,10.852,5.164,16.237
		c0.479,1.43,1.735,2.581,2.363,3.982c2.492,5.558,3.146,11.747,7.019,16.969c1.303,1.756,1.17,5.225,2.794,7.982
		c3.053,5.187,5.048,11.037,7.145,16.737c1.931,5.249,3.139,10.771,5.174,15.975c2.112,5.401,4.766,10.6,7.321,15.818
		c1.102,2.247,0.207,16.085-1.217,18.129c-0.697,1-0.697,2.485-1.397,3.481c-3.268,4.642-7.755,8.064-13.35,8.407
		c-5.071,0.311-10.917,2.203-14.819-3.775c-2.848-4.363-8.68-6.325-10.006-12.157c-0.184-0.813-2.307-1.63-3.567-1.688
		c-16.302-0.737-33.033,0.696-48.79-2.582c-13.887-2.89-27.661-0.059-40.96-2.807c-11.122-2.299-22.171,0.19-32.906-1.834
		c-15.481-2.918-31.279-0.609-46.431-3.122c-12.078-2.002-24.082,0.513-35.648-1.946c-14.565-3.099-29.436-0.229-43.561-2.959
		c-11.911-2.302-23.662,0.264-35.107-1.988c-14.57-2.865-29.55,0.051-43.608-2.822c-13.938-2.85-27.79,0.531-41.12-2.339
		c-13.662-2.942-27.635,0.846-40.573-2.444c-13.221-3.361-26.116-0.778-39.037-2.293c-3.845-0.451-7.6-1.676-12.184-2.726
		c0.703,5.163-0.703,8.821,1.886,13.206c1.457,2.469,1.937,8.38-1.131,12.538c-1.796,2.435-2.461,5.706-3.38,7.973
		c-2.046,1.376-3.661,2.64-5.437,3.604c-1.789,0.972-3.771,1.579-5.611,2.467c-1.833,0.885-3.535,2.053-5.397,2.862
		c-5.288,2.301-10.559,4.674-15.97,6.658c-5.619,2.06-11.42,3.624-17.084,5.57c-1.626,0.559-2.979,1.877-4.587,2.523
		c-8.134,3.271-16.362,6.311-24.453,9.68c-5.457,2.274-10.689,5.084-16.119,7.427c-4.502,1.944-9.03,4.041-13.761,5.18
		c-4.397,1.059-3.104,3.26-2.171,5.802c0.684,1.863,1.701,3.685,1.961,5.606c0.904,6.703,0.108,14.081,2.73,19.971
		c2.171,4.878,0.338,10.166,2.52,13.698c3.356,5.433-0.822,12.406,4.637,16.795c0.101,0.08,0.099,0.306,0.12,0.466
		c0.751,5.572,1.611,11.132,2.218,16.721c0.835,7.695,1.436,15.42,4.812,22.57c0.202,0.428,0.15,0.979,0.2,1.476
		c0.69,6.933,0.953,13.943,2.197,20.774c1.046,5.738,3.457,11.216,4.811,16.916c0.587,2.468-0.271,5.251,0.093,7.81
		c0.319,2.232,1.424,4.355,2.203,6.52c0.161,0.446,0.543,0.841,0.604,1.29c0.729,5.291,1.505,10.578,2.082,15.888
		c0.312,2.876-0.811,6.111,2.614,8.005c0.375,0.207,0.356,1.23,0.419,1.884c0.657,6.915,1.081,13.861,2.048,20.731
		c0.35,2.481,2.581,4.7,2.924,7.182c0.951,6.884-0.591,14.947,2.532,20.461c3.166,5.592,0.03,11.734,4.025,16.494
		c0.692,0.824,0.259,2.566,0.413,3.877c0.457,3.902-1.596,8.402,2.694,11.419c0.19,0.134,0.143,0.627,0.18,0.955
		c0.718,6.261-0.327,13.55,2.583,18.529c3.824,6.543-0.308,13.951,4.267,19.724c0.27,0.34,0.195,0.954,0.274,1.441
		c1.037,6.423,2.073,12.846,3.002,18.605c3.921,1.562,7.788,2.34,10.614,4.488c1.958,1.487,2.862,4.769,3.522,7.425
		c0.543,2.186-0.032,4.633,0.003,6.961c0.099,6.481-2.626,9.264-9.195,10.692c-4.557,0.991-8.902,2.958-13.341,4.49
		c-0.311,0.107-0.61,0.271-0.929,0.33c-5.128,0.957-10.313,1.677-15.373,2.914c-4.546,1.111-8.898,3.017-13.441,4.151
		c-5.057,1.264-10.293,1.817-15.34,3.115c-4.8,1.234-9.414,3.182-14.191,4.522c-3.079,0.865-6.325,1.105-9.458,1.8
		c-5.107,1.132-10.196,2.355-15.265,3.648c-1.618,0.413-3.146,1.18-4.722,1.766c-0.867,0.322-2.068,1.133-2.572,0.825
		c-3.593-2.189-7.465-4.18-10.438-7.067c-3.935-3.82-2.081-9.375-2.276-14.077c-0.09-2.162,2.858-4.697,4.852-6.626
		c1.845-1.784,3.928-3.004,0.447-5.066c-0.368-0.216-0.807-0.701-0.818-1.074c-0.229-7.11-3.854-12.93-6.758-19.126
		c-2.468-5.265-3.709-11.103-5.525-16.677c-0.236-0.724-0.615-1.412-1.002-2.074c-3.099-5.294-5.028-10.968-6.122-17.016
		c-0.367-2.036-1.931-3.835-2.814-5.803c-2.149-4.789-4.405-9.543-6.275-14.443c-2.145-5.622-3.749-11.451-5.905-17.068
		c-1.994-5.194-4.465-10.203-6.615-15.34c-1.213-2.9-2.083-5.945-3.316-8.836c-2.376-5.578-5.124-11.008-7.281-16.664
		c-1.303-3.415-1.679-7.172-2.683-10.716c-0.493-1.737-1.469-3.337-2.229-4.997c-2.486-5.43-5.107-10.802-7.402-16.311
		c-1.136-2.725-1.615-5.717-2.485-8.559c-1.619-5.287-2.99-10.682-5.045-15.797c-2.643-6.577-6.061-12.841-8.768-19.396
		c-2.314-5.604-3.931-11.493-6.161-17.135c-2.041-5.159-4.578-10.119-6.726-15.237c-1.241-2.957-2.006-6.113-3.235-9.074
		c-2.257-5.439-4.83-10.748-7.015-16.214c-1.236-3.094-1.944-6.396-2.917-9.595c-1.307-4.289-5.102-5.314-8.986-3.03
		c-2.681,1.577-5.835,2.402-8.845,3.354c-2.457,0.777-5.011,1.242-7.964,1.951c-1.91-0.518-4.554-1.189-7.165-1.975
		c-0.719-0.216-1.452-0.656-1.983-1.188c-5.125-5.142-11.134-9.652-13.976-16.586c-2.096-5.115-3.714-10.479-4.988-15.864
		c-0.96-4.057-5.958-6.799-10.343-5.393c-5.101,1.637-10.7,2.105-15.438,4.405c-11.096,5.388-22.647,1.908-33.94,2.504
		c-4.881,0.258-9.947-1.848-14.832-3.226c-2.948-0.83-5.776-2.189-8.536-3.558c-3.712-1.84-7.625-3.5-10.882-5.983
		c-5.752-4.387-11.806-8.725-16.383-14.21c-5.322-6.379-10.861-13.465-13.192-21.184c-2.07-6.855-7.913-13.047-5.666-21.101
		c0.083-0.299,0.088-0.833-0.087-0.963c-6.731-4.95-2.386-12.04-3.404-18.072c-0.547-3.24-0.29-6.664-0.036-9.977
		c0.2-2.606-1.736-6.395,3.134-7.017c0.185-0.023,0.388-0.536,0.444-0.847c0.847-4.627,1.341-9.351,2.621-13.853
		c0.769-2.703,2.766-5.054,4.187-7.578c1.834-3.257,3.469-6.643,5.518-9.757c1.571-2.389,3.532-4.558,5.526-6.626
		c7.293-7.563,15.287-14.104,25.327-17.865c5.664-2.123,11.163-4.71,16.632-7.304c0.938-0.444,2.162-2.353,1.885-2.959
		c-2.232-4.881-5.605-9.384-7.042-14.451c-1.703-6.005-2.219-12.44-2.509-18.723c-0.243-5.243,7.581-13.976,12.482-15.993
		c6.778-2.789,13.253-6.304,19.97-9.254c2.706-1.188,5.825-1.428,8.551-2.583c5.591-2.37,10.94-5.328,16.583-7.553
		c5.235-2.065,10.732-3.466,16.093-5.223c1.037-0.34,1.94-1.072,2.967-1.46c7.356-2.772,14.781-5.369,22.08-8.284
		c6.547-2.614,12.902-5.708,19.449-8.319c5.645-2.252,11.47-4.048,17.156-6.201c2.053-0.777,3.854-2.225,5.911-2.985
		c6.631-2.447,13.447-4.429,19.966-7.133c6.594-2.734,12.806-6.39,19.4-9.128c5.522-2.293,11.375-3.78,17.034-5.762
		c1.936-0.678,3.713-1.804,5.586-2.674c5.056-2.348,10.029-4.915,15.213-6.939c6.87-2.682,13.992-4.724,20.851-7.437
		c5.4-2.136,10.479-5.083,15.865-7.258c3.194-1.29,6.772-1.59,10.067-2.674c5.372-1.767,10.664-3.782,15.968-5.749
		c3.619-1.343,7.093-3.385,10.822-4.057C491.372,495.244,498.613,499.409,504.183,507.05z"/>
	<path fill-rule="evenodd" clip-rule="evenodd" d="M1151.341,579.088c-4.806-1.223-10.891-2.767-16.973-4.322
		c-0.782-0.2-1.535-0.557-2.327-0.671c-7.076-1.024-14.177-1.894-21.233-3.038c-8.436-1.367-16.86-2.831-25.242-4.493
		c-6.414-1.27-12.767-2.861-19.122-4.407c-5.657-1.375-9.271-10.126-7.227-15.801c1.723-4.784,4.864-7.646,9.3-9.493
		c0.44-0.184,0.975-0.399,1.404-0.311c5.438,1.132,10.868,2.305,16.291,3.507c0.78,0.173,1.493,0.71,2.272,0.814
		c7.422,0.999,14.914,1.609,22.257,3.008c5.596,1.066,11.001,3.131,16.505,4.704c0.778,0.222,1.641,0.133,2.457,0.244
		c6.751,0.915,13.718,1.108,20.178,3.014c4.659,1.375,9.881,1.324,13.939,5.851c3.163,3.527,3.026,6.714,2.575,10.266
		C1165.776,572.838,1157.639,579.11,1151.341,579.088z"/>
	<path fill-rule="evenodd" clip-rule="evenodd" d="M1034.415,225.859c-0.525,1.88-0.604,3.276-1.262,4.3
		c-1.819,2.833-3.792,5.581-5.861,8.237c-6.421,8.237-13.02,16.338-19.338,24.651c-3.189,4.197-5.757,8.863-8.903,13.096
		c-6.226,8.372-12.407,16.799-19.082,24.807c-5.578,6.688-7.474,6.761-15.044,3.118c-5.192-2.499-9.978-10.815-7.882-14.439
		c2.163-3.743,5.039-7.07,7.563-10.609c3.17-4.444,6.297-8.92,9.452-13.375c0.476-0.672,0.986-1.322,1.518-1.952
		c4.225-5.01,8.603-9.897,12.651-15.045c5.161-6.563,10.148-13.271,15.034-20.044c3.001-4.162,5.512-8.679,8.541-12.818
		c2.398-3.279,6.709-2.958,11.192-1.518c4.254,1.365,6.932,3.961,9.286,7.266C1033.266,222.915,1033.813,224.606,1034.415,225.859z"
		/>
	<path fill-rule="evenodd" clip-rule="evenodd" d="M1099.958,378.51c2.912,2.316,7.38,3.402,9.528,8.599
		c2.453,5.935,1.745,13.083-4.185,15.832c-4.572,2.121-9.563,3.319-14.226,5.269c-6.688,2.798-13.172,6.084-19.878,8.83
		c-5.525,2.263-11.265,3.999-16.869,6.079c-1.148,0.426-2.032,1.556-3.177,2c-5.155,2.002-10.359,3.877-15.548,5.792
		c-2.789,1.028-5.513,2.373-8.391,2.978c-3.516,0.738-7.62,2.071-10.641,0.938c-4.129-1.551-7.726-4.928-7.866-10.333
		c-0.277-10.649,0.385-11.075,11.025-14.928c9.121-3.303,17.821-7.749,26.856-11.312c5.567-2.195,11.495-3.459,17.106-5.553
		c4.868-1.815,9.469-4.337,14.283-6.314c5.018-2.058,10.139-3.866,15.236-5.723C1095.271,379.913,1097.386,379.325,1099.958,378.51z
		"/>
</g>
</svg>
