<?xml version="1.0" encoding="utf-8"?>
<!-- Generator: Adobe Illustrator 16.0.2, SVG Export Plug-In . SVG Version: 6.00 Build 0)  -->
<!DOCTYPE svg PUBLIC "-//W3C//DTD SVG 1.1//EN" "http://www.w3.org/Graphics/SVG/1.1/DTD/svg11.dtd">
<svg version="1.1" id="Layer_1" xmlns="http://www.w3.org/2000/svg" xmlns:xlink="http://www.w3.org/1999/xlink" x="0px" y="0px"
	 width="2999.625px" height="2999.625px" viewBox="0 0 2999.625 2999.625" enable-background="new 0 0 2999.625 2999.625"
	 xml:space="preserve">
<g>
	<path fill-rule="evenodd" clip-rule="evenodd" fill="none" d="M2,3003.624C2,2003.084,2,1002.542,2,2.001
		c1000.541,0,2001.082,0,3001.623-0.001c0,1000.541,0,2001.082,0.001,3001.622C2003.084,3003.623,1002.542,3003.623,2,3003.624z
		 M2767.85,1546.894c0-142.31,0.002-284.62-0.002-426.929c0-6.33-0.01-12.64-0.977-18.943
		c-7.223-47.083-28.778-86.175-65.399-116.689c-33.448-27.87-71.869-42.713-115.659-42.721
		c-135.311-0.025-270.621-0.01-405.933-0.01c-81.32,0-162.64,0.008-243.96-0.023c-4.304-0.002-8.864,0.867-12.814-1.192
		c-4.699-2.449-9.592-2.462-14.591-2.461c-31.645,0.003-63.29-0.053-94.936,0.018c-44.299,0.097-88.597,0.411-132.895,0.404
		c-48.96-0.007-97.919-0.347-146.878-0.404c-59.982-0.069-119.964-0.038-179.946,0.044c-16.644,0.022-33.32,1.104-49.924,0.389
		c-17.987-0.774-35.928,0.157-53.891-0.082c-27.979-0.372-55.982,0.468-83.945-0.309c-13.464-0.374-22.786,5.245-30.977,14.786
		c-13.095,15.252-24.119,31.955-32.88,49.928c-6.352,13.031-12.693,26.234-12.672,41.566c0.173,130.308,0.107,260.617,0.108,390.925
		c0,91.317-0.005,182.633-0.025,273.948c-0.001,4.982,0.594,10.146-1.923,14.711c-3.544,6.429-3.736,13.314-3.731,20.373
		c0.055,72.32,0.063,144.642,0,216.964c-0.009,10.698,0.901,21.378,2.604,31.829c9.398,57.688,39.703,101.674,89.073,132.491
		c29.646,18.505,62.651,26.179,97.181,26.21c247.962,0.225,495.925,0.121,743.886,0.121c3.333,0,6.673,0.158,9.996-0.014
		c5.36-0.277,9.481,1.845,13.443,5.383c21.107,18.849,42.416,37.471,63.594,56.24c29.649,26.279,59.249,52.615,88.861,78.936
		c42.305,37.604,84.629,75.183,126.89,112.833c33.313,29.679,66.597,59.391,99.784,89.21c13.051,11.729,28.492,17.679,45.67,17.096
		c38.217-1.297,63.585-34.963,63.254-65.709c-0.991-91.975-0.356-183.966-0.355-275.951c0-2.998-0.087-6.003,0.051-8.997
		c0.351-7.638,1.258-8.751,8.731-8.935c9.659-0.236,19.333-0.27,28.993-0.049c16.021,0.363,31.995-0.287,47.775-2.997
		c49.277-8.46,88.936-32.994,118.686-73.021c23.085-31.061,35.779-65.905,35.76-105.036
		C2767.809,1829.514,2767.85,1688.204,2767.85,1546.894z M1080.38,491.979c-216.957,0-433.917,0.016-650.875-0.043
		c-12.037-0.004-23.988,1.012-35.77,3.073c-43.872,7.677-80.739,27.931-110.106,61.744c-29.626,34.111-45.321,73.703-45.362,118.72
		c-0.256,279.945-0.125,559.892-0.149,839.838c-0.001,8.672,0.37,17.275,1.526,25.9c5.211,38.875,20.965,72.838,47.707,101.433
		c37.477,40.073,83.491,60.706,138.799,59.595c14.324-0.288,28.663-0.165,42.99,0.048c7.535,0.112,8.497,1.304,8.909,8.832
		c0.146,2.659,0.058,5.33,0.058,7.997c0.002,45.657,0,91.315,0.002,136.973c0.001,46.991-0.095,93.982,0.047,140.973
		c0.078,25.656,12.65,44.455,33.831,57.573c18.501,11.46,52.48,11.821,74.65-8.382c16.731-15.247,33.906-30.006,50.832-45.042
		c42.313-37.589,84.593-75.217,126.894-112.819c29.611-26.322,59.254-52.605,88.85-78.945
		c37.803-33.645,75.634-67.258,113.274-101.084c4.794-4.307,9.635-6.369,16.09-6.268c18.659,0.293,37.325,0.113,55.988,0.095
		c15.066-0.015,15.35-0.616,15.065-15.83c-0.441-23.614-1.217-47.26-0.476-70.849c0.962-30.618-0.02-61.217,0.334-91.826
		c0.55-47.566-0.196-95.147-0.213-142.723c-0.012-33.961,0.353-67.923,0.405-101.885c0.075-48.266,0.272-96.535-0.067-144.798
		c-0.241-34.313,0.168-68.616,0.413-102.923c0.048-6.785,1.555-13.168,3.863-19.482c11.918-32.603,29.417-61.915,52.281-87.964
		c8.53-9.718,19.388-16.953,32.064-19.06c10.704-1.779,21.617-3.459,32.718-3.016c13.976,0.559,27.989,0.157,41.986,0.157
		c143.302,0.002,286.603,0.001,429.903,0c87.313,0,174.627,0.015,261.939-0.021c12.551-0.005,13.15-0.606,13.155-12.826
		c0.031-71.986,0.6-143.979-0.198-215.956c-0.527-47.675-18.481-89.104-51.398-123.453c-37.489-39.121-84.329-57.585-138.084-57.649
		C1514.964,491.827,1297.673,491.979,1080.38,491.979z"/>
	<path fill-rule="evenodd" clip-rule="evenodd" d="M2767.85,1546.894c0,141.311-0.041,282.62,0.027,423.931
		c0.02,39.131-12.675,73.976-35.76,105.036c-29.75,40.027-69.408,64.562-118.686,73.021c-15.78,2.71-31.754,3.36-47.775,2.997
		c-9.66-0.221-19.334-0.188-28.993,0.049c-7.474,0.184-8.381,1.297-8.731,8.935c-0.138,2.994-0.051,5.999-0.051,8.997
		c-0.001,91.985-0.636,183.977,0.355,275.951c0.331,30.746-25.037,64.412-63.254,65.709c-17.178,0.583-32.619-5.367-45.67-17.096
		c-33.188-29.819-66.471-59.531-99.784-89.21c-42.261-37.65-84.585-75.229-126.89-112.833
		c-29.612-26.32-59.212-52.656-88.861-78.936c-21.178-18.77-42.486-37.392-63.594-56.24c-3.962-3.538-8.083-5.66-13.443-5.383
		c-3.323,0.172-6.663,0.014-9.996,0.014c-247.961,0-495.924,0.104-743.886-0.121c-34.53-0.031-67.536-7.705-97.181-26.21
		c-49.37-30.817-79.675-74.804-89.073-132.491c-1.703-10.451-2.613-21.131-2.604-31.829c0.063-72.322,0.055-144.644,0-216.964
		c-0.005-7.059,0.188-13.944,3.731-20.373c2.517-4.565,1.922-9.729,1.923-14.711c0.021-91.315,0.025-182.631,0.025-273.948
		c-0.001-130.308,0.064-260.617-0.108-390.925c-0.021-15.332,6.32-28.535,12.672-41.566c8.762-17.973,19.785-34.676,32.88-49.928
		c8.19-9.541,17.513-15.16,30.977-14.786c27.962,0.776,55.966-0.063,83.945,0.309c17.962,0.239,35.903-0.692,53.891,0.082
		c16.604,0.715,33.28-0.366,49.924-0.389c59.982-0.082,119.963-0.113,179.946-0.044c48.959,0.058,97.918,0.397,146.878,0.404
		c44.298,0.007,88.596-0.308,132.895-0.404c31.646-0.07,63.291-0.015,94.936-0.018c4.999-0.001,9.892,0.013,14.591,2.461
		c3.95,2.06,8.511,1.19,12.814,1.192c81.32,0.031,162.64,0.023,243.96,0.023c135.312,0,270.622-0.016,405.933,0.01
		c43.79,0.008,82.211,14.852,115.659,42.721c36.621,30.515,58.177,69.606,65.399,116.689c0.967,6.303,0.977,12.613,0.977,18.943
		C2767.852,1262.274,2767.85,1404.584,2767.85,1546.894z"/>
	<path fill-rule="evenodd" clip-rule="evenodd" d="M1080.38,491.979c217.292,0,434.583-0.151,651.875,0.107
		c53.755,0.063,100.595,18.528,138.084,57.649c32.917,34.349,50.871,75.778,51.398,123.453c0.798,71.977,0.229,143.97,0.198,215.956
		c-0.005,12.219-0.604,12.821-13.155,12.826c-87.313,0.036-174.626,0.021-261.939,0.021c-143.301,0.001-286.602,0.002-429.903,0
		c-13.997,0-28.01,0.401-41.986-0.157c-11.101-0.443-22.015,1.237-32.718,3.016c-12.676,2.107-23.534,9.342-32.064,19.06
		c-22.863,26.049-40.362,55.361-52.281,87.964c-2.308,6.313-3.815,12.697-3.863,19.482c-0.245,34.307-0.654,68.609-0.413,102.923
		c0.34,48.263,0.143,96.532,0.067,144.798c-0.053,33.962-0.417,67.923-0.405,101.885c0.017,47.575,0.763,95.156,0.213,142.723
		c-0.354,30.609,0.628,61.208-0.334,91.826c-0.741,23.589,0.034,47.234,0.476,70.849c0.284,15.214,0.001,15.815-15.065,15.83
		c-18.664,0.019-37.329,0.198-55.988-0.095c-6.455-0.102-11.295,1.961-16.09,6.268c-37.641,33.826-75.472,67.439-113.274,101.084
		c-29.595,26.34-59.239,52.623-88.85,78.945c-42.301,37.603-84.581,75.23-126.894,112.819c-16.926,15.036-34.1,29.795-50.832,45.042
		c-22.169,20.203-56.148,19.842-74.65,8.382c-21.18-13.118-33.752-31.917-33.831-57.573c-0.142-46.99-0.046-93.981-0.047-140.973
		c-0.002-45.657,0-91.315-0.002-136.973c0-2.667,0.088-5.338-0.058-7.997c-0.412-7.528-1.374-8.72-8.909-8.832
		c-14.327-0.213-28.666-0.336-42.99-0.048c-55.309,1.111-101.322-19.521-138.799-59.595
		c-26.742-28.595-42.496-62.558-47.707-101.433c-1.156-8.625-1.527-17.229-1.526-25.9c0.024-279.946-0.107-559.893,0.149-839.838
		c0.041-45.017,15.735-84.609,45.362-118.72c29.368-33.813,66.235-54.067,110.106-61.744c11.782-2.061,23.733-3.077,35.77-3.073
		C646.464,491.994,863.423,491.979,1080.38,491.979z"/>
</g>
</svg>
