<?xml version="1.0" encoding="utf-8"?>
<!-- Generator: Adobe Illustrator 16.0.2, SVG Export Plug-In . SVG Version: 6.00 Build 0)  -->
<!DOCTYPE svg PUBLIC "-//W3C//DTD SVG 1.1//EN" "http://www.w3.org/Graphics/SVG/1.1/DTD/svg11.dtd">
<svg version="1.1" id="Layer_1" xmlns="http://www.w3.org/2000/svg" xmlns:xlink="http://www.w3.org/1999/xlink" x="0px" y="0px"
	 width="354.504px" height="354.504px" viewBox="0 0 354.504 354.504" enable-background="new 0 0 354.504 354.504"
	 xml:space="preserve">
<g>
	<path fill-rule="evenodd" clip-rule="evenodd" d="M289.419,355.196c-68.777,0-137.555,0-206.332,0
		c-0.434-0.151-0.856-0.354-1.302-0.446c-17.65-3.65-30.858-17.009-34.293-34.731c-1.546-7.975-1.251-16.051-1.25-24.108
		c0.001-6.635,0.008-6.512,6.581-6.673c7.938-0.194,15.92,0.823,23.809-0.693c13.505-2.599,22.072-17.473,17.616-30.495
		c-3.617-10.569-12.163-16.757-23.571-16.923c-6.805-0.098-13.614-0.119-20.418,0.009c-2.984,0.057-4.086-1.066-4.051-4.049
		c0.112-9.459,0.034-18.919,0.035-28.378c0-6.674,0.007-6.55,6.542-6.711c7.938-0.197,15.92,0.82,23.81-0.688
		c13.018-2.49,21.789-16.887,18.029-29.504c-3.281-11.011-12.34-17.847-23.855-17.932c-6.921-0.051-13.843-0.027-20.764-0.02
		c-2.007,0.002-3.732-0.235-3.727-2.878c0.019-11.074,0.023-22.148-0.008-33.223c-0.007-2.598,1.595-2.965,3.656-2.958
		c6.114,0.02,12.229-0.083,18.342,0.025c3.619,0.064,7.116-0.506,10.575-1.425c8.397-2.229,16.023-11.597,16.532-20.247
		c0.888-15.09-9.751-26.431-24.913-26.518c-6.69-0.039-13.384-0.125-20.071,0.034c-3.191,0.076-4.275-1.186-4.18-4.275
		c0.227-7.363-0.034-14.721,0.632-22.098c0.863-9.559,4.428-17.766,10.646-24.943C64.31,7.469,72.958,2.791,83.087,0.692
		c68.777,0,137.555,0,206.332,0c1.206,0.375,2.4,0.799,3.621,1.116c19.062,4.952,32.526,22.193,32.529,41.754
		c0.009,89.587,0.015,179.175-0.011,268.762c-0.003,11.468-4.306,21.26-11.986,29.677
		C307.024,349.177,298.672,352.997,289.419,355.196z M194.564,251.188c8.995,0,17.989,0.001,26.983,0
		c11.301-0.001,22.602,0.002,33.901-0.009c1.869-0.001,3.951,0.16,3.989-2.574c0.116-8.171,0.596-16.397-1.116-24.446
		c-4.613-21.688-21.992-36.981-45.521-37.606c-13.914-0.369-27.87-0.776-41.799,0.481c-18.792,1.698-35.411,15.818-40.055,34.042
		c-2.15,8.438-1.031,16.971-1.287,25.462c-0.135,4.456,0.165,4.642,4.711,4.645C154.436,251.193,174.5,251.187,194.564,251.188z
		 M194.288,88.776c-21.888-0.675-41.543,17.56-41.524,41.023c0.019,23.737,18.372,41.416,41.365,41.703
		c22.882,0.286,41.936-18.864,41.796-41.723C235.786,107.16,216.392,88.027,194.288,88.776z"/>
	<path fill-rule="evenodd" clip-rule="evenodd" fill="none" d="M83.087,0.692C72.958,2.791,64.31,7.469,57.486,15.346
		c-6.218,7.178-9.783,15.385-10.646,24.943c-0.666,7.376-0.405,14.734-0.632,22.098c-0.095,3.089,0.989,4.351,4.18,4.275
		c6.687-0.159,13.381-0.072,20.071-0.034c15.162,0.087,25.801,11.428,24.913,26.518c-0.509,8.65-8.135,18.019-16.532,20.247
		c-3.459,0.918-6.956,1.489-10.575,1.425c-6.112-0.108-12.228-0.005-18.342-0.025c-2.062-0.006-3.664,0.361-3.656,2.958
		c0.031,11.074,0.027,22.148,0.008,33.223c-0.005,2.643,1.72,2.88,3.727,2.878c6.921-0.007,13.843-0.031,20.764,0.02
		c11.515,0.085,20.575,6.921,23.855,17.932c3.76,12.618-5.012,27.014-18.029,29.504c-7.89,1.509-15.873,0.491-23.81,0.688
		c-6.534,0.161-6.541,0.037-6.542,6.711c0,9.459,0.078,18.919-0.035,28.378c-0.036,2.982,1.067,4.105,4.051,4.049
		c6.804-0.128,13.613-0.106,20.418-0.009c11.408,0.166,19.955,6.354,23.571,16.923c4.456,13.022-4.111,27.896-17.616,30.495
		c-7.889,1.517-15.872,0.499-23.809,0.693c-6.573,0.161-6.58,0.038-6.581,6.673c-0.001,8.058-0.295,16.134,1.25,24.108
		c3.435,17.723,16.643,31.081,34.293,34.731c0.446,0.092,0.868,0.295,1.302,0.446c-26.657,0-53.314-0.029-79.971,0.059
		c-2.066,0.006-2.481-0.418-2.48-2.482C0.7,236.221,0.7,119.668,0.636,3.116C0.635,1.051,1.05,0.627,3.116,0.634
		C29.773,0.722,56.43,0.692,83.087,0.692z M58.044,191.934c4.721,0,9.443,0.06,14.163-0.014c7.61-0.117,13.607-6.429,13.486-14.095
		c-0.122-7.733-5.86-13.771-13.378-13.846c-9.441-0.093-18.884-0.099-28.325,0.001c-7.859,0.083-13.645,6.077-13.662,13.91
		c-0.017,7.862,5.731,13.863,13.554,14.021C48.601,192.008,53.323,191.93,58.044,191.934z M58.053,104.691
		c4.73,0,9.461,0.061,14.189-0.014c7.413-0.117,13.344-6.293,13.452-13.902c0.106-7.544-5.816-13.946-13.228-14.03
		c-9.574-0.108-19.151-0.122-28.724,0.006c-7.649,0.102-13.38,6.15-13.414,13.841c-0.035,7.892,5.703,13.917,13.537,14.078
		C48.592,104.768,53.323,104.688,58.053,104.691z M58.273,279.176c4.615,0,9.229,0.054,13.843-0.012
		c7.67-0.109,13.682-6.366,13.577-14.047c-0.104-7.606-6.037-13.831-13.448-13.899c-9.343-0.086-18.689-0.086-28.032-0.005
		c-8.118,0.07-13.92,6.036-13.886,14.081c0.033,7.846,5.834,13.736,13.756,13.866C48.812,279.237,53.543,279.174,58.273,279.176z"/>
	<path fill-rule="evenodd" clip-rule="evenodd" fill="none" d="M289.419,355.196c9.253-2.199,17.605-6.02,24.153-13.194
		c7.681-8.417,11.983-18.209,11.986-29.677c0.025-89.587,0.02-179.175,0.011-268.762c-0.003-19.561-13.468-36.802-32.529-41.754
		c-1.221-0.317-2.415-0.742-3.621-1.116c21.104,0,42.206,0.028,63.309-0.047c1.934-0.007,2.536,0.227,2.535,2.422
		c-0.075,116.585-0.075,233.17,0,349.754c0.001,2.196-0.602,2.429-2.535,2.422C331.625,355.168,310.522,355.196,289.419,355.196z"/>
	<path fill-rule="evenodd" clip-rule="evenodd" fill="none" d="M194.564,251.187c-20.064,0-40.128,0.007-60.193-0.005
		c-4.547-0.003-4.846-0.188-4.711-4.645c0.256-8.491-0.864-17.023,1.287-25.462c4.644-18.224,21.263-32.344,40.055-34.042
		c13.929-1.258,27.885-0.851,41.799-0.481c23.529,0.625,40.908,15.919,45.521,37.606c1.712,8.049,1.232,16.275,1.116,24.446
		c-0.038,2.734-2.12,2.573-3.989,2.574c-11.3,0.011-22.601,0.008-33.901,0.009C212.554,251.188,203.56,251.188,194.564,251.187z"/>
	<path fill-rule="evenodd" clip-rule="evenodd" fill="none" d="M194.288,88.776c22.104-0.749,41.498,18.384,41.637,41.003
		c0.14,22.859-18.914,42.009-41.796,41.723c-22.993-0.288-41.346-17.966-41.365-41.703C152.745,106.335,172.4,88.101,194.288,88.776
		z"/>
	<path fill-rule="evenodd" clip-rule="evenodd" d="M58.044,191.932c-4.721-0.002-9.443,0.076-14.163-0.02
		c-7.823-0.158-13.57-6.159-13.554-14.021c0.017-7.833,5.803-13.827,13.662-13.91c9.441-0.1,18.884-0.095,28.325-0.001
		c7.518,0.074,13.256,6.113,13.378,13.846c0.122,7.666-5.875,13.978-13.486,14.095C67.487,191.993,62.765,191.934,58.044,191.932z"
		/>
	<path fill-rule="evenodd" clip-rule="evenodd" d="M58.053,104.69c-4.729-0.002-9.461,0.078-14.188-0.021
		c-7.833-0.162-13.571-6.186-13.537-14.078c0.034-7.691,5.765-13.74,13.414-13.841c9.573-0.128,19.15-0.114,28.724-0.006
		c7.411,0.084,13.334,6.486,13.228,14.03c-0.108,7.609-6.039,13.786-13.452,13.902C67.514,104.752,62.783,104.691,58.053,104.69z"/>
	<path fill-rule="evenodd" clip-rule="evenodd" d="M58.273,279.175c-4.729-0.001-9.461,0.063-14.189-0.015
		c-7.922-0.13-13.723-6.021-13.756-13.866c-0.035-8.045,5.768-14.011,13.886-14.081c9.343-0.081,18.689-0.081,28.032,0.005
		c7.411,0.068,13.344,6.293,13.448,13.899c0.104,7.681-5.907,13.938-13.577,14.047C67.502,279.229,62.888,279.176,58.273,279.175z"
		/>
</g>
</svg>
