<?xml version="1.0" encoding="utf-8"?>
<!-- Generator: Adobe Illustrator 16.0.2, SVG Export Plug-In . SVG Version: 6.00 Build 0)  -->
<!DOCTYPE svg PUBLIC "-//W3C//DTD SVG 1.1//EN" "http://www.w3.org/Graphics/SVG/1.1/DTD/svg11.dtd">
<svg version="1.1" id="Layer_1" xmlns="http://www.w3.org/2000/svg" xmlns:xlink="http://www.w3.org/1999/xlink" x="0px" y="0px"
	 width="351.073px" height="351.073px" viewBox="0 0 351.073 351.073" enable-background="new 0 0 351.073 351.073"
	 xml:space="preserve">
<g>
	<path fill-rule="evenodd" clip-rule="evenodd" d="M191.308,351.759c-10.057,0-20.114,0-30.17,0c-0.315-0.26-0.606-0.706-0.95-0.751
		c-5.572-0.735-11.173-1.283-16.725-2.143c-14.051-2.178-27.443-6.628-40.292-12.591c-13.091-6.074-25.284-13.611-36.67-22.6
		c-11.188-8.831-21.057-18.873-29.698-30.082c-9.08-11.779-16.486-24.604-22.355-38.334c-6.169-14.431-10.347-29.347-12.279-44.912
		c-0.376-3.028-0.982-6.027-1.483-9.039c0-10.058,0-20.113,0-30.17c0.26-0.315,0.706-0.606,0.751-0.95
		c0.736-5.572,1.284-11.172,2.144-16.725c2.176-14.051,6.627-27.443,12.589-40.292C22.245,90.08,29.75,77.864,38.778,66.507
		c8.861-11.148,18.87-21.06,30.075-29.704c11.776-9.084,24.603-16.487,38.333-22.356c14.431-6.169,29.347-10.347,44.913-12.279
		c3.027-0.375,6.027-0.982,9.039-1.482c10.057,0,20.114,0,30.17,0c0.315,0.26,0.606,0.706,0.95,0.751
		c5.572,0.735,11.173,1.283,16.725,2.143c14.052,2.177,27.442,6.628,40.291,12.59c13.092,6.075,25.284,13.611,36.671,22.6
		c11.188,8.832,21.057,18.873,29.697,30.083c9.079,11.779,16.486,24.604,22.356,38.334c6.168,14.431,10.346,29.347,12.278,44.912
		c0.376,3.028,0.982,6.027,1.482,9.039c0,10.057,0,20.113,0,30.17c-0.26,0.315-0.706,0.605-0.751,0.95
		c-0.735,5.572-1.283,11.173-2.144,16.725c-2.177,14.052-6.627,27.442-12.59,40.291c-6.074,13.092-13.611,25.284-22.6,36.671
		c-8.831,11.188-18.873,21.057-30.082,29.697c-11.779,9.079-24.604,16.486-38.334,22.356c-14.431,6.168-29.347,10.346-44.912,12.278
		C197.319,350.652,194.319,351.259,191.308,351.759z M155.283,201.739c-0.94-1.104-1.488-1.843-2.132-2.486
		c-16.47-16.49-32.94-32.98-49.436-49.446c-5.195-5.186-13.543-6.172-18.355-1.755c-7.55,6.932-14.852,14.14-22.137,21.354
		c-6.401,6.338-5.89,17.024,0.597,22.631c4.913,4.248,9.271,9.139,13.875,13.743c22.459,22.459,44.913,44.922,67.381,67.371
		c4.974,4.97,11.449,6.017,17.216,2.653c1.925-1.122,3.743-2.54,5.333-4.104c7.495-7.369,14.895-14.835,22.326-22.268
		c32.719-32.719,65.439-65.437,98.15-98.162c6.583-6.584,8.175-14.898,2.531-21.171c-7.661-8.516-16.191-16.301-24.79-23.899
		c-4.581-4.05-12.318-2.347-16.331,1.641c-30.369,30.179-60.767,60.33-91.146,90.498
		C157.399,199.303,156.527,200.363,155.283,201.739z"/>
</g>
</svg>
