<?xml version="1.0" encoding="utf-8"?>
<!-- Generator: Adobe Illustrator 16.0.2, SVG Export Plug-In . SVG Version: 6.00 Build 0)  -->
<!DOCTYPE svg PUBLIC "-//W3C//DTD SVG 1.1//EN" "http://www.w3.org/Graphics/SVG/1.1/DTD/svg11.dtd">
<svg version="1.1" id="Layer_1" xmlns="http://www.w3.org/2000/svg" xmlns:xlink="http://www.w3.org/1999/xlink" x="0px" y="0px"
	 width="1023.872px" height="1023.872px" viewBox="0 0 1023.872 1023.872" enable-background="new 0 0 1023.872 1023.872"
	 xml:space="preserve">
<g>
	<path fill-rule="evenodd" clip-rule="evenodd" d="M131.07,896.802c0-1.956,0-3.41,0-4.864c0-50.491-0.038-100.981,0.122-151.472
		c0.007-2.295,1.213-5.169,2.838-6.796c155.561-155.742,311.216-311.389,466.868-467.038c0.813-0.813,1.664-1.587,2.416-2.302
		c53.44,53.441,106.811,106.81,160.602,160.6c-1.198,1-2.567,1.976-3.74,3.148C605.22,583.004,450.27,737.937,295.398,892.948
		c-2.818,2.819-5.537,3.953-9.513,3.941c-49.491-0.136-98.981-0.088-148.472-0.088C135.456,896.802,133.498,896.802,131.07,896.802z
		"/>
	<path fill-rule="evenodd" clip-rule="evenodd" d="M648.46,219.036c22.489-22.483,45.422-45.471,68.436-68.375
		c5.279-5.254,10.364-10.888,16.366-15.191c12.753-9.141,36.084-9.411,49.343,1.866c3.393,2.886,6.781,5.802,9.932,8.944
		c30.304,30.231,60.559,60.51,90.822,90.78c7.05,7.051,13.147,14.819,14.845,24.908c2.271,13.494,0.751,26.782-9.069,36.882
		c-26.58,27.339-53.782,54.074-80.276,80.586C755.418,325.996,702.136,272.713,648.46,219.036z"/>
</g>
</svg>
