<?xml version="1.0" encoding="utf-8"?>
<!-- Generator: Adobe Illustrator 16.0.2, SVG Export Plug-In . SVG Version: 6.00 Build 0)  -->
<!DOCTYPE svg PUBLIC "-//W3C//DTD SVG 1.1//EN" "http://www.w3.org/Graphics/SVG/1.1/DTD/svg11.dtd">
<svg version="1.1" id="Layer_1" xmlns="http://www.w3.org/2000/svg" xmlns:xlink="http://www.w3.org/1999/xlink" x="0px" y="0px"
	 width="1298.838px" height="1298.838px" viewBox="0 0 1298.838 1298.838" enable-background="new 0 0 1298.838 1298.838"
	 xml:space="preserve">
<g>
	<path fill-rule="evenodd" clip-rule="evenodd" d="M347.652,582.264c-11.018,9.816-22.236,19.418-33.001,29.506
		c-11.227,10.518-22.107,21.411-32.972,32.306c-13.91,13.948-27.886,27.843-41.379,42.187c-7.696,8.182-17.18,12.185-27.7,14.501
		c-1.503,0.331-3.276-0.13-4.831-0.562c-3.167-0.881-6.202-2.412-9.412-2.934c-10.661-1.733-15.884-8.055-17.213-18.528
		c-0.928-7.302-1.831-14.229-0.027-21.795c1.584-6.649,5.938-10.661,9.777-15.108c6.464-7.487,13.756-14.277,20.873-21.182
		c6.077-5.896,12.49-11.447,18.578-17.332c3.53-3.413,6.63-7.267,10.075-10.773c3.654-3.721,7.477-7.277,11.245-10.886
		c2.815-2.696,5.755-5.268,8.468-8.062c3.409-3.51,6.531-7.301,9.979-10.769c3.674-3.696,7.66-7.081,11.373-10.74
		c3.792-3.738,7.412-7.651,11.122-11.474c1.367-1.408,2.713-2.848,4.181-4.146c3.317-2.935,2.522-5.641-0.646-8.59
		c-6.083-5.663-11.569-11.978-17.115-18.189c-0.865-0.969-0.987-2.812-1.034-4.262c-0.177-5.473,0.077-10.97-0.311-16.424
		c-0.536-7.548,5.725-11.2,9.206-16.302c2.478-3.631,6.891-5.883,10.11-9.083c3.586-3.566,6.667-7.637,10.208-11.253
		c3.523-3.596,7.385-6.857,11.023-10.344c3.289-3.153,6.459-6.429,9.711-9.621c7.091-6.96,14.273-13.828,21.279-20.873
		c5.644-5.676,11.016-11.621,16.631-17.325c3.89-3.951,8.075-7.609,11.974-11.551c5.969-6.035,11.753-12.252,17.715-18.294
		c3.56-3.607,7.315-7.021,10.972-10.534c2.814-2.704,5.671-5.369,8.401-8.156c3.537-3.611,7.08-7.225,10.417-11.017
		c9.789-11.125,25.874-19.005,41.77-11.927c9.967,4.438,15.661,12.815,23.117,19.581c6.579,5.968,12.811,12.328,19.076,18.633
		c6.384,6.424,12.54,13.076,18.95,19.475c6.169,6.159,12.585,12.071,18.804,18.181c8.513,8.362,16.938,16.814,25.407,25.221
		c16.86,16.737,33.755,33.438,50.575,50.216c7.968,7.948,15.71,16.124,23.707,24.042c6.81,6.744,13.901,13.206,20.755,19.908
		c5.788,5.658,11.381,11.517,17.126,17.22c4.089,4.058,8.731,7.645,12.341,12.082c6.578,8.088,13.149,16.444,11.077,28.026
		c-0.286,1.601-0.857,3.248-1.689,4.638c-4.751,7.939-9.514,15.627-17.067,21.667c-6.715,5.37-11.714,12.836-17.811,19.042
		c-5.706,5.808-12,11.036-17.781,16.775c-6.404,6.357-12.484,13.04-18.777,19.511c-2.59,2.663-5.348,5.163-8.059,7.707
		c-6.356,5.967-12.884,11.761-19.051,17.916c-6.13,6.118-11.763,12.734-17.875,18.872c-5.912,5.937-12.19,11.507-18.238,17.309
		c-2.84,2.725-5.557,5.579-8.264,8.438c-3.392,3.585-6.792,7.167-10.055,10.869c-7.229,8.204-25.994,13.184-35.969,8.487
		c-4.666-2.197-8.449-6.422-12.359-10.023c-3.21-2.958-5.583-7.043-9.167-9.289c-2.079-1.303-6.125-0.692-8.72,0.4
		c-2.595,1.094-4.558,3.788-6.672,5.904c-9.656,9.667-19.32,19.325-28.874,29.091c-5.984,6.116-11.658,12.538-17.691,18.603
		c-6.152,6.183-12.671,12-18.852,18.154c-5.941,5.914-11.626,12.084-17.479,18.089c-3.333,3.422-6.699,6.82-10.19,10.078
		c-4.387,4.098-8.765,8.232-13.452,11.971c-2.357,1.878-5.298,3.878-8.13,4.137c-6.604,0.604-13.352,0.705-19.945,0.05
		c-8.116-0.808-13.238-6.264-16.989-13.155c-0.687-1.262-1.716-2.333-2.534-3.528c-0.909-1.327-2.449-2.662-2.517-4.052
		c-0.331-6.911-1.3-14.045,0.014-20.694c0.903-4.57,4.861-8.726,8.011-12.615c4-4.937,8.377-9.609,12.929-14.048
		c6.142-5.988,12.697-11.553,18.895-17.485c3.392-3.245,6.31-6.981,9.635-10.304c3.886-3.882,7.999-7.538,11.984-11.322
		c2.717-2.581,5.478-5.127,8.057-7.841c6.064-6.379,11.911-12.97,18.075-19.249c5.475-5.577,11.19-10.926,16.933-16.231
		c3.361-3.104,7.035-5.867,10.475-8.89c2.996-2.633,2.2-13.175-1.062-15.81c-3.921-3.17-8.058-6.129-11.649-9.641
		c-6.145-6.01-11.845-12.473-17.908-18.571c-5.794-5.827-11.894-11.352-17.712-17.158c-6.43-6.418-12.605-13.091-19.05-19.492
		c-5.961-5.918-12.105-11.653-18.226-17.406c-2.281-2.143-4.726-4.11-7.097-6.156C346.638,580.796,347.145,581.53,347.652,582.264z"
		/>
	<path fill-rule="evenodd" clip-rule="evenodd" d="M801.791,241.901c16.953,0.711,33.908,1.397,50.858,2.176
		c1.447,0.066,3.242,0.318,4.235,1.203c5.083,4.528,11.479,4.583,17.603,5.797c2.29,0.454,4.377,1.996,6.515,3.12
		c0.867,0.456,1.59,1.563,2.435,1.626c9.002,0.685,16.053,6.224,23.973,9.562c2.35,0.989,4.395,2.717,6.532,4.176
		c0.53,0.362,0.827,1.39,1.31,1.447c6.311,0.741,9.783,6.075,14.639,9.122c4.563,2.863,8.745,6.483,12.624,10.254
		c7.271,7.066,14.502,14.222,21.17,21.846c4.478,5.121,7.97,11.103,11.88,16.716c2.121,3.042,4.451,5.976,6.239,9.206
		c4.206,7.599,8.282,15.277,12.116,23.069c1.36,2.763,2.171,5.896,2.69,8.952c0.777,4.585,1.363,8.96,4.564,12.871
		c1.702,2.08,2.11,5.545,2.341,8.446c0.989,12.414,1.62,24.854,2.519,37.275c1.358,18.782-2.178,37.281-3.12,55.929
		c-0.082,1.613-0.776,3.21-1.287,4.784c-1.662,5.117-3.237,10.268-5.111,15.308c-1.131,3.039-2.751,5.896-4.174,8.823
		c-0.14,0.288-0.58,0.47-0.638,0.751c-1.57,7.601-5.947,13.863-9.811,20.34c-3.319,5.564-6.733,11.094-10.482,16.372
		c-3.52,4.956-7.394,9.681-11.368,14.287c-3.951,4.578-8.205,8.899-12.361,13.3c-2.466,2.611-5.03,5.129-7.497,7.738
		c-3.681,3.892-7.293,7.847-10.976,11.736c-2.353,2.484-4.7,4.979-7.185,7.327c-6.198,5.859-12.631,11.478-18.674,17.491
		c-6.489,6.457-12.604,13.288-18.959,19.881c-2.366,2.454-4.965,4.682-7.436,7.038c-8.773,8.367-17.646,16.637-26.268,25.157
		c-6.066,5.994-11.642,12.483-17.703,18.482c-6.15,6.088-12.67,11.799-18.943,17.764c-2.844,2.703-5.511,5.595-8.212,8.445
		c-5.973,6.302-11.802,12.746-17.917,18.907c-3.435,3.46-7.468,6.321-10.967,9.724c-3.474,3.378-6.545,7.164-9.924,10.644
		c-2.73,2.812-5.668,5.419-8.491,8.142c-6.179,5.957-12.427,11.846-18.48,17.93c-3.536,3.555-6.665,7.516-10.136,11.14
		c-2.826,2.95-5.891,5.671-8.847,8.493c-8.526,8.141-17.155,16.177-25.542,24.458c-6.199,6.12-12,12.642-18.13,18.837
		c-5.771,5.833-12.015,11.22-17.524,17.281c-3.825,4.209-6.758,9.226-10.082,13.888c-0.089,0.125-0.022,0.403-0.122,0.471
		c-8.226,5.561-6.554,15.728-10.721,23.252c-3.514,6.343-4.539,13.447,0.264,20.154c1.029,1.438,1.62,3.298,2.03,5.052
		c1.446,6.192,2.895,11.879,6.987,17.514c3.953,5.44,7.639,11.27,12.533,15.722c5.442,4.95,10.625,10.718,18.203,12.823
		c0.635,0.176,1.468,0.335,1.801,0.796c4.179,5.788,10.918,4.45,16.514,6.395c8.092,2.812,15.373-0.169,23.029-0.59
		c11.189-0.615,19.464-6.642,27.576-13.354c4.22-3.489,8.869-6.495,12.852-10.225c3.842-3.599,7.01-7.906,10.594-11.791
		c2.827-3.063,5.834-5.959,8.767-8.924c4.587-4.636,9.069-9.382,13.804-13.862c3.485-3.297,7.323-6.219,10.955-9.364
		c0.982-0.851,1.76-1.933,2.682-2.858c1.53-1.537,3.101-3.034,4.655-4.547c2.754-2.681,5.634-5.245,8.229-8.07
		c3.449-3.754,6.593-7.788,10.024-11.559c2.39-2.627,4.969-5.094,7.594-7.489c3.736-3.412,7.73-6.552,11.359-10.07
		c3.664-3.552,7.03-7.412,10.502-11.16c2.909-3.138,5.714-6.374,8.688-9.447c4.638-4.795,9.264-9.613,14.119-14.183
		c3.463-3.259,7.521-5.897,10.902-9.229c3.741-3.688,6.863-7.996,10.536-11.76c3.423-3.506,7.211-6.655,10.853-9.946
		c0.486-0.438,1.135-0.712,1.575-1.184c5.91-6.348,10.948-13.99,17.965-18.666c5.362-3.574,9.996-9.831,17.906-9.264
		c4.941,0.354,10.018,0.452,14.894-0.272c8.833-1.313,15.274,3.817,20.595,8.823c4.239,3.99,8.841,8.611,9.788,15.971
		c1.251,9.716,0.923,19.145-0.233,28.686c-0.907,7.493-8.01,10.54-11.829,15.96c-1.298,1.843-3.232,3.233-4.853,4.854
		c-5.774,5.769-11.496,11.59-17.321,17.306c-3.344,3.28-7.028,6.225-10.239,9.621c-5.745,6.077-11.163,12.463-16.891,18.558
		c-2.665,2.837-5.796,5.231-8.605,7.942c-8.582,8.278-17.221,16.503-25.622,24.963c-6.204,6.245-11.978,12.916-18.111,19.233
		c-7.247,7.464-14.591,14.838-22.054,22.086c-5.988,5.817-12.401,11.203-18.291,17.114c-6.192,6.215-11.804,13.01-18.008,19.214
		c-5.902,5.904-12.187,11.433-18.405,17.013c-4.594,4.12-9.084,8.438-14.109,11.972c-5.43,3.817-11.413,6.853-17.189,10.17
		c-1.289,0.74-3.187,0.866-4.009,1.903c-4.237,5.356-10.226,5.541-16.21,6.181c-1.859,0.199-3.623,1.409-5.405,2.212
		c-3.086,1.394-6.133,4.008-9.23,4.06c-21.92,0.367-43.852,0.37-65.772,0.048c-3.163-0.047-6.263-2.527-9.442-3.747
		c-2.718-1.042-5.446-2.281-8.282-2.733c-4.491-0.717-8.861-1.139-12-5.142c-0.898-1.146-2.893-1.386-4.302-2.186
		c-3.215-1.826-6.386-3.731-9.555-5.638c-0.412-0.248-0.64-0.825-1.061-1.031c-17.688-8.681-29.614-23.811-42.101-38.168
		c-3.867-4.446-5.482-10.811-9.188-15.45c-4.897-6.129-6.102-13.724-9.607-20.178c-3.71-6.831-4.633-13.589-5.12-20.889
		c-0.748-11.191-2.718-22.372-2.554-33.532c0.177-12.025,1.961-24.058,3.605-36.01c0.442-3.213,3.159-6.056,4.415-9.232
		c1.194-3.023,1.686-6.319,2.788-9.386c0.812-2.262,2.038-4.39,3.215-6.5c0.872-1.563,1.965-3.002,2.955-4.5
		c4.205-6.365,7.886-13.164,12.731-18.996c7.497-9.024,15.55-17.626,23.803-25.977c11.209-11.343,22.917-22.191,34.24-33.425
		c6.155-6.105,11.826-12.696,17.955-18.83c6.117-6.125,12.651-11.833,18.783-17.943c5.788-5.768,11.186-11.926,16.953-17.714
		c3.917-3.93,8.229-7.462,12.263-11.277c2.722-2.573,5.302-5.3,7.889-8.011c5.856-6.141,11.579-12.414,17.551-18.438
		c3.656-3.688,7.727-6.959,11.51-10.525c2.728-2.571,5.348-5.265,7.908-8.006c3.441-3.686,6.597-7.659,10.213-11.157
		c3.697-3.577,7.904-6.621,11.696-10.106c2.606-2.395,4.883-5.149,7.31-7.74c3.34-3.565,6.576-7.234,10.052-10.663
		c3.726-3.675,7.696-7.102,11.523-10.676c3.203-2.99,6.506-5.893,9.493-9.088c5.76-6.164,11.148-12.684,17.043-18.71
		c3.549-3.627,7.851-6.506,11.652-9.902c2.793-2.495,5.396-5.216,7.952-7.957c3.305-3.542,6.311-7.376,9.755-10.77
		c3.756-3.699,7.937-6.962,11.796-10.561c2.494-2.328,4.758-4.906,7.1-7.395c3.243-3.449,6.444-6.938,9.696-10.378
		c3.88-4.101,7.791-8.171,11.701-12.245c0.456-0.474,1.155-0.777,1.467-1.319c3.493-6.076,6.178-12.803,10.56-18.139
		c7.062-8.6,7.13-19.682,11.774-29.123c2.406-4.89,2.036-11.309,2.27-17.063c0.31-7.648,0.467-15.368-0.238-22.972
		c-0.474-5.104-2.553-10.06-3.919-15.081c-1.129-4.145-2.278-8.284-3.39-12.433c-0.344-1.282-0.269-2.792-0.936-3.851
		c-3.64-5.779-7.536-11.397-11.159-17.186c-1.396-2.231-1.868-5.135-3.519-7.092c-3.531-4.186-7.52-7.993-11.392-11.883
		c-3.873-3.892-7.838-7.692-11.748-11.546c-0.592-0.582-0.99-1.563-1.677-1.812c-6.802-2.469-11.162-9.36-18.976-10.187
		c-2.181-0.23-4.046-2.634-6.271-3.457c-3.823-1.411-7.848-2.263-11.728-3.534c-3.413-1.117-6.652-2.95-10.132-3.64
		c-6.262-1.244-12.624-2.312-18.984-2.632c-6.788-0.342-13.629,0.177-20.437,0.521c-1.755,0.089-3.483,0.902-5.203,1.448
		c-4.976,1.579-9.87,3.498-14.936,4.694c-3.883,0.917-7.89,0.999-10.46,4.793c-0.573,0.846-1.976,1.146-3.016,1.657
		c-6.282,3.086-13.105,5.412-18.72,9.43c-6.793,4.861-12.627,11.083-18.762,16.838c-7.25,6.799-14.557,13.552-21.518,20.641
		c-10.449,10.64-20.686,21.492-30.867,32.387c-3.148,3.369-5.864,3.097-8.807-0.46c-3.346-4.042-7.425-7.469-11.111-11.237
		c-3.446-3.525-6.711-7.231-10.209-10.702c-4.065-4.035-8.315-7.883-12.454-11.844c-3.366-3.222-6.685-6.493-10.023-9.745
		c-1.153-1.124-2.209-2.37-3.467-3.36c-3.185-2.507-3.185-5.51-0.253-8.332c10.598-10.202,21.086-20.518,31.645-30.762
		c6.626-6.43,13.313-12.795,19.951-19.214c6.342-6.133,12.639-12.316,19.007-18.423c0.665-0.638,1.713-0.857,2.532-1.355
		c2.607-1.586,5.196-3.205,7.781-4.826c1.529-0.959,3.012-1.996,4.566-2.913c7.035-4.153,13.982-8.474,21.185-12.316
		c3.152-1.681,6.837-2.368,10.283-3.494c1.248-0.408,3.093-0.383,3.665-1.231c3.422-5.06,8.864-4.322,13.771-5.491
		c4.414-1.052,8.52-3.343,12.886-4.682c3.613-1.107,7.386-2.131,11.127-2.292c7.971-0.345,15.968-0.105,23.953-0.105
		C801.781,242.815,801.787,242.358,801.791,241.901z"/>
</g>
</svg>
