<?xml version="1.0" encoding="utf-8"?>
<!-- Generator: Adobe Illustrator 16.0.2, SVG Export Plug-In . SVG Version: 6.00 Build 0)  -->
<!DOCTYPE svg PUBLIC "-//W3C//DTD SVG 1.1//EN" "http://www.w3.org/Graphics/SVG/1.1/DTD/svg11.dtd">
<svg version="1.1" id="Layer_1" xmlns="http://www.w3.org/2000/svg" xmlns:xlink="http://www.w3.org/1999/xlink" x="0px" y="0px"
	 width="1298.838px" height="1298.838px" viewBox="0 0 1298.838 1298.838" enable-background="new 0 0 1298.838 1298.838"
	 xml:space="preserve">
<g>
	<path fill-rule="evenodd" clip-rule="evenodd" d="M646.818,644.761c-4.321-0.641-8.628-1.707-12.964-1.837
		c-10.153-0.305-20.32-0.17-30.48-0.187c-1.31-0.002-2.619,0.151-5.079,0.304c1.237,2.274,2.131,3.917,3.374,6.2
		c-1.045,0.351-2.249,1.104-3.452,1.104c-17.32-0.018-34.64-0.181-51.96-0.195c-3.625-0.004-7.251,0.449-11.175,0.712
		c-0.521,6.014-3.692,8.234-9.548,7.625c-4.675-0.485-9.441-0.098-14.809-0.098c0.897,1.984,1.396,3.087,2.247,4.97
		c-4.203,0.321-7.93,0.994-11.603,0.771c-3.133-0.19-4.431,0.84-4.406,3.753c0.022,2.654-1.243,3.354-3.745,3.315
		c-2.297-0.034-4.696,0.253-6.883,0.934c-3.093,0.962-6.66,2.115-2.344,6.843c-3.201,0.171-5.618,0.301-8.234,0.44
		c-0.3,2.419-0.582,4.691-0.897,7.235c-0.905,0.157-1.851,0.515-2.766,0.447c-4.041-0.297-6.08,0.896-4.963,5.458
		c0.25,1.024-0.912,3.428-1.567,3.483c-7.36,0.615-6.175,5.896-6.103,10.623c0.01,0.657-0.063,1.315-0.108,2.203
		c-12.496-0.255-5.965,10.105-9.078,15.638c-4.152-1.558-4.891,0.346-4.839,4.68c0.079,6.616-1.189,13.24-1.298,19.871
		c-0.042,2.542,2.165,5.097,2.226,7.671c0.103,4.363,2.97,3.411,5.592,4.336c5.927,2.09,11.106,2.338,17.171-0.252
		c3.288-1.404,8.016,0.903,12.101,0.956c8.132,0.105,7.002,5.494,6.979,10.874c-0.131,30.601-0.063,61.202-0.063,92.152
		c-4.037,0.638-7.349,1.164-5.659,7.128c1.012,3.574-0.794,8.131-2.008,12.035c-0.335,1.077-3.089,1.976-4.739,1.983
		c-27.654,0.132-55.308,0.08-82.961,0.177c-2.213,0.008-4.423,0.803-6.634,1.231l0.008,0.001c-6.839-1.164-7.192-0.892-7.225,5.846
		c-0.025,5.396-0.005,10.793-0.005,17.02c2.266-1.103,3.462-1.685,5.168-2.515c0.723,4.411,2.527,8.637,1.769,12.335
		c-1.275,6.225,2.108,5.265,5.892,4.808c0.309,2.931,0.81,5.69,0.847,8.456c0.088,6.673,0,6.674,7.739,6.95
		c0,3.543,0.081,7.127-0.024,10.705c-0.095,3.219,0.742,5.282,4.53,4.475c3.064-0.652,3.828,1.099,3.747,3.65
		c-0.084,2.663-0.614,5.38-0.248,7.973c0.474,3.355-0.937,7.919,5.049,8.48c2.374,0.223,2.271,2.418,1.896,5.895
		c-0.287,2.657,0.745,5.458,1.371,9.309c0.3-2.198,0.458-3.358,0.689-5.038c0.129,0.857,0.047,1.372,0.259,1.567
		c7.103,6.553,3.289,15.17,4.342,22.857c0.621,4.529,0.889,9.14,1.942,13.564c0.489,2.053,2.473,3.749,3.779,5.606
		c0.372-0.195,0.744-0.389,1.116-0.582c0,6.897,0,13.796,0,20.694c-0.531,0.04-1.063,0.08-1.594,0.12c0-5.758,0-11.517,0-17.274
		c-0.74-0.028-1.481-0.056-2.222-0.083c-1.098,12.891-2.197,25.783-3.291,38.616c-4.467,0.891-8.258,1.646-13.061,2.604
		c-0.051,0.913-0.171,3.049-0.313,5.604c-2.84,0.129-5.748,0.09-8.607,0.443c-2.479,0.306-4.882,1.271-7.362,1.532
		c-1.455,0.153-2.996-0.5-4.507-0.792c-0.707,2.883-0.707,2.883,5.487,5.57c-1.912,0.76-3.019,1.582-4.13,1.586
		c-20.327,0.067-40.656,0.009-60.984,0.046c-5.255,0.01-2.219-3.378-2.055-6.073c-6.372-0.514-7.419-5.025-6.779-10.71
		c-2.522,1.136-4.119,1.854-6.926,3.119c0-30.818,0-60.871,0-91.493c1.977,0.29,3.245,0.885,4.029,0.499
		c1.305-0.643,3.161-1.822,3.279-2.937c0.626-5.881,0.78-11.812,1.1-17.738c8.231-2.43,6.194-9.878,7.826-15.876
		c1.45,0.229,2.787,0.439,4.828,0.762c0-4.835,0-9.476,0-13.855c0.539-0.438,0.777-0.801,1.041-0.82
		c7.635-0.566,7.597-0.559,7.142-8.388c-0.143-2.459-0.022-4.933-0.022-7.422c6.481,0.976,7.537-0.003,8.008-7.437
		c0.124-1.96,0.019-3.935,0.019-5.384c2.503-0.915,6.297-1.293,6.673-2.631c1.086-3.871,1.287-8.193,0.747-12.192
		c-0.157-1.164-3.959-2.602-6.102-2.619c-25.326-0.202-50.654-0.147-75.981-0.2c-1.836-0.004-3.672-0.31-5.508-0.476
		c-0.02-0.504-0.04-1.009-0.059-1.513c4.103-0.371,8.205-0.741,12.308-1.112c-0.03-0.476-0.06-0.952-0.09-1.428
		c-11.689-0.765-23.378-1.528-35.474-2.32c0-37.033,0-73.399,0-110.085c1.948-0.205,3.879-0.408,6.207-0.653
		c-0.525-5.587,2.73-5.103,7.128-5.829c11.034-1.82,22.055-1.165,33.042-1.954c4.818-0.347,5.208-5.95,5.315-9.848
		c0.332-11.988,0.041-23.993,0.208-35.987c0.059-4.192,0.749-8.374,1.151-12.562c0.465-0.044,0.931-0.087,1.396-0.131
		c0.482,2.128,0.963,4.255,1.445,6.381c0.467-0.005,0.935-0.011,1.401-0.017c0.531-13.977,1.062-27.954,1.605-42.284
		c5.708,1.408,7.305-0.92,7.009-6.467c-0.305-5.727,0.649-11.52,1.087-17.771c6.632,2.583,6.939-1.716,7.135-6.207
		c0.135-3.084,0.375-6.163,0.613-9.984c1.634,1.216,2.578,1.918,3.75,2.79c0.818-3.574,1.968-6.737,2.169-9.96
		c0.238-3.814,0.795-6.688,6.105-5.847c0.251-4.2,0.483-8.083,0.762-12.721c2.1-0.228,4.565-0.494,7.647-0.827
		c1.169-3.248-1.76-10.724,7.235-7.803c0.351-3.791,0.39-7.066,1.064-10.207c0.293-1.364,2.111-3.617,2.862-3.475
		c6.07,1.142,5.337-2.615,4.815-6.622c5.097-0.115,7.867-2.695,7.625-7.807c6.458-1.021,6.458-1.021,7.019-8.135
		c4.533-0.525,9.176-1.063,14.237-1.649c-2.124-4.754-0.973-6.985,4.317-6.999c1.31-0.004,2.612-2.56,3.918-3.943
		c-0.328-0.426-0.655-0.851-0.982-1.278c2.912-0.388,5.82-1.042,8.738-1.097c3.599-0.068,6.92,0.18,5.709-5.198
		c-0.112-0.498,2.005-1.913,3.251-2.208c2.064-0.487,4.259-0.464,6.403-0.559c3.039-0.133,5.513-0.463,3.759-4.664
		c-0.237-0.569,1.521-2.705,2.604-2.935c2.057-0.437,4.301,0.107,6.458,0.018c3.548-0.147,6.968-0.361,7.287-5.324
		c0.235-3.648,3.313-2.978,5.761-2.98c4.938-0.002,9.875,0,14.66,0c1.894-7.763,8.236-4.142,12.348-5.592
		c2.941-1.038,6.608,0.034,9.6-0.929c1.643-0.529,2.557-3.322,4.263-5.758c9.421-0.438,19.833-0.89,30.24-1.433
		c2.027-0.105,4.035-0.568,6.052-0.866c-0.508-1.766-1.016-3.531-1.722-5.99c2.648,0,5.386,0.049,8.122-0.008
		c10.811-0.226,21.622-0.512,32.434-0.713c3.103-0.059,4.522-1.555,4.614-4.594c0.188-6.143,0.458-12.283,0.652-18.425
		c0.068-2.136,0.011-4.278,0.011-6.771c2.36,0,4.249,0,5.914,0c0.802-7.963,1.565-15.55,2.374-23.587
		c1.315,0.525,2.511,1.003,4.039,1.612c1.788-7.072-0.016-15.194,7.594-19.095c-0.06,0.822-0.168,2.325-0.278,3.826
		c1.894-3.77-0.238-11.104,9.866-7.142c-0.534-0.913-1.067-1.826-1.602-2.739c-2.286-0.196-4.571-0.392-6.914-0.593
		c0.014-2.251,0.014-2.251,7.679-4.142c0-1.932,0-3.905,0-6.32c2.351-0.249,4.601-0.487,7.291-0.772
		c0.192-2.27,0.396-4.669,0.633-7.455c2.377,0,4.63,0,6.85,0c0.637-6.804,6.338-8.289,13.981-8.97
		c-0.105-3.879,1.162-6.079,5.889-5.311c0.957,0.156,2.578-3.764,4.434-6.648c1.465-0.225,4.364-0.886,7.294-1.076
		c4.339-0.281,6.293-1.953,4.127-6.532c5.217-0.719,10.022-1.381,15.502-2.137c0-18.86,0-38.139,0-56.952
		c-2.375-0.778-5.163-0.91-6.524-2.372c-1.192-1.28-0.781-4.053-1.079-6.166c-0.507,0.005-1.013,0.01-1.52,0.015
		c-0.212,1.819-0.424,3.638-0.697,5.984c-1.729,0-3.533,0-5.537,0c0.43-1.854,0.794-3.425,1.463-6.313
		c-6.55-0.414-12.723-1.153-18.894-1.13c-23.314,0.085-46.627,0.512-69.941,0.604c-7.275,0.029-14.554-0.591-21.792-0.912
		c-1.005-7.548-1.005-7.548-7.893-7.192c-0.229-1.155-0.678-2.377-0.681-3.602c-0.019-9.162,0.095-18.324,0.066-27.485
		c-0.009-2.991,0.392-4.492,4.21-3.827c4.684,0.816,3.984-3.158,4.186-6.083c0.094-1.361,0.431-2.706,0.658-4.057
		c1.186,0.521,2.372,1.043,4.515,1.985c0.468-2.077,0.897-3.98,1.574-6.981c0.851-0.236,3.147-0.873,5.856-1.624
		c-0.153-3.995,1.631-6.471,6.572-6.578c1.242-0.026,2.424-2.846,4.158-5.048c5.446-0.979,12.125-2.176,18.948-3.402
		c-0.398-1.171-0.409-1.612-0.613-1.737c-1.384-0.848-2.81-1.629-4.22-2.432c1.697-0.47,3.382-1.287,5.094-1.351
		c6.961-0.253,13.932-0.25,20.897-0.415c1.077-0.025,2.146-0.437,3.201-0.665c-1.146-6.88-1.052-6.957,5.721-6.937
		c40.153,0.119,80.306,0.265,120.459,0.311c15.324,0.017,30.649-0.224,45.975-0.315c3.142-0.019,6.99-0.688,4.832,4.867
		c-0.129,0.331,2.64,2.571,4.097,2.611c12.127,0.332,24.265,0.307,36.396,0.53c1.582,0.029,3.148,0.86,4.723,1.32
		c-1.447,0.581-2.887,1.186-4.346,1.735c-1.005,0.377-2.039,0.677-3.06,1.012c-0.001,0.455-0.001,0.909-0.002,1.363
		c3.736,0.205,7.492,0.244,11.203,0.668c3.027,0.346,5.995,1.196,9.004,1.733c1.463,0.261,3.063,0.726,4.425,0.391
		c4.184-1.029,5.508,0.86,5.098,4.82c7.252,0.564,14.242,1.108,21.186,1.649c0.419,6.905,0.416,6.955,10.543,7.569
		c3.139,0.189,6.3,0.029,10.43,0.029c0.238,6.995,0.651,13.718,0.644,20.439c-0.007,6.135-0.415,12.273-0.784,18.401
		c-0.063,1.034-0.853,2.915-1.262,2.902c-5.3-0.157-5.242,4.053-6.137,7.793c-3.531,0.253-6.958,0.451-10.374,0.757
		c-4.585,0.409-3.618,3.715-3.056,6.748c-7.751,0.362-15.196,0.989-22.645,1.011c-27.992,0.081-55.985-0.028-83.978-0.085
		c-5.961-0.012-6.197,0.284-6.87,10.018c-1.337-0.421-2.588-0.814-4.292-1.351c0,16.779,0,33.281,0,50.388
		c1.561-0.716,2.637-1.21,4.237-1.944c0.273,6.017,0.217,12.278,9.092,10.936c0.105,1.444-0.171,2.758,0.343,3.575
		c0.869,1.378,2.072,3.188,3.431,3.49c3.523,0.783,7.207,0.845,10.803,1.192c1.809,5.313,1.841,5.186,10.237,7.351
		c2.008,0.517,3.719,2.185,5.566,3.324c-0.221,0.563-0.441,1.126-0.662,1.691c1.435,0,2.872,0.069,4.303-0.016
		c2.936-0.174,4.595,1.04,3.858,4.052c-0.933,3.806,1.053,4.287,4.037,4.195c3.229-0.099,6.464-0.022,10.17-0.022
		c0.065,1.249,0.398,2.542,0.146,3.708c-0.774,3.572,0.615,4.812,4.135,4.938c1.003,0.036,2.155,1.798,2.844,2.995
		c0.684,1.189,0.488,3.032,1.357,3.932c1.508,1.561,6.264,5.648,6.615,6.911c0.538,1.936,0.74,3.964,1.297,7.181
		c1.062-1.1,1.979-2.081,2.929-3.028c0.703-0.701,1.447-1.361,2.174-2.039c0.385,0.961,1.018,1.903,1.097,2.889
		c0.119,1.476-0.015,3.007-0.28,4.471c-0.819,4.525-0.088,7.307,5.549,5.883c0.684-0.172,2.432,1.411,2.657,2.413
		c0.428,1.901,0.089,3.97,0.106,5.969c0.138,15.633,0.279,31.266,0.444,46.897c0.009,0.802,0.246,1.602,0.477,3.016
		c5.785,0.333,11.526,0.917,17.271,0.948c21.16,0.114,42.323,0.101,63.484-0.001c4.207-0.021,8.427-0.532,12.604-1.092
		c0.767-0.103,1.909-1.515,1.94-2.356c0.45-12.032,0.747-24.069,1.06-36.106c0.053-1.985,0.008-3.973,0.008-6.716
		c1.53,0.906,2.514,1.487,4.377,2.589c1.234-4.814,2.419-9.44,3.775-14.738c6.419,0,13.434,0,20.729,0
		c-1.271,4.756-0.197,7.252,5.554,6.276c2.436-0.414,5.151,0.833,7.667,1.311c-0.036,6.936,0.081,7.052,6.735,6.78
		c0.666,5.335,2.352,10.818,1.736,16.028c-0.707,5.988,1.607,6.545,6.518,5.41c0,36.95,0,73.514,0,110.033
		c-7.383,1.493-7.293,1.484-6.503,9.406c0.324,3.255,0.739,6.672,0.107,9.813c-1.138,5.654,1.527,6.007,6.244,4.593
		c0,27.081,0,53.745,0,80.407c-0.453,0.154-0.906,0.309-1.359,0.463c-0.734-2.103-1.469-4.204-2.204-6.307
		c0.438-0.325,0.875-0.651,1.312-0.976c-1.114-0.124-2.229-0.248-3.173-0.352c-0.866,9.875-1.692,19.297-2.537,28.932
		c-3.183,0.237-6.499,0.224-9.679,0.874c-1.021,0.209-2.515,2.303-2.356,3.308c0.514,3.254-0.646,4.205-3.702,4.152
		c-7.163-0.125-14.331,0.004-21.494-0.113c-5.843-0.096-7.124-1.869-5.266-7.448c-2.02,0-3.913,0-6.909,0
		c0-19.689,0-38.999,0-58.143c-6.813-1.717-6.871-1.476-7.781,4.057c-0.193,1.173-3.068,2.687-4.728,2.712
		c-11.989,0.183-23.985-0.014-35.979-0.021c-34.32-0.02-68.643,0.239-102.958-0.168c-9.155-0.108-18.286-2.215-28.206-3.504
		c4.684-3.899,10.636,0.009,16.534-3.489c-2.854-0.399-4.294-0.775-5.734-0.777c-43.125-0.054-86.251-0.07-129.376-0.093
		c-0.833-0.001-1.752,0.22-2.478-0.061c-0.898-0.348-1.638-1.112-2.445-1.696c0.875-0.528,1.691-1.319,2.637-1.53
		c1.912-0.425,4.959,1.622,4.992-2.515c3.142,1.162,6.042,5.026,9.782,1.283c2.353,0.405,4.644,0.12,6.941-0.073
		c0.755-0.064,1.757-0.178,2.259,0.22c3.889,3.081,5.54-0.595,7.872-2.259c-2.329-0.01-4.556,0.403-6.802,0.617
		c-1.511,0.144-3.049-0.01-4.574-0.002c-1.125,0.005-2.256,0.156-3.371,0.067c-3.783-0.303-7.558-0.703-11.342-0.976
		C647.294,643.501,647.042,644.327,646.818,644.761z M485.286,766.65c-0.432,0-0.862-0.001-1.294-0.002c0,12.791,0,25.583,0,38.374
		c0.432,0,0.862,0.001,1.294,0.002C485.286,792.233,485.286,779.441,485.286,766.65z M947.069,455.366c-0.47,0-0.94,0-1.41,0
		c0,7.704,0,15.408,0,23.111c0.47,0.001,0.94,0.001,1.41,0.001C947.069,470.774,947.069,463.07,947.069,455.366z M947.339,657.985
		c-3.255,4.705-3.038,19.104,0,21.47C947.339,672.467,947.339,665.837,947.339,657.985z M596.27,646.424
		c-1.775-1.599-2.935-2.643-3.318-2.989c-5.848,0.548-10.746,1.007-15.645,1.466c0.019,0.508,0.037,1.015,0.056,1.522
		C583.289,646.424,589.213,646.424,596.27,646.424z"/>
</g>
</svg>
