<?xml version="1.0" encoding="utf-8"?>
<!-- Generator: Adobe Illustrator 16.0.2, SVG Export Plug-In . SVG Version: 6.00 Build 0)  -->
<!DOCTYPE svg PUBLIC "-//W3C//DTD SVG 1.1//EN" "http://www.w3.org/Graphics/SVG/1.1/DTD/svg11.dtd">
<svg version="1.1" id="Layer_1" xmlns="http://www.w3.org/2000/svg" xmlns:xlink="http://www.w3.org/1999/xlink" x="0px" y="0px"
	 width="351.073px" height="351.073px" viewBox="0 0 351.073 351.073" enable-background="new 0 0 351.073 351.073"
	 xml:space="preserve">
<g>
	<path fill-rule="evenodd" clip-rule="evenodd" d="M351.759,161.137c0,10.057,0,20.113,0,30.17c-0.25,0.324-0.678,0.626-0.724,0.978
		c-0.732,5.575-1.267,11.181-2.139,16.733c-2.222,14.155-6.717,27.634-12.752,40.585c-6.051,12.983-13.543,25.057-22.438,36.361
		c-8.819,11.208-18.88,21.067-30.092,29.715c-11.772,9.079-24.599,16.478-38.323,22.35c-14.43,6.173-29.35,10.337-44.911,12.279
		c-3.037,0.379-6.049,0.962-9.072,1.45c-10.057,0-20.114,0-30.17,0c-0.325-0.25-0.626-0.678-0.978-0.724
		c-5.576-0.732-11.181-1.268-16.733-2.139c-14.155-2.222-27.634-6.717-40.584-12.752c-12.984-6.051-25.057-13.543-36.362-22.438
		c-11.208-8.819-21.068-18.88-29.714-30.092c-9.08-11.772-16.478-24.599-22.35-38.323c-6.174-14.43-10.337-29.35-12.28-44.911
		c-0.379-3.037-0.962-6.049-1.451-9.072c0-10.058,0-20.113,0-30.17c0.25-0.325,0.678-0.626,0.724-0.978
		c0.732-5.576,1.267-11.181,2.139-16.733c2.221-14.155,6.717-27.634,12.752-40.585c6.051-12.984,13.511-25.08,22.447-36.355
		c8.85-11.166,18.875-21.071,30.083-29.72c11.771-9.083,24.599-16.479,38.323-22.351c14.43-6.173,29.349-10.337,44.911-12.279
		c3.037-0.379,6.049-0.962,9.072-1.451c10.057,0,20.114,0,30.17,0c0.324,0.25,0.626,0.678,0.978,0.724
		c5.575,0.732,11.181,1.267,16.733,2.139c14.155,2.221,27.634,6.717,40.585,12.752c12.983,6.05,25.057,13.542,36.361,22.438
		c11.208,8.819,21.067,18.88,29.715,30.092c9.079,11.772,16.478,24.599,22.35,38.324c6.173,14.43,10.337,29.349,12.279,44.911
		C350.688,155.102,351.271,158.114,351.759,161.137z M121.478,175.722c-1.825,1.362-2.844,1.947-3.646,2.748
		c-17.713,17.677-35.408,35.372-53.086,53.083c-1.691,1.694-3.398,3.406-4.857,5.295c-5.109,6.611-4.72,18.544,0.833,24.789
		c2.576,2.896,5.354,5.615,8.101,8.355c6.947,6.93,13.886,13.869,20.911,20.721c3.94,3.843,8.982,5.765,14.274,5.352
		c5.774-0.45,10.619-3.487,14.793-7.715c14.691-14.881,29.543-29.601,44.312-44.404c4.183-4.193,8.287-8.463,13.048-13.332
		c1.051,1.445,1.672,2.586,2.553,3.47c18.156,18.203,36.354,36.364,54.518,54.561c9.089,9.104,19.579,10.007,27.664,2.757
		c10.701-9.596,20.6-20.102,30.598-30.452c3.403-3.523,5.055-8.364,4.596-13.187c-0.563-5.89-3.53-10.834-7.896-15.069
		c-9.92-9.628-19.59-19.515-29.384-29.274c-9.139-9.107-18.307-18.186-27.576-27.391c1.011-1.085,1.756-1.937,2.553-2.734
		c11.713-11.719,23.458-23.405,35.142-35.153c7.571-7.612,15.139-15.23,22.541-23.004c3.439-3.612,4.958-8.422,4.614-13.174
		c-0.368-5.103-2.627-9.752-6.508-13.537c-8.657-8.442-17.645-16.628-25.532-25.754c-7.029-8.133-23.84-7.96-30.948,0.254
		c-7.532,8.704-16.187,16.437-24.335,24.61c-10.884,10.917-21.752,21.851-33.433,33.586c-0.869-1.335-1.398-2.552-2.271-3.428
		c-18.148-18.211-36.32-36.399-54.521-54.557c-8.961-8.94-20.751-9.626-29.887-1.129c-9.28,8.633-18.12,17.75-26.926,26.874
		c-2.06,2.134-4.105,4.986-4.608,7.786c-1.502,8.357-0.419,15.898,6.416,22.482c17.856,17.198,35.167,34.963,52.733,52.462
		C117.621,172.967,119.288,174.013,121.478,175.722z"/>
</g>
</svg>
