<?xml version="1.0" encoding="utf-8"?>
<!-- Generator: Adobe Illustrator 16.0.2, SVG Export Plug-In . SVG Version: 6.00 Build 0)  -->
<!DOCTYPE svg PUBLIC "-//W3C//DTD SVG 1.1//EN" "http://www.w3.org/Graphics/SVG/1.1/DTD/svg11.dtd">
<svg version="1.1" id="Layer_1" xmlns="http://www.w3.org/2000/svg" xmlns:xlink="http://www.w3.org/1999/xlink" x="0px" y="0px"
	 width="299.963px" height="299.963px" viewBox="0 0 299.963 299.963" enable-background="new 0 0 299.963 299.963"
	 xml:space="preserve">
<g>
	<path fill-rule="evenodd" clip-rule="evenodd" d="M75.917,53.196c3.149,3.391,6.322,6.758,9.441,10.176
		c2.953,3.234,7.168,5.712,6.699,11.042c-0.119,1.35,0.828,2.183,1.814,2.766c8.059,4.769,8.406,12.886,9.161,20.847
		c0.132,1.396-0.145,2.644-1.062,3.695c-3.923,4.494-3.757,9.404-2.019,14.773c0.671,2.074,1.49,2.658,3.426,2.527
		c4.589-0.312,9.137-0.816,13.622-1.915c3.208-0.785,5.241-0.392,5.076,3.959c-0.333,8.806,0.29,17.656-0.243,26.442
		c-0.331,5.457,1.791,7.791,6.648,9.472c23.571,8.157,47.036,16.621,70.563,24.91c9.871,3.477,19.8,6.792,29.701,10.182
		c4.966,2.728,5.714-1.164,6.063-4.322c0.45-4.068,0.109-8.226,0.109-13.628c10.155,9.23,19.516,17.737,28.948,26.311
		c-3.271,4.205-8.104,6.568-12.016,10.021c-1.395,1.231-3.504,0.418-5.523-0.281c-47.029-16.282-94.114-32.403-141.19-48.553
		c-4.736-1.624-9.464-3.275-14.221-4.84c-2.551-0.84-3.559-1.813-2.445-4.913c2.782-7.742,4.545-15.868,7.589-23.493
		c2.343-5.872,0.1-10.854-1.434-15.997c-0.898-3.013-0.933-5.395,0.979-7.873c3.432-4.445,3.563-9.475,2.292-14.663
		c-0.228-0.928-0.877-2.518-1.317-2.514c-4.964,0.054-6.205-5.856-9.75-6.626c-10.62-2.31-15.011-12.199-23.007-17.614
		c-3.58-2.423-6.001-6.519-9.075-9.735c-8.969-9.384-17.964-18.746-27.037-28.029c-2.268-2.321-2.428-3.65,0.576-5.688
		c8.355-5.667,8.196-5.773,15.487,1.549C54.443,31.898,65.197,42.53,75.917,53.196z"/>
	<path fill-rule="evenodd" clip-rule="evenodd" d="M235.863,159.979c16.161-34.752,13.555-68.331-8.021-99.708
		C195.146,12.728,128.657,3.934,84.143,40.583c-1.52,1.25-2.848,2.736-4.265,4.112c-0.893,0.731-1.969,1.323-2.643,2.218
		c-1.996,2.648-3.259,1.263-5.048-0.39c-2.023-1.867-1.688-2.988,0.091-4.732c16.56-16.24,36.263-26.435,59.188-29.63
		c54.191-7.553,103.904,25.208,117.921,77.74c7.463,27.971,3.596,54.729-10.567,79.983c-0.566,1.012-1.23,1.972-1.897,2.921
		c-0.171,0.242-0.527,0.354-1.411,0.91C235.04,168.892,234.912,164.445,235.863,159.979z"/>
	<path fill-rule="evenodd" clip-rule="evenodd" d="M210.204,201.944c-14.397,10.808-30.06,17.319-47.242,19.843
		c-53.852,7.906-103.959-24.826-118.244-77.29c-7.467-27.425-3.94-53.739,9.554-78.673c0.896-1.655,0.946-5.953,4.625-4.121
		c3.288,1.637,3.227,4.199,1.402,7.798c-19.07,37.62-16.823,74.07,8.561,107.852c29.989,39.911,84.913,50.271,127.948,24.907
		C201.414,199.547,205.168,199.083,210.204,201.944z"/>
	<path fill-rule="evenodd" clip-rule="evenodd" fill="#020202" d="M174.697,251.666c3.641-9.104,6.742-16.856,10.329-25.824
		c3.59,9.022,6.677,16.78,10.236,25.728c2.117-7.531,3.906-13.902,5.701-20.271c0.314-1.117,0.657-2.228,0.985-3.342
		c0.411-1.4,1.54-0.97,2.461-0.907c1.376,0.094,0.912,1.054,0.707,1.795c-2.959,10.679-5.931,21.352-9.316,33.524
		c-3.83-9.66-7.088-17.879-10.792-27.222c-3.719,9.203-7.061,17.471-10.966,27.134c-3.324-12.063-6.253-22.725-9.213-33.379
		c-0.319-1.147-0.322-1.788,1.159-1.97c1.928-0.235,2.136,1.019,2.496,2.329C170.42,236.291,172.379,243.314,174.697,251.666z"/>
	<path fill-rule="evenodd" clip-rule="evenodd" fill="#010101" d="M154.425,257.642c-8.048,4.963-15.315,4.335-20.118-1.677
		c-4.083-5.11-3.581-12.578,1.156-17.201c5.347-5.219,11.998-5.097,19.438,0.973c0-4.088-0.014-7.598,0.007-11.108
		c0.007-1.271-0.354-2.816,1.833-2.648c1.855,0.142,1.402,1.533,1.405,2.578c0.03,9.816,0.041,19.632-0.011,29.447
		c-0.007,1.134,0.742,2.843-1.513,2.958C153.846,261.105,155.503,258.748,154.425,257.642z"/>
	<path fill-rule="evenodd" clip-rule="evenodd" fill="#020202" d="M114.914,247.975c-2.324,0-4.649-0.014-6.973,0.003
		c-4.427,0.03-5.062,1.198-2.824,5.162c3.299,5.842,11.006,6.497,16.114,1.389c1.018-1.019,1.766-3.491,3.677-1.427
		c1.341,1.449-0.423,2.624-1.298,3.623c-3.865,4.415-10.988,5.58-16.436,2.784c-5.078-2.605-7.706-8.883-6.247-14.921
		c1.295-5.356,6.239-9.359,11.882-9.621c6.382-0.296,11.531,3.249,13.345,9.008c0.85,2.697,0.985,4.441-2.778,4.056
		C120.583,247.744,117.736,247.974,114.914,247.975z"/>
	<path fill-rule="evenodd" clip-rule="evenodd" fill="#040404" d="M43.817,252.298c-0.033,4.837-3.795,8.99-8.336,9.633
		c-4.29,0.606-9.978-2.464-11.186-5.942c-0.329-0.948-0.259-1.55,0.625-2.04c0.88-0.488,1.75-1.107,2.337,0.347
		c0.06,0.148,0.187,0.275,0.298,0.396c4.396,4.794,7.65,5.502,10.723,2.337c2.987-3.075,2.152-6.81-2.576-10.989
		c-2.113-1.869-4.454-3.483-6.529-5.391c-4.038-3.709-4.427-8.986-1.047-12.277c3.655-3.559,10.6-3.055,13.874,0.941
		c0.717,0.875,1.257,1.613,0.099,2.408c-0.697,0.479-1.4,1.638-2.411,0.314c-0.399-0.521-0.889-0.992-1.402-1.406
		c-2.478-1.996-5.234-2.68-7.566-0.161c-2.605,2.813-1.287,5.582,1.177,7.791c2.468,2.213,5.139,4.199,7.68,6.333
		C42.099,246.712,43.577,249.407,43.817,252.298z"/>
	<path fill-rule="evenodd" clip-rule="evenodd" fill="#030303" d="M236.973,247.994c-0.014,7.382-5.964,13.083-13.548,12.979
		c-7.361-0.101-12.901-5.688-12.896-13.007c0.005-7.447,5.87-13.126,13.43-13.002C231.247,235.084,236.985,240.828,236.973,247.994z
		"/>
	<path fill-rule="evenodd" clip-rule="evenodd" fill="#010101" d="M278.426,261.122c-8.858-0.447-11.123-8.459-17.459-11.486
		c0,3.306-0.013,6.381,0.007,9.455c0.007,1.126-0.233,1.905-1.614,1.889c-1.287-0.016-1.73-0.625-1.729-1.829
		c0.014-10.477,0.015-20.951,0-31.428c-0.002-1.26,0.551-1.761,1.795-1.756c1.872,0.009,1.528,1.359,1.533,2.45
		c0.022,5.15,0.011,10.303,0.011,15.731c5.941-1.884,8.219-9.814,16.376-9.041c-4.229,3.624-7.78,6.819-11.506,9.797
		c-1.88,1.503-2.088,2.468-0.165,4.171C269.752,252.687,273.611,256.543,278.426,261.122z"/>
	<path fill-rule="evenodd" clip-rule="evenodd" fill="#030303" d="M83.809,260.974c-6.847,0.021-12.498-3.877-13.881-9.443
		c-1.457-5.868,0.928-11.627,6.04-14.584c5.42-3.136,13.898-2.442,17.791,1.486c0.648,0.653,1.796,1.353,0.734,2.417
		c-0.674,0.678-1.542,1.105-2.623,0.23c-1.14-0.921-2.443-1.733-3.801-2.275c-5.005-1.995-10.566-0.498-13.441,3.48
		c-2.589,3.585-2.38,8.654,0.498,12.021c3.092,3.616,9.063,4.609,13.77,2.641c1.824-0.762,4.021-4.58,5.565-1.367
		c1.084,2.256-2.87,3.369-5.007,4.327C87.657,260.711,85.672,261.203,83.809,260.974z"/>
	<path fill-rule="evenodd" clip-rule="evenodd" fill="#1C1C1C" d="M53.544,243.886c0,4.802,0.012,9.604-0.007,14.405
		c-0.005,1.293,0.254,2.76-1.856,2.728c-2.203-0.033-1.652-1.636-1.656-2.817c-0.033-9.934-0.026-19.868-0.007-29.804
		c0.002-1.08-0.354-2.398,1.505-2.479c1.977-0.087,2.031,1.148,2.026,2.569C53.533,233.619,53.543,238.753,53.544,243.886z"/>
	<path fill-rule="evenodd" clip-rule="evenodd" fill="#151515" d="M241.452,248.348c0-3.658,0.03-7.317-0.016-10.974
		c-0.019-1.499,1.008-3.418,1.935-2.261c2.721,3.396,4.66-0.192,6.906-0.136c1.255,0.031,3.059-0.564,3.363,1.176
		c0.292,1.669-1.162,1.78-2.627,1.93c-4.345,0.441-5.656,3.745-5.93,7.396c-0.322,4.302-0.17,8.639-0.252,12.96
		c-0.021,1.093,0.338,2.439-1.479,2.549c-2.098,0.126-1.896-1.339-1.899-2.665C241.447,254.997,241.452,251.672,241.452,248.348z"/>
	<path fill-rule="evenodd" clip-rule="evenodd" fill="#121212" d="M63.383,248.41c0,3.319,0.025,6.639-0.015,9.956
		c-0.013,1.07,0.382,2.484-1.419,2.585c-2.099,0.118-1.816-1.43-1.818-2.721c-0.011-6.803-0.019-13.606,0.007-20.41
		c0.005-1.239-0.438-2.904,1.699-2.833c2.15,0.071,1.498,1.801,1.521,2.97C63.43,241.439,63.384,244.926,63.383,248.41z"/>
	<path fill-rule="evenodd" clip-rule="evenodd" fill="#131313" d="M64.41,228.282c-0.111,1.463-0.785,2.543-2.31,2.683
		c-1.759,0.162-2.933-0.886-2.956-2.538c-0.019-1.384,1.009-2.391,2.555-2.465C63.294,225.886,64.034,226.877,64.41,228.282z"/>
	<path fill-rule="evenodd" clip-rule="evenodd" d="M221.952,105.914c-12.146-3.6-23.665-8.88-35.498-13.317
		c-15.335-5.748-30.569-11.764-45.838-17.69c-0.577-0.224-1.052-0.711-1.575-1.076c-0.363-0.246-0.46-0.438-0.295-0.575
		c0.13-0.108,0.279-0.163,0.448-0.163c14.278-1.279,28.496-3.047,42.695-5.008c3.097-0.428,6.258-0.4,9.347-1.109
		c3.133-0.719,4.375,1.901,5.767,3.79c7.837,10.641,15.551,21.373,23.335,32.052c0.37,0.508,1.015,0.814,1.532,1.214
		C222.571,104.629,222.593,105.256,221.952,105.914z"/>
	<path fill-rule="evenodd" clip-rule="evenodd" d="M141.185,108.804c13.332,5.083,26.082,9.978,38.868,14.778
		c1.444,0.542,2.147,1.144,2.034,2.764c-0.138,1.983-0.138,3.991-0.008,5.976c0.212,3.232-0.191,4.377-4.021,2.899
		c-10.934-4.222-22.042-8.012-33.181-11.672c-3.071-1.009-4.181-2.345-3.767-5.549C141.467,115.233,141.185,112.385,141.185,108.804
		z"/>
	<path fill-rule="evenodd" clip-rule="evenodd" d="M203.043,162.93c-13.17-4.737-26.048-9.37-38.928-14.002
		c-1.572-0.565-2.342-1.543-2.256-3.341c0.134-2.8,0.035-5.613,0.035-9.003c13.337,4.768,26.171,9.402,39.052,13.905
		c1.759,0.615,2.196,1.507,2.129,3.204C202.958,156.664,203.043,159.644,203.043,162.93z"/>
	<path fill-rule="evenodd" clip-rule="evenodd" d="M188.919,127.044c12.78,4.837,25.296,9.535,37.771,14.335
		c2.093,0.805,3.014,9.656,1.326,11.179c-1.091,0.985-1.764-0.155-2.608-0.455c-10.764-3.826-21.469-7.834-32.33-11.36
		c-3.296-1.07-4.576-2.468-4.211-5.844C189.134,132.436,188.919,129.921,188.919,127.044z"/>
	<path fill-rule="evenodd" clip-rule="evenodd" d="M200.909,119.096c0.94,4.946-0.522,5.441-5.067,3.505
		c-9.896-4.216-20.08-7.759-30.153-11.557c-3.125-1.178-5.351-7.512-3.644-10.436c0.701-1.202,1.698-0.726,2.557-0.404
		c11.32,4.248,22.619,8.549,33.941,12.792C201.65,114.161,201.127,116.67,200.909,119.096z"/>
	<path fill-rule="evenodd" clip-rule="evenodd" d="M127.92,130.291c0.015-5.956,0.005-5.931,5.75-3.85
		c6.06,2.194,12.144,4.319,18.206,6.504c2.575,0.929,4.813,10.312,2.779,11.822c-0.87,0.647-1.838-0.086-2.78-0.44
		c-6.334-2.381-12.707-4.659-19.058-6.999C127.901,135.515,127.907,135.497,127.92,130.291z"/>
	<path fill-rule="evenodd" clip-rule="evenodd" d="M155.054,106.918c-8.701-3.273-16.854-6.311-24.98-9.418
		c-1.742-0.666-3.192-8.692-1.851-10.107c0.817-0.863,1.749-0.329,2.684,0.034c7.066,2.748,14.115,5.547,21.25,8.106
		c2.285,0.82,3.117,2.025,2.934,4.363C154.921,102.046,155.054,104.219,155.054,106.918z"/>
	<path fill-rule="evenodd" clip-rule="evenodd" fill="#000101" d="M228.284,185.268c-14.773-5.271-28.687-10.365-42.704-15.154
		c-4.299-1.468-2.022-4.455-2.747-7.396c14.689,5.372,28.824,10.616,43.021,15.681C229.524,179.707,227.498,182.379,228.284,185.268
		z"/>
	<path fill-rule="evenodd" clip-rule="evenodd" d="M176.008,163.241c0.291,3.02-0.75,3.169-3.151,2.286
		c-10.718-3.936-21.464-7.808-32.303-11.388c-3.417-1.128-3.375-3.729-2.818-5.849c0.89-3.383,3.358-0.731,4.748-0.256
		c10.217,3.492,20.333,7.277,30.504,10.904C175.228,159.738,176.757,160.815,176.008,163.241z"/>
	<path fill-rule="evenodd" clip-rule="evenodd" d="M207.904,116.824c6.603,2.485,12.725,4.846,18.894,7.075
		c1.666,0.601,2.312,1.568,2.271,3.262c-0.061,2.471-0.016,4.945-0.016,7.945c-6.691-2.478-12.933-4.796-19.181-7.097
		c-1.672-0.615-2.034-1.878-1.986-3.497C207.957,122.073,207.904,119.629,207.904,116.824z"/>
	<path fill-rule="evenodd" clip-rule="evenodd" d="M228.011,172.054c-3.058-1.087-5.746-2.087-8.465-3
		c-10.474-3.521-10.478-3.511-9.232-15.13c5.167,1.779,10.299,3.503,15.393,5.329c1.584,0.567,2.574,1.51,2.376,3.593
		C227.802,165.78,228.011,168.762,228.011,172.054z"/>
	<path fill-rule="evenodd" clip-rule="evenodd" fill="#030303" d="M201.85,107.04c-14.392-4.682-28.262-10.76-42.485-15.878
		c-10.286-3.7-20.182-8.502-30.861-11.079c-1.3-0.314-1.727-0.891-1.474-1.982c0.507-2.194,1.496-0.696,2.475-0.318
		c12.912,4.991,25.851,9.913,38.768,14.889c11.57,4.458,23.123,8.963,34.684,13.447C203.04,106.968,202.956,107.618,201.85,107.04z"
		/>
	<path fill-rule="evenodd" clip-rule="evenodd" fill="#020202" d="M127.945,103.698c2.763,1.395,6.22,1.091,6.763,4.089
		c0.61,3.362,0.332,6.94,0.022,10.387c-0.132,1.467-2.25,1.16-2.888,0.727c-1.41-0.955-4.169-0.346-3.958-3.465
		C128.139,111.698,127.945,107.93,127.945,103.698z"/>
	<path fill-rule="evenodd" clip-rule="evenodd" fill="#030303" d="M127.853,146.296c0.428-1.124-0.794-3.227,1.172-3.176
		c2.082,0.053,2.2,2.125,2.007,3.833c-0.128,1.129,0.804,3.005-1.388,3.008C126.749,149.968,128.354,147.565,127.853,146.296z"/>
	<path fill-rule="evenodd" clip-rule="evenodd" fill="#151515" d="M216.012,112.766c-2.652-1-5.304-1.999-7.955-2.999
		c3.435-0.805,6.229,0.628,8.992,2.182C216.82,112.371,216.475,112.642,216.012,112.766z"/>
	<path fill-rule="evenodd" clip-rule="evenodd" fill="#DAE1E2" d="M221.952,105.914c-0.027-0.628-0.055-1.255-0.082-1.883
		c1.612,0.521,2.227,1.801,2.426,3.328c0.014,0.104-0.782,0.491-1.15,0.431C222.142,107.622,222.057,106.732,221.952,105.914z"/>
	<path fill-rule="evenodd" clip-rule="evenodd" fill="#020202" d="M216.012,112.766c0.346-0.272,0.691-0.544,1.037-0.817
		c1.569-0.421,2.454,1.282,3.896,1.257c0.27,0.256,0.352,0.504,0.246,0.742c-0.103,0.234-0.202,0.352-0.299,0.352
		C219.266,113.789,217.639,113.277,216.012,112.766z"/>
	<path fill-rule="evenodd" clip-rule="evenodd" fill="#020202" d="M224.035,114.769c1.855-0.051,3.371,0.823,5.044,1.658
		c-2.093,1.773-3.394-0.79-5.091-0.564c-0.28-0.256-0.366-0.503-0.259-0.742C223.834,114.886,223.937,114.769,224.035,114.769z"/>
	<path fill-rule="evenodd" clip-rule="evenodd" fill="#F6F8F8" d="M103.783,105.951c-0.199-0.675-0.491-1.126-0.375-1.413
		c0.143-0.353,0.625-0.567,0.961-0.843c0.151,0.379,0.468,0.79,0.404,1.127C104.71,105.163,104.265,105.43,103.783,105.951z"/>
	<path fill-rule="evenodd" clip-rule="evenodd" fill="#DCE3E4" d="M139.194,73.093c-0.001,0.255-0.053,0.501-0.153,0.738
		c-1.305,1.499-2.062-0.222-3.063-0.738C137.049,73.093,138.122,73.093,139.194,73.093z"/>
	<path fill-rule="evenodd" clip-rule="evenodd" fill="#171717" d="M224.035,114.769c-0.016,0.364-0.031,0.729-0.047,1.094
		c-1.032-0.521-2.063-1.042-3.096-1.563c0.018-0.365,0.035-0.729,0.053-1.094C221.938,113.799,223.409,113.449,224.035,114.769z"/>
	<path fill-rule="evenodd" clip-rule="evenodd" fill="#090909" d="M201.85,107.04c0.368-0.308,0.736-0.615,1.105-0.922
		c0.941,0.388,1.884,0.775,3.892,1.603C204.362,107.883,202.959,108.869,201.85,107.04z"/>
	<path fill-rule="evenodd" clip-rule="evenodd" fill="#FDFDFD" d="M154.978,248.136c-0.053,5.701-4.525,9.982-10.27,9.83
		c-5.352-0.143-9.75-4.604-9.795-9.938c-0.047-5.611,4.433-10.063,10.119-10.056C150.727,237.979,155.03,242.376,154.978,248.136z"
		/>
	<path fill-rule="evenodd" clip-rule="evenodd" fill="#FBFBFB" d="M104.217,244.604c1.861-4.653,4.998-6.672,9.408-6.604
		c4.336,0.067,7.641,1.87,9.338,6.604C116.751,244.604,110.758,244.604,104.217,244.604z"/>
	<path fill-rule="evenodd" clip-rule="evenodd" fill="#FDFDFD" d="M223.479,237.976c5.53-0.117,10.109,4.433,10.144,10.078
		c0.032,5.427-4.254,9.792-9.729,9.91c-5.521,0.118-9.873-3.981-10.082-9.497C213.597,242.784,217.92,238.093,223.479,237.976z"/>
</g>
</svg>
