<?xml version="1.0" encoding="utf-8"?>
<!-- Generator: Adobe Illustrator 16.0.2, SVG Export Plug-In . SVG Version: 6.00 Build 0)  -->
<!DOCTYPE svg PUBLIC "-//W3C//DTD SVG 1.1//EN" "http://www.w3.org/Graphics/SVG/1.1/DTD/svg11.dtd">
<svg version="1.1" id="Layer_1" xmlns="http://www.w3.org/2000/svg" xmlns:xlink="http://www.w3.org/1999/xlink" x="0px" y="0px"
	 width="1298.838px" height="1298.838px" viewBox="0 0 1298.838 1298.838" enable-background="new 0 0 1298.838 1298.838"
	 xml:space="preserve">
<g>
	<path fill-rule="evenodd" clip-rule="evenodd" d="M870.104,750.45c-61.137,61.116-122.172,122.13-183.562,183.5
		c1.02,0.469,1.607,1.003,2.074,0.913c9.417-1.812,19.006-3.062,28.171-5.751c8.333-2.443,16.395-6.072,24.234-9.884
		c14.645-7.119,27.257-17.076,38.452-28.909c14.77-15.607,29.69-31.069,44.564-46.576c1.026-1.069,2.224-1.974,3.318-2.979
		c7.517-6.907,7.371-6.657,16.526-1.412c14.688,8.414,29.737,16.208,44.313,24.808c4.426,2.61,8.97,6.399,11.268,10.794
		c1.775,3.397,1.24,9.018-0.265,12.869c-2.11,5.401-5.344,10.783-9.368,14.945c-20.605,21.31-41.573,42.27-62.501,63.266
		c-34.972,35.092-69.967,70.162-105.059,105.133c-6.566,6.543-14.912,9.715-24.067,10.77c-10.093,1.162-20.175,2.439-30.287,3.389
		c-3.281,0.309-6.649-0.467-9.97-0.396c-32.442,0.694-64.89,2.187-97.323,1.917c-17.168-0.143-34.347-3.027-51.452-5.223
		c-9.738-1.251-13.564-9.178-15.095-17.449c-2.135-11.529-3.704-23.272-4.15-34.977c-0.673-17.638-0.305-35.322-0.118-52.984
		c0.173-16.312,0.452-32.629,1.121-48.924c0.633-15.432,1.402-30.882,2.927-46.242c1.118-11.268,5.579-21.174,13.965-29.515
		c54.934-54.636,109.621-109.518,164.446-164.262c4.911-4.904,10.01-9.154,17.381-10.938c7.624-1.846,16.416,1.437,20.355,8.41
		c10.755,19.032,21.509,38.065,32.215,57.124c3.944,7.021,7.655,14.174,11.678,21.148c1.552,2.693,3.438,3.551,6.261,0.688
		c19.419-19.696,39.034-39.201,58.47-58.881c2.206-2.233,3.742-2.23,5.799-0.164C839.569,719.865,854.737,735.05,870.104,750.45z"/>
	<path fill-rule="evenodd" clip-rule="evenodd" d="M441.722,534.543c6.386-6.28,12.844-12.49,19.141-18.857
		c11.572-11.701,23.035-23.508,34.578-35.238c2.092-2.125,4.078-4.545,6.587-6.023c3.503-2.063,2.881-4.631,1.52-7.191
		c-3.453-6.492-7.501-12.682-10.72-19.279c-6.051-12.399-11.605-25.039-17.521-37.505c-4.205-8.863-8.978-17.467-12.938-26.435
		c-5.641-12.779-6.576-23.263,4.945-34.389c15.089-14.573,29.129-30.227,44.092-44.937c16.91-16.625,34.31-32.753,51.559-49.033
		c14.42-13.61,28.984-27.067,43.382-40.699c17.549-16.614,34.949-33.387,52.505-49.995c6.798-6.43,13.603-12.933,24.12-12.398
		c7.681,0.391,15.85,7.336,16.849,14.862c1.153,8.702-1.232,16.057-7.334,22.67c-13.115,14.212-25.849,28.778-38.642,43.285
		c-7.898,8.957-15.486,18.191-23.45,27.09c-12.932,14.45-26.059,28.726-39.101,43.077c-2.991,3.292-5.96,6.604-8.955,9.892
		c-6.474,7.106-7.16,16.341-2.033,24.757c5.165,8.478,11.338,15.81,20.341,20.552c10.408,5.484,19.422,3.67,27.746-4.211
		c8.396-7.952,16.801-15.905,25.452-23.575c10.17-9.015,20.711-17.611,30.909-26.594c20.498-18.054,40.992-36.115,61.229-54.459
		c6.792-6.156,13.486-11.741,23.327-11.297c7.214,0.326,14.631,6.882,16.214,13.951c2.32,10.367-2.251,18.442-8.557,25.716
		c-12.366,14.265-24.999,28.3-37.614,42.347c-5.853,6.515-12.031,12.736-17.873,19.259c-18.487,20.641-36.877,41.368-55.322,62.047
		c-4.124,4.623-4.889,14.053-0.729,21.23c5.64,9.734,12.807,18.153,23.484,22.883c8.143,3.608,16.952,2.141,23.438-3.888
		c7.376-6.856,14.855-13.602,22.3-20.385c8.128-7.405,16.172-14.905,24.427-22.165c8.419-7.405,17.166-14.438,25.56-21.869
		c11.724-10.382,23.167-21.081,34.9-31.45c7.048-6.228,14.121-12.502,21.73-18c8.171-5.903,19.835-4.513,25.706,1.821
		c6.682,7.209,6.925,21.224-0.641,29.187c-9.512,10.014-18.966,20.084-28.314,30.25c-8.021,8.722-15.692,17.768-23.816,26.39
		c-11.063,11.743-22.402,23.226-33.64,34.804c-5.884,6.063-11.771,12.125-17.708,18.137c-29.505,29.88-59.211,59.565-88.428,89.723
		c-8.788,9.07-18.832,9.939-30.831,4.69c-17.638-7.716-34.817-16.485-52.146-24.898c-10.476-5.086-20.813-10.464-31.326-15.471
		c-3.727-1.774-6.953-1.789-10.55,1.944c-14.442,14.991-29.43,29.455-44.167,44.163c-4.028,4.02-7.691,8.43-11.951,12.174
		c-1.166,1.025-4.765,1.193-5.751,0.227c-14.938-14.638-29.627-29.528-44.362-44.372c-0.34-0.342-0.54-0.823-0.806-1.24
		C442.266,535.391,441.995,534.967,441.722,534.543z"/>
	<path fill-rule="evenodd" clip-rule="evenodd" d="M188.016,764.921c-1.014-22.574,7.551-39.99,22.596-54.737
		c9.037-8.857,17.687-18.115,26.854-26.832c9.195-8.743,18.924-16.921,28.208-25.572c5.027-4.686,9.368-10.115,14.458-14.723
		c6.824-6.178,14.361-11.578,21.087-17.853c20.156-18.804,40.105-37.831,60.05-56.86c6.484-6.187,12.726-12.629,19.042-18.99
		c4.404-4.435,11.048-4.022,16.32,1.203c16.437,16.292,32.837,32.622,49.256,48.933c8.865,8.805,17.405,17.977,26.709,26.292
		c8.605,7.689,6.867,13.692,0.895,20.468c-8.538,9.683-17.556,18.95-26.501,28.266c-8.029,8.36-16.367,16.427-24.342,24.838
		c-11.958,12.611-23.779,25.352-35.543,38.145c-15.881,17.271-31.333,34.949-47.578,51.869
		c-11.716,12.204-23.769,24.264-36.872,34.911c-13.702,11.133-30.575,15.472-48.079,13.864c-10.395-0.954-20.507-4.392-29.938-9.789
		c-12.714-7.276-22.544-17.148-29.104-29.967C190.053,787.675,186.806,776.141,188.016,764.921z M235.038,764.621
		c0.048,13.637,12.042,24.96,26.236,24.974c12.523,0.011,25.286-11.474,25.118-25.493c-0.143-11.856-10.301-25.458-25.167-25.54
		C245.806,738.478,235.2,751.442,235.038,764.621z"/>
	<path fill-rule="evenodd" clip-rule="evenodd" d="M1112.951,522.413c0-2.055,0-3.47,0-4.886c0.59,0.075,1.179,0.15,1.768,0.225
		c-1.965,13.954-2.34,28.389-6.372,41.718c-3.607,11.93-12.298,21.858-21.72,30.521c-12.43,11.426-24.837,22.879-37.176,34.405
		c-13.356,12.476-26.676,24.996-39.912,37.601c-7.939,7.562-15.572,15.446-23.555,22.961c-12.002,11.299-24.229,22.361-36.288,33.6
		c-9.708,9.046-19.264,18.257-28.979,27.296c-6.048,5.627-11.05,5.54-16.916-0.31c-25.939-25.87-51.843-51.777-77.716-77.713
		c-5.466-5.479-5.283-10.869,0.507-16.922c9.753-10.193,19.67-20.229,29.373-30.469c21.674-22.872,43.335-45.758,64.851-68.779
		c12.221-13.075,23.921-26.64,36.264-39.596c12.049-12.648,23.973-25.558,37.224-36.863c6.925-5.908,16.42-9.001,25.058-12.651
		c8.657-3.658,17.853-3.854,27.27-3.172c11.258,0.814,21.233,4.93,30.883,10.045c14.641,7.76,23.913,20.64,30.896,35.101
		C1110.926,509.735,1111.381,515.942,1112.951,522.413z M1065.818,532.786c-0.744-17.396-11.598-25.542-26.311-25.432
		c-15.245,0.113-25.39,10.261-25.171,25.392c0.197,13.65,11.497,25.219,25.613,24.959
		C1054.881,557.433,1065.35,545.464,1065.818,532.786z"/>
</g>
</svg>
