<?xml version="1.0" encoding="utf-8"?>
<!-- Generator: Adobe Illustrator 16.0.2, SVG Export Plug-In . SVG Version: 6.00 Build 0)  -->
<!DOCTYPE svg PUBLIC "-//W3C//DTD SVG 1.1//EN" "http://www.w3.org/Graphics/SVG/1.1/DTD/svg11.dtd">
<svg version="1.1" id="Layer_1" xmlns="http://www.w3.org/2000/svg" xmlns:xlink="http://www.w3.org/1999/xlink" x="0px" y="0px"
	 width="1298.838px" height="1298.838px" viewBox="0 0 1298.838 1298.838" enable-background="new 0 0 1298.838 1298.838"
	 xml:space="preserve">
<g>
	<path fill-rule="evenodd" clip-rule="evenodd" d="M710.752,210.924c0,32.618,0.173,65.236-0.059,97.852
		c-0.169,23.781-0.936,47.559-1.315,71.34c-0.285,17.797-0.349,35.6-0.563,53.398c-0.307,25.601-0.632,51.2-1.003,76.798
		c-0.287,19.777-0.621,39.555-1.021,59.332c-0.076,3.802-0.788,7.596-0.805,11.395c-0.046,10.82,3.665,13.932,14.31,13.006
		c5.745-0.499,11.555-0.433,17.332-0.356c11.791,0.153,23.635,1.322,35.356,0.553c18.495-1.216,37.596,11.817,45.056,26.893
		c4.896,9.894,3.441,19.593,3.796,29.464c0.347,9.642-0.392,19.324,0.045,28.958c0.135,2.957,2.562,5.813,3.953,8.709
		c2.543,5.283,4.678,10.82,7.729,15.793c7.458,12.155,15.514,23.944,22.978,36.097c3.348,5.453,5.666,11.527,8.783,17.134
		c4.716,8.481,9.449,16.976,14.688,25.136c4.446,6.924,9.222,13.485,12.585,21.185c2.857,6.542,8.068,12.044,12.137,18.074
		c1.642,2.433,3.057,5.021,4.502,7.582c3.38,5.986,6.736,11.986,10.063,18.004c2.524,4.567,4.825,9.268,7.525,13.729
		c2.88,4.758,6.115,9.302,9.188,13.944c1.458,2.202,3.466,4.234,4.246,6.658c2.756,8.562,7.918,15.557,13.528,22.333
		c0.726,0.877,1.349,1.861,1.883,2.868c3.396,6.391,6.686,12.839,10.15,19.193c2.576,4.726,5.209,9.435,8.095,13.975
		c4.426,6.96,9.169,13.719,13.61,20.67c1.544,2.417,2.466,5.224,3.891,7.728c3.076,5.404,5.614,11.31,9.601,15.956
		c7.263,8.468,6.159,17.119,2.193,26.104c-1.628,3.688-3.951,7.123-6.303,10.427c-2.41,3.383-6.052,3.902-10.101,4.205
		c-5.37,0.401-10.62,2.218-15.989,2.889c-16.377,2.044-32.79,3.79-49.18,5.735c-7.863,0.934-15.681,2.303-23.561,3.034
		c-13.021,1.207-26.073,2.086-39.117,3.054c-18.354,1.361-36.72,2.58-55.063,4.088c-3.903,0.319-7.694,2.078-11.595,2.354
		c-4.866,0.346-9.797-0.368-14.689-0.252c-10.448,0.246-20.888,0.884-31.335,1.073c-8.443,0.153-16.898-0.29-25.343-0.152
		c-11.441,0.187-23.09-0.567-34.263,1.345c-14.344,2.457-28.473,0.815-42.699,0.833c-8.34,0.011-16.689,0.327-25.015,0.012
		c-3.308-0.125-6.531-2.123-9.853-2.345c-12.76-0.852-25.544-1.354-38.321-1.939c-18.916-0.867-37.849-1.452-56.742-2.654
		c-7.738-0.492-15.366-2.534-23.094-3.411c-10.352-1.177-20.763-1.825-31.134-2.849c-13.479-1.33-26.958-2.689-40.412-4.261
		c-8.38-0.979-16.691-2.524-25.067-3.541c-12.648-1.536-25.333-2.76-37.983-4.281c-3.548-0.427-7.009-1.547-10.544-2.143
		c-8.484-1.428-17.604-1.277-25.309-4.518c-7.07-2.974-14.569-7.133-18.803-14.6c-1.209-2.133-3.062-4.068-3.652-6.344
		c-0.821-3.163-1.511-6.735-0.833-9.817c0.868-3.949,2.775-7.816,4.907-11.309c4.094-6.706,8.656-13.126,13.037-19.656
		c0.45-0.671,1.269-1.208,1.453-1.927c2.32-9.015,9.154-15.161,14.109-22.503c1.642-2.434,2.575-5.339,4.171-7.811
		c3.808-5.895,7.879-11.619,11.718-17.495c1.692-2.589,2.959-5.455,4.628-8.062c3.715-5.804,7.733-11.419,11.301-17.311
		c2.707-4.47,4.895-9.254,7.345-13.883c0.664-1.255,1.268-2.603,2.193-3.647c7.064-7.979,13.062-16.565,17.708-26.266
		c2.654-5.54,7.303-10.093,10.672-15.334c2.215-3.448,3.442-7.533,5.664-10.976c3.184-4.933,6.967-9.476,10.31-14.313
		c1.659-2.402,2.769-5.18,4.365-7.633c4.744-7.288,9.607-14.499,14.419-21.744c0.541-0.813,1.289-1.585,1.53-2.486
		c2.308-8.633,8.32-14.878,13.662-21.579c1.208-1.516,2.346-3.281,2.865-5.117c2.134-7.551,7.348-13.054,11.936-19.045
		c3.276-4.277,5.903-9.05,8.853-13.578c2.771-4.258,5.262-8.749,8.451-12.67c6.379-7.841,7.738-16.902,7.628-26.537
		c-0.135-11.65-0.495-23.322,0.069-34.945c0.213-4.375,1.997-9.106,4.364-12.855c5.208-8.243,11.639-15.357,20.009-20.951
		c7.256-4.85,14.739-6.041,23.006-5.831c11.462,0.29,22.933,0.216,34.399,0.387c6.281,0.094,12.56,0.503,18.84,0.509
		c3.456,0.003,6.993-0.172,10.347-0.922c4.013-0.898,6.113-3.892,6.108-8.044c-0.021-15.59-0.313-31.182-0.102-46.768
		c0.114-8.425,1.237-16.832,1.536-25.259c0.251-7.081-0.099-14.179-0.063-21.269c0.064-12.909,0.229-25.816,0.331-38.724
		c0.097-12.23,0.097-24.461,0.269-36.69c0.177-12.61,0.591-25.216,0.751-37.825c0.159-12.569,0.01-25.143,0.223-37.71
		c0.213-12.589,0.804-25.172,1.042-37.76c0.155-8.239-0.131-16.485-0.019-24.725c0.119-8.784,0.592-17.563,0.699-26.347
		c0.149-12.263-0.043-24.531,0.182-36.792c0.239-13.007,1.08-25.688,4.089-38.727c3.862-16.733,17.225-23.412,27.17-33.896
		c8.134-1.618,15.868-4.57,24.607-3.739c15.7,1.493,23.717,13.054,33.033,23.151c2.55,2.763,6.166,5.158,7.353,8.426
		c2.045,5.628,3.166,11.768,3.584,17.769c0.578,8.286,0.146,16.644,0.146,24.971C711.656,210.923,711.204,210.924,710.752,210.924z
		 M787.956,891.914c0.611-0.089,1.223-0.179,1.834-0.268c1.2,2.049,2.634,3.996,3.561,6.162c4.256,9.946,8.353,19.961,12.563,29.925
		c0.442,1.048,1.376,1.881,1.888,2.909c5.117,10.281,10.196,20.582,15.28,30.881c0.22,0.444,0.366,0.924,0.563,1.381
		c2.813,6.523,5.492,13.112,8.57,19.509c0.561,1.166,2.719,2.111,4.19,2.188c4.623,0.24,9.273,0.109,13.907-0.048
		c5.857-0.199,11.711-0.521,17.562-0.874c5.894-0.354,11.795-0.675,17.669-1.251c10.826-1.062,21.617-2.541,32.461-3.368
		c6.021-0.459,10.921-4.505,9.67-10.435c-1.009-4.783-3.849-9.266-6.316-13.633c-2.891-5.118-6.342-9.917-9.383-14.955
		c-1.6-2.652-2.594-5.685-4.296-8.26c-5.066-7.666-10.24-15.164-14.235-23.576c-4.199-8.841-10.073-16.883-15.169-25.302
		c-1.356-2.242-2.459-4.638-3.825-6.875c-4.28-7.013-8.66-13.966-12.944-20.977c-2.482-4.061-4.813-8.213-7.294-12.273
		c-2.397-3.922-4.993-7.724-7.338-11.675c-3.514-5.918-6.881-11.922-10.316-17.885c-2.289-3.973-4.504-7.991-6.902-11.896
		c-3.358-5.47-6.855-10.854-10.294-16.274c-0.875-1.379-1.832-2.713-2.611-4.144c-3.7-6.791-7.262-13.659-11.049-20.4
		c-3.362-5.985-6.98-11.828-10.433-17.764c-0.918-1.578-1.576-3.305-2.463-4.901c-2.398-4.323-6.466-6.548-11.05-6.685
		c-13.107-0.394-26.231-0.202-39.348-0.358c-43.245-0.513-86.492-0.998-129.737-1.651c-27.623-0.417-55.241-1.128-82.863-1.663
		c-4.964-0.097-9.005,1.576-11.682,6.146c-3.227,5.511-6.285,11.212-10.223,16.191c-6.981,8.829-9.782,19.967-17.687,28.521
		c-7.113,7.697-11.346,17.983-17.423,26.73c-6.95,10.006-11.152,21.609-19.569,30.864c-5.285,5.811-8.27,13.674-12.544,20.455
		c-6.491,10.298-13.031,20.574-19.878,30.638c-6.256,9.193-9.316,20.392-17.852,28.162c-1.401,1.275-2.286,3.188-3.2,4.915
		c-3.999,7.554-7.792,15.037-13.529,21.724c-4.795,5.587-7.735,13.016-10.498,20.022c-2.453,6.224,0.513,9.188,7.14,9.293
		c6.042,0.096,12.105,0.601,18.098,1.396c6.344,0.843,12.573,2.604,18.926,3.323c15.112,1.711,30.25,3.299,45.417,4.368
		c4.291,0.303,10.208,0.119,12.753-2.446c4.339-4.371,6.708-10.748,9.701-16.391c2.517-4.743,4.726-9.651,7.113-14.466
		c0.583-1.179,1.699-2.206,1.936-3.426c1.252-6.451,4.298-11.959,8.058-17.262c1.64-2.313,2.205-5.362,3.484-7.966
		c1.576-3.21,3.467-6.265,5.075-9.459c1.605-3.193,3.006-6.488,4.536-9.721c1.791-3.786,3.623-7.553,5.943-12.384
		c1.539,2.339,2.73,3.336,2.8,4.406c0.247,3.744,0.143,7.514,0.109,11.273c-0.145,15.938-0.199,31.879-0.515,47.813
		c-0.174,8.754-0.92,17.497-1.136,26.252c-0.045,1.83,0.75,3.921,1.771,5.492c2.863,4.406,7.009,4.591,12.094,4.507
		c9.504-0.157,19.023,1.377,28.554,1.877c12.077,0.634,24.171,0.973,36.259,1.37c7.267,0.239,14.592-0.15,21.791,0.647
		c8.605,0.954,13.54-2.849,14.511-11.213c0.786-6.767,2.476-13.469,4.25-20.07c2.121-7.88,4.978-15.558,4.833-23.915
		c-0.019-1.109,1.438-2.245,2.99-4.503c1.197,3.425,2.2,5.586,2.7,7.858c1.417,6.444,2.641,12.933,3.918,19.408
		c1.679,8.514,3.54,17,4.929,25.562c0.906,5.584,2.694,7.67,8.368,7.583c35.048-0.535,70.095-1.104,105.142-1.713
		c5.028-0.088,8.518-4.208,8.424-9.08c-0.162-8.449-0.195-16.906-0.049-25.356c0.338-19.55,0.793-39.097,1.276-58.645
		C786.961,894.807,787.599,893.363,787.956,891.914z"/>
</g>
</svg>
