<?xml version="1.0" encoding="utf-8"?>
<!-- Generator: Adobe Illustrator 16.0.2, SVG Export Plug-In . SVG Version: 6.00 Build 0)  -->
<!DOCTYPE svg PUBLIC "-//W3C//DTD SVG 1.1//EN" "http://www.w3.org/Graphics/SVG/1.1/DTD/svg11.dtd">
<svg version="1.1" id="Layer_1" xmlns="http://www.w3.org/2000/svg" xmlns:xlink="http://www.w3.org/1999/xlink" x="0px" y="0px"
	 width="309.784px" height="309.784px" viewBox="0 0 309.784 309.784" enable-background="new 0 0 309.784 309.784"
	 xml:space="preserve">
<g>
	<path fill-rule="evenodd" clip-rule="evenodd" d="M79.866,310.39c-3.77-1.821-7.861-3.182-11.244-5.554
		c-8.155-5.718-12.875-13.656-12.881-23.832c-0.045-70.661-0.024-141.322-0.024-211.984c0-1.289,0-2.579,0-4.047
		c66.528,0,132.811,0,199.561,0c0,1.213,0,2.473,0,3.734c0.001,70.762,0.034,141.524-0.031,212.287
		c-0.012,12.582-8.384,23.384-19.616,27.536c-1.522,0.563-3.002,1.237-4.502,1.86C180.707,310.39,130.287,310.39,79.866,310.39z
		 M87.68,187.275c0,27.212-0.003,54.422,0.003,81.633c0.001,4.479,1.643,7.987,5.798,10.174c3.309,1.739,6.568,1.691,9.613-0.241
		c4.106-2.606,5.253-6.799,5.254-11.377c0.013-53.615,0.023-107.231-0.044-160.846c-0.003-2.223-0.555-4.513-1.227-6.654
		c-1.1-3.508-6.568-6.891-11.062-5.769c-4.433,1.108-8.303,4.472-8.315,11.449C87.65,132.854,87.68,160.065,87.68,187.275z
		 M223.92,187.578c0-18.444,0-36.888,0-55.331c0-9.071,0.108-18.143-0.05-27.211c-0.071-4.132-1.516-7.77-5.502-9.864
		c-3.916-2.058-7.648-1.615-11.037,1.051c-3.547,2.791-4.057,6.911-4.06,11.011c-0.042,52.609-0.036,105.219-0.002,157.828
		c0.002,2.476,0.061,5.032,0.656,7.41c1.464,5.842,7.526,9.711,13.712,6.93c4.495-2.022,6.277-5.756,6.278-10.491
		C223.924,241.8,223.92,214.688,223.92,187.578z M145.764,187.264c0,27.428-0.003,54.855,0.011,82.284
		c0,1.093-0.016,2.233,0.273,3.269c1.432,5.124,6.066,8.067,11.422,7.361c4.838-0.639,8.362-4.982,8.363-10.342
		c0.002-54.957,0.001-109.915,0.001-164.873c0-0.604,0.034-1.212-0.009-1.814c-0.357-4.956-6.207-10.156-10.618-9.277
		c-6.133,1.221-9.549,5.411-9.514,11.41C145.854,132.607,145.764,159.936,145.764,187.264z"/>
	<path fill-rule="evenodd" clip-rule="evenodd" d="M179.699,0.605c4.853,1.687,8.981,4.378,11.525,8.955
		c1.138,2.047,1.815,4.35,2.822,6.829c4.273,0,8.796,0,13.319,0c8.565,0,17.137-0.168,25.697,0.046
		c8.936,0.224,17.491,1.927,24.837,7.605c8.782,6.789,14.05,15.477,14.937,26.662c0.085,1.07,0.34,2.126,0.56,3.447
		c-78.589,0-157.104,0-235.607,0c0.186-8.353,2.521-16.016,7.666-22.593c6.808-8.703,15.633-14.237,26.878-14.483
		c14.864-0.326,29.74-0.081,44.063-0.081c1.762-3.618,2.946-6.525,4.531-9.192c2.325-3.912,6.367-5.575,10.367-7.196
		C147.43,0.605,163.564,0.605,179.699,0.605z"/>
</g>
</svg>
