<?xml version="1.0" encoding="utf-8"?>
<!-- Generator: Adobe Illustrator 16.0.2, SVG Export Plug-In . SVG Version: 6.00 Build 0)  -->
<!DOCTYPE svg PUBLIC "-//W3C//DTD SVG 1.1//EN" "http://www.w3.org/Graphics/SVG/1.1/DTD/svg11.dtd">
<svg version="1.1" id="Layer_1" xmlns="http://www.w3.org/2000/svg" xmlns:xlink="http://www.w3.org/1999/xlink" x="0px" y="0px"
	 width="246.969px" height="214.973px" viewBox="0 0 246.969 214.973" enable-background="new 0 0 246.969 214.973"
	 xml:space="preserve">
<g>
	<path fill-rule="evenodd" clip-rule="evenodd" d="M239.869,194.931c-2.422,1.689-5.283,2.996-7.168,5.155
		c-3.299,3.778-6.61,2.928-10.58,1.547c-50.587-17.594-101.185-35.158-151.87-52.465c-4.27-1.458-4.754-2.93-3.378-6.789
		c2.606-7.308,4.302-14.96,7.196-22.139c2.362-5.859-0.027-10.831-1.494-15.991c-0.803-2.827-0.833-5.139,0.886-7.452
		c3.313-4.457,4.142-9.338,2.478-14.622c-0.513-1.628-0.619-3.652-3.352-3.153c-1.742,0.317-2.475-1.455-3.51-2.425
		c-2.847-2.671-5.127-6.173-9.888-5.593c-0.701,0.085-1.624-0.965-2.316-1.622c-5.372-5.104-10.714-10.24-16.065-15.365
		c-1.462-0.549-2.314-1.647-2.784-3.089C27.675,40.12,17.441,29.198,6.907,18.575c-3.151-3.178-4.022-4.798,0.432-7.713
		c7.143-4.673,6.938-5.049,12.958,1.027c15.809,15.958,31.604,31.93,47.366,47.933c1.18,1.198,2.529,2.185,1.94,4.604
		c-0.372,1.525,0.402,3.904,2.465,4.968c7.15,3.693,7.382,10.996,8.857,17.518c0.477,2.109,0.757,4.708-0.971,6.702
		c-3.924,4.525-3.708,9.453-2.04,14.847c0.645,2.085,1.387,2.734,3.341,2.599c4.593-0.318,9.148-0.838,13.639-1.918
		c3.282-0.788,5.251-0.298,5.108,3.991c-0.3,8.985,0.217,18.002-0.218,26.977c-0.247,5.071,1.909,7.292,6.313,8.819
		c18.93,6.566,37.79,13.335,56.685,20c14.343,5.06,28.697,10.088,43.057,15.101c4.896,1.709,6.754,0.59,7.048-4.523
		c0.229-3.983,0.045-7.989,0.045-12.897c10.523,8.105,18.804,17.847,28.937,25.405C242.546,193.907,240.806,194.144,239.869,194.931
		z"/>
	<path fill-rule="evenodd" clip-rule="evenodd" d="M213.372,165.778c-0.184-6.205-0.31-11.518,2.116-17.001
		c29.967-67.743-23.203-143.619-97.071-138.571c-22.272,1.522-41.93,9.742-58.732,24.538c-1.952,1.719-3.164,3.298-5.852,0.373
		c-2.9-3.157-0.553-4.257,1.236-5.745C86.361,3.367,121.697-4.265,160.063,9.235c37.727,13.275,60.799,40.681,68.895,79.965
		c5.243,25.438,0.762,49.586-11.91,72.226c-0.647,1.157-1.378,2.27-2.118,3.37C214.768,165.039,214.401,165.143,213.372,165.778z"/>
	<path fill-rule="evenodd" clip-rule="evenodd" d="M184.043,196.583c-35.021,25.21-90.835,26.582-130.106-8.991
		C13.69,151.133,10.228,94.294,33.203,56.556c4.833,1.983,5.136,4.668,2.819,9.408c-29.735,60.817,9.833,133.173,76.967,141.206
		c20.637,2.469,40.145-1.021,58.319-10.937C175.98,193.685,179.735,193.057,184.043,196.583z"/>
	<path fill-rule="evenodd" clip-rule="evenodd" d="M199.95,97.907c-12.348-3.815-24.139-9.099-36.181-13.72
		c-14.961-5.74-29.93-11.458-44.898-17.178c-0.676-0.259-1.117-0.667-1.196-1.729c9.529-1.107,19.081-2.208,28.628-3.33
		c6.709-0.788,13.49-1.218,20.091-2.547c4.102-0.826,6.332,0.27,8.679,3.514c8.078,11.165,16.452,22.114,24.713,33.147
		C200.627,96.609,200.568,97.234,199.95,97.907z"/>
	<path fill-rule="evenodd" clip-rule="evenodd" d="M119.197,100.819c13.241,5.074,25.99,10.065,38.831,14.806
		c3.17,1.17,1.898,3.477,1.94,5.324c0.167,7.35,0.063,7.403-6.712,5.089c-10.066-3.442-20.081-7.034-30.168-10.411
		c-3.049-1.021-4.65-2.364-3.988-5.963C119.593,106.979,119.197,104.13,119.197,100.819z"/>
	<path fill-rule="evenodd" clip-rule="evenodd" d="M140.276,128.723c12.298,4.416,24.083,8.815,35.999,12.824
		c3.62,1.217,5.556,2.696,4.808,6.775c-0.354,1.929-0.061,3.977-0.061,6.611c-9.919-3.63-19.538-7.148-29.154-10.67
		c-1.067-0.391-2.12-0.821-3.191-1.199C139.26,139.743,139.259,139.745,140.276,128.723z"/>
	<path fill-rule="evenodd" clip-rule="evenodd" d="M166.961,119.119c12.768,4.8,25.186,9.425,37.563,14.161
		c2.191,0.839,3.244,9.662,1.526,11.235c-0.872,0.799-1.456,0.019-2.18-0.238c-11.564-4.103-23.126-8.216-34.718-12.24
		c-1.723-0.599-2.249-1.613-2.211-3.297C167.01,125.748,166.961,122.753,166.961,119.119z"/>
	<path fill-rule="evenodd" clip-rule="evenodd" d="M179.001,116.491c-12.89-4.956-24.945-9.574-36.982-14.239
		c-1.716-0.665-3.166-8.853-1.753-10.004c0.805-0.655,1.785-0.186,2.751,0.184c11.044,4.226,22.11,8.392,33.179,12.555
		c2.009,0.756,3.181,1.851,2.862,4.295C178.782,111.398,179.001,113.579,179.001,116.491z"/>
	<path fill-rule="evenodd" clip-rule="evenodd" d="M133.016,131.554c0.002,5.671,0.006,5.66-5.559,3.649
		c-6.417-2.316-12.804-4.729-19.287-6.846c-1.764-0.575-2.466-1.237-2.241-3.015c0.346-2.733-0.683-5.593,0.701-8.188
		c0.111-0.208,1.513,0.164,2.262,0.42c7.204,2.459,14.398,4.943,21.589,7.437C133.88,126.188,132.997,129.052,133.016,131.554z"/>
	<path fill-rule="evenodd" clip-rule="evenodd" d="M108.907,79.185c5.967,2.372,11.817,5.13,17.939,6.997
		c5.139,1.565,7.136,4.364,6.206,9.518c-0.146,0.802-0.021,1.652-0.021,3.204c-8.778-3.349-17.205-6.642-25.702-9.739
		c-1.623-0.591-1.353-1.598-1.354-2.675c-0.001-2.49,0.062-4.979,0.099-7.469C107.061,78.354,108.02,78.151,108.907,79.185z"/>
	<path fill-rule="evenodd" clip-rule="evenodd" fill="#010101" d="M160.941,154.898c14.487,5.189,28.452,10.238,42.457,15.177
		c3.553,1.252,2.627,3.892,2.462,6.876c-14.439-5.04-28.709-9.965-42.929-15.025C159.586,160.734,161.35,157.743,160.941,154.898z"
		/>
	<path fill-rule="evenodd" clip-rule="evenodd" fill="#010101" d="M153.986,154.852c0.268,2.802-0.144,3.778-3.23,2.609
		c-10.571-4-21.215-7.844-31.977-11.292c-3.459-1.108-3.576-3.521-3.101-5.699c0.759-3.477,3.202-0.953,4.661-0.448
		c10.249,3.55,20.439,7.273,30.634,10.977C152.819,151.669,154.867,152.308,153.986,154.852z"/>
	<path fill-rule="evenodd" clip-rule="evenodd" fill="#010101" d="M185.931,108.847c5.803,2.206,10.805,4.604,16.076,5.962
		c4.592,1.184,5.622,3.696,5.034,7.805c-0.186,1.292-0.029,2.632-0.029,4.391c-6.695-2.439-13.012-4.711-19.301-7.057
		c-1.371-0.511-1.859-1.656-1.805-3.154C185.997,114.314,185.931,111.831,185.931,108.847z"/>
	<path fill-rule="evenodd" clip-rule="evenodd" d="M187.949,145.924c5.45,1.795,10.508,3.388,15.508,5.145
		c1.734,0.61,2.923,1.648,2.629,4.005c-0.346,2.78-0.081,5.638-0.081,8.971c-5.732-2.078-11.104-4.172-16.585-5.927
		c-1.672-0.535-1.453-1.477-1.462-2.569C187.934,152.423,187.949,149.3,187.949,145.924z"/>
	<path fill-rule="evenodd" clip-rule="evenodd" fill="#040404" d="M179.889,99.026c-14.037-5.26-28.032-10.635-42.124-15.741
		c-10.312-3.736-20.296-8.379-30.916-11.228c-1.479-0.397-2.215-0.976-1.754-2.218c0.765-2.063,1.81-0.232,2.66,0.093
		c19.3,7.391,38.591,14.806,57.879,22.229c5.114,1.968,10.214,3.974,15.319,5.963C181.059,98.967,180.969,99.58,179.889,99.026z"/>
	<path fill-rule="evenodd" clip-rule="evenodd" fill="#030303" d="M105.959,95.873c6.156,2.299,9.064,8.893,6.963,14.1
		c-0.553,1.371-1.744,1.303-2.355,0.968c-1.647-0.907-4.607-0.158-4.608-3.329C105.958,103.829,105.959,100.046,105.959,95.873z"/>
	<path fill-rule="evenodd" clip-rule="evenodd" fill="#040404" d="M105.89,138.263c0.424-1.088-0.8-3.153,1.132-3.119
		c2.077,0.036,2.18,2.094,1.975,3.763c-0.136,1.102,0.861,3.006-1.27,3.021C104.992,141.947,106.284,139.606,105.89,138.263z"/>
	<path fill-rule="evenodd" clip-rule="evenodd" fill="#0E0E0E" d="M183.977,99.987c3.618,0.582,7.066,1.606,10.057,3.835
		c0.32,0.247,0.42,0.484,0.299,0.712c-0.119,0.222-0.234,0.332-0.349,0.332C190.744,103.042,186.656,102.958,183.977,99.987
		L183.977,99.987z"/>
	<path fill-rule="evenodd" clip-rule="evenodd" fill="#F6F7F7" d="M38.023,50.927c1.186,0.797,2.421,1.549,2.784,3.089
		c-1.377,0.991-2.564,0.915-3.726-0.444C35.768,52.033,37.901,51.868,38.023,50.927z"/>
	<path fill-rule="evenodd" clip-rule="evenodd" fill="#E8E8E8" d="M50.143,37.594c0.758,0.286,1.681,1.797,2.858,3.031
		C51.814,39.367,50.628,38.108,50.143,37.594z"/>
	<path fill-rule="evenodd" clip-rule="evenodd" fill="#E7ECEC" d="M199.95,97.907c-0.055-0.614-0.109-1.228-0.164-1.842
		c1.659,0.443,2.304,1.701,2.485,3.247c0.014,0.123-0.766,0.529-1.122,0.472C200.144,99.619,200.066,98.72,199.95,97.907z"/>
	<path fill-rule="evenodd" clip-rule="evenodd" fill="#020202" d="M193.983,104.867c0.017-0.348,0.033-0.696,0.05-1.044
		c1.631,0.474,3.262,0.947,4.894,1.421c0.278,0.231,0.37,0.461,0.275,0.691c-0.094,0.229-0.188,0.343-0.282,0.343
		C197.274,105.807,195.629,105.337,193.983,104.867z"/>
	<path fill-rule="evenodd" clip-rule="evenodd" fill="#020202" d="M202.021,106.781c1.836-0.038,3.371,0.75,4.873,1.75
		c-1.939,1.604-3.216-0.869-4.887-0.719c-0.285-0.233-0.378-0.464-0.279-0.691C201.827,106.895,201.925,106.781,202.021,106.781z"/>
	<path fill-rule="evenodd" clip-rule="evenodd" fill="#E7ECEC" d="M108.907,79.185c-0.944-0.055-1.888-0.11-2.832-0.165
		c-0.234-0.362-0.467-0.724-0.7-1.086C106.822,77.589,108.098,77.729,108.907,79.185z"/>
	<path fill-rule="evenodd" clip-rule="evenodd" fill="#101010" d="M179.889,99.026c0.355-0.301,0.709-0.603,1.063-0.903
		c0.922,0.762,2.697,0.139,3.024,1.864l0,0C182.514,100.095,180.962,100.575,179.889,99.026z"/>
	<path fill-rule="evenodd" clip-rule="evenodd" fill="#242424" d="M202.021,106.781c-0.004,0.344-0.009,0.688-0.014,1.031
		c-1.029-0.513-2.369-0.4-3.088-1.535c0.002-0.345,0.005-0.689,0.007-1.034C199.876,105.922,201.444,105.354,202.021,106.781z"/>
	<path fill-rule="evenodd" clip-rule="evenodd" fill="#E4E9E9" d="M239.869,194.931c0.666-0.972,1.333-1.944,1.999-2.917
		C243.969,194.883,241.199,194.413,239.869,194.931z"/>
</g>
</svg>
