<?xml version="1.0" encoding="utf-8"?>
<!-- Generator: Adobe Illustrator 16.0.2, SVG Export Plug-In . SVG Version: 6.00 Build 0)  -->
<!DOCTYPE svg PUBLIC "-//W3C//DTD SVG 1.1//EN" "http://www.w3.org/Graphics/SVG/1.1/DTD/svg11.dtd">
<svg version="1.1" id="Layer_1" xmlns="http://www.w3.org/2000/svg" xmlns:xlink="http://www.w3.org/1999/xlink" x="0px" y="0px"
	 width="1298.838px" height="1298.838px" viewBox="0 0 1298.838 1298.838" enable-background="new 0 0 1298.838 1298.838"
	 xml:space="preserve">
<g>
	<path fill-rule="evenodd" clip-rule="evenodd" d="M1005.482,261.644c0.18,1.578,0.462,2.21,0.257,2.534
		c-2.177,3.441-2.836,6.724,0.396,9.994c0.389,0.393,0.292,1.734-0.074,2.333c-4.028,6.57-2.73,13.125-0.641,19.966
		c0.813,2.659-0.471,5.595-1.31,8.527c-2.145,7.5-8.904,13.045-8.483,21.521c0.117,2.37-0.952,5.481-2.604,7.117
		c-3.504,3.473-3.741,7.592-4.394,11.962c-0.424,2.833-2.447,5.391-3.396,8.193c-1.327,3.918-2.648,7.896-3.341,11.954
		c-0.452,2.658-0.579,4.572-3.218,6.547c-2.197,1.644-2.715,5.582-3.881,8.542c-1.339,3.403-2.663,6.816-3.829,10.281
		c-1.17,3.477-2.743,6.972-3.036,10.549c-0.344,4.195-1.43,7.208-4.648,10.302c-2.249,2.16-2.297,6.54-3.524,9.857
		c-0.985,2.66-2.335,5.183-3.392,7.819c-0.953,2.379-2.219,4.779-2.473,7.258c-0.442,4.311-0.896,8.125-4.485,11.454
		c-1.836,1.703-2.254,5.355-2.543,8.203c-0.416,4.1-0.458,7.634-4.316,10.84c-2.206,1.835-2.371,6.614-2.651,10.132
		c-0.239,2.99-0.615,5.319-3.232,7.275c-1.403,1.048-2.546,3.122-2.818,4.886c-1.108,7.17-3.533,13.707-7.73,19.656
		c-0.867,1.229-1.56,3.304-1.132,4.59c1.369,4.113-0.954,6.435-2.92,9.559c-2.101,3.336-2.573,7.711-3.679,11.654
		c-0.374,1.338-0.021,3.375-0.84,4.01c-4.727,3.669-5.646,8.86-6.707,14.226c-0.503,2.541-2.395,4.774-3.317,7.273
		c-1.398,3.782-2.539,7.662-3.713,11.523c-0.651,2.141-0.875,4.453-1.782,6.466c-1.455,3.229-4.52,6.195-4.731,9.416
		c-0.332,5.038-1.972,9.015-4.813,12.941c-1.068,1.477-1.037,3.706-1.728,5.507c-1.308,3.412-2.884,6.721-4.145,10.147
		c-1.391,3.779-2.509,7.658-3.831,11.464c-0.996,2.87-2.162,5.68-3.186,8.541c-1.301,3.628-2.471,7.306-3.822,10.916
		c-0.873,2.331-2.09,4.535-2.941,6.872c-1.425,3.913-2.576,7.926-4.049,11.819c-0.949,2.511-2.39,4.832-3.389,7.327
		c-1.312,3.279-2.89,6.563-3.466,9.995c-0.635,3.777-0.677,7.073-4.395,9.891c-2.035,1.543-2.359,5.923-2.61,9.09
		c-0.299,3.76-1.103,6.68-3.799,9.728c-2.139,2.417-2.148,6.644-3.368,9.97c-0.977,2.661-2.465,5.132-3.523,7.77
		c-1.258,3.132-2.762,6.275-3.304,9.555c-0.554,3.344-0.291,6.193-3.458,9.088c-2.477,2.264-2.405,7.215-3.714,10.884
		c-1.053,2.957-2.647,5.72-3.699,8.677c-1.554,4.371-2.851,8.836-4.221,13.271c-0.143,0.459,0.161,1.284-0.08,1.452
		c-7.998,5.54-3.534,16.381-9.91,22.985c-2.428,2.515-1.968,7.72-3.105,11.616c-0.579,1.983-1.848,3.757-2.686,5.677
		c-1.457,3.34-2.782,6.737-4.239,10.077c-1.58,3.622-3.429,7.138-4.815,10.829c-1.021,2.718-1.332,5.695-2.248,8.463
		c-1.036,3.133-2.461,6.134-3.594,9.237c-1.197,3.282-2.29,6.606-3.356,9.937c-0.766,2.393-1.244,4.89-2.146,7.227
		c-1.832,4.746-3.776,9.453-5.831,14.108c-5.617,12.721-11.801,23.614-28.748,22.192c-6.375-0.534-13.015-2.718-17.319-8.88
		c-2.396-3.429-5.781-6.188-8.826-9.141c-8.158-7.905-16.5-15.626-24.532-23.656c-8.033-8.033-15.678-16.455-23.688-24.513
		c-5.837-5.871-12.11-11.308-17.97-17.159c-5.862-5.854-11.344-12.089-17.189-17.96c-5.609-5.634-11.511-10.974-17.204-16.524
		c-3.504-3.416-6.856-6.988-10.28-10.488c-3.637-3.718-7.453-7.28-10.873-11.188c-4.315-4.934-10.597-8.036-13.202-14.581
		c-1.567-3.938-0.485-8.715,2.688-11.187c1.962-1.528,3.584-3.489,5.394-5.219c3.557-3.4,7.19-6.723,10.697-10.174
		c3.459-3.405,6.833-6.898,10.188-10.409c3.078-3.22,6.02-6.57,9.126-9.761c4.055-4.165,8.157-8.288,12.349-12.315
		c3.445-3.309,7.069-6.431,10.579-9.672c3.018-2.785,6.033-5.575,8.967-8.446c4.414-4.319,8.791-8.677,13.113-13.086
		c2.466-2.515,4.712-5.247,7.201-7.738c6.754-6.76,13.653-13.374,20.354-20.185c3.431-3.486,6.561-7.267,9.824-10.916
		c0.109-0.123,0.252-0.25,0.289-0.397c2.979-11.83,11.105-22.782,6.213-35.945c-0.497-1.337-1.734-2.391-2.272-3.72
		c-1.037-2.567-1.822-5.237-2.707-7.864c-0.466-1.384-0.523-3.169-1.446-4.092c-7.229-7.229-14.619-14.294-21.968-21.402
		c-0.716-0.692-1.787-1.184-2.181-2.012c-2.116-4.446-5.694-5.475-10.222-4.925c-1.008,0.123-2.507-0.294-3.126-1.021
		c-6.39-7.484-14.699-5.817-22.836-4.946c-0.933,0.1-1.946,0.495-2.695,1.058c-3.775,2.832-7.289,6.155-12.665,5.124
		c-0.657-0.126-1.635,0.446-2.202,0.976c-5.503,5.14-11.029,10.262-16.395,15.545c-6.221,6.123-12.234,12.458-18.444,18.59
		c-2.998,2.96-6.38,5.533-9.345,8.523c-7.507,7.571-14.769,15.387-22.327,22.905c-9.452,9.4-19.23,18.475-28.628,27.928
		c-7.735,7.78-15.155,15.876-22.655,23.888c-5.725,6.115-14.142,4.106-20.051-2.176c-4.105-4.364-8.484-8.47-12.653-12.774
		c-5.534-5.713-10.913-11.575-16.491-17.241c-3.536-3.592-7.331-6.928-10.981-10.41c-2.946-2.811-5.875-5.64-8.762-8.511
		c-6.785-6.75-13.602-13.468-20.289-20.314c-5.554-5.686-10.821-11.654-16.437-17.277c-5.849-5.857-12.027-11.386-17.934-17.187
		c-3.236-3.177-6.183-6.645-9.313-9.934c-2.808-2.951-5.616-5.909-8.55-8.733c-5.968-5.743-11.923-11.504-18.063-17.06
		c-7.052-6.382-8.852-19.441-4.886-28.055c2.813-6.111,6.996-9.039,12.583-12.502c5.187-3.214,9.794-5.029,15.5-5.377
		c0.764-0.047,1.859-0.43,2.187-1.006c4.128-7.286,11.729-5.165,17.953-6.736c0.639-0.161,1.737-0.039,1.887-0.375
		c3.452-7.788,11.219-4.452,16.838-6.585c0.756-0.287,1.975-0.056,2.349-0.545c3.896-5.1,9.542-5.19,15.188-6.192
		c3.886-0.688,7.276-3.817,11.111-5.267c3.003-1.137,6.363-1.306,9.532-2.044c1.065-0.249,2.62-0.679,2.946-1.45
		c1.972-4.663,5.835-4.404,9.923-4.654c4.123-0.251,8.351-0.51,11.303-4.711c1.081-1.538,4.44-2.131,6.715-2.04
		c4.976,0.196,8.453-2.048,12.362-4.764c3.086-2.143,7.62-2.149,11.455-3.29c1.805-0.537,4.257-1.042,5.058-2.378
		c1.938-3.227,4.485-3.599,7.852-3.827c4.996-0.338,10.707,0.772,13.856-5.307c0.597-1.151,3.542-1.351,5.444-1.508
		c4.846-0.401,9.065-1.574,13.059-4.885c2.5-2.074,6.628-2.199,10.04-3.149c1.399-0.39,3.422-0.158,4.161-1.044
		c4.87-5.837,11.823-4.862,18.143-6.008c0.926-0.168,2.2-0.539,2.586-1.225c2.764-4.907,7.282-4.671,12.026-4.918
		c2.761-0.144,5.44-1.983,8.143-3.09c3.81-1.562,7.63-3.104,11.406-4.747c2.323-1.011,4.75-1.936,6.808-3.365
		c2.675-1.858,4.738-3.538,8.715-3.108c3.442,0.371,7.621-1.643,10.715-3.729c3.07-2.072,5.377-3.793,9.563-3.129
		c2.825,0.448,6.832-0.923,8.948-2.922c3.438-3.25,7.191-4.204,11.506-4.589c3.097-0.277,5.825-0.8,7.934-3.948
		c1.194-1.783,4.439-2.836,6.854-3.025c5.194-0.405,10.037-0.865,13.911-5.052c1.177-1.272,3.676-2.191,5.38-1.947
		c5.524,0.791,9.436-1.649,13.581-4.786c2.146-1.624,5.51-1.644,8.326-2.375c2.341-0.607,4.754-1.012,7.016-1.834
		c4.222-1.534,8.342-3.345,12.533-4.965c3.357-1.297,7.503-0.646,9.498-5.165c0.592-1.339,4.133-1.297,6.265-2.05
		c4.359-1.539,8.652-3.262,13.022-4.763c2.584-0.887,5.333-1.31,7.882-2.272c2.912-1.1,5.683-2.574,8.521-3.871
		c2.271-1.037,4.489-2.707,6.845-2.94c4.825-0.479,9.431-0.195,13.19-4.572c1.571-1.83,5.403-1.611,8.106-2.602
		c3.84-1.408,7.561-3.144,11.383-4.604c2.395-0.915,4.847-2.07,7.336-2.257c4.858-0.365,8.863-1.665,12.938-4.792
		c3.047-2.34,7.928-2.278,11.983-3.322c1.048-0.271,2.701-0.4,2.987-1.064c2.097-4.862,6.459-4.248,10.495-5.057
		c3.519-0.705,6.794-2.598,10.196-3.913c2.656-1.026,5.321-2.708,8.022-2.79c4.693-0.142,8.229-1.557,11.976-4.552
		c2.769-2.216,7.326-2.095,10.963-3.365c2.106-0.735,3.915-2.277,5.954-3.254c2.306-1.104,4.658-2.578,7.1-2.833
		c4.953-0.517,9.566-1.13,13.282-5.041c1.192-1.254,3.459-1.648,5.317-2.069c3.277-0.742,7.384,1.705,9.79-2.808
		c0.228-0.427,3.292,0.386,4.887,1.014c4.796,1.887,9.343,3.103,14.05-0.579c1.017-0.795,4.092-0.47,5.078,0.5
		c2.602,2.558,4.477,2.734,6.871-0.072C1002.463,262.37,1003.933,262.248,1005.482,261.644z"/>
	<path fill-rule="evenodd" clip-rule="evenodd" d="M513.531,709.449c1.535-1.817,3.023-3.679,4.627-5.433
		c0.718-0.785,1.602-1.798,2.531-1.942c3.233-0.504,4.966-2.131,5.368-5.417c0.077-0.637,1.135-1.541,1.842-1.647
		c3.031-0.453,4.65-2.043,5.125-5.073c0.114-0.725,0.957-1.418,1.603-1.961c2.198-1.848,4.458-3.622,6.226-6.05
		c3.151-0.996,5.98-2.171,6.197-6.439c0.027-0.531,0.904-1.17,1.526-1.482c0.71-0.355,1.871-0.13,2.326-0.625
		c3.42-3.729,6.721-7.566,10.043-11.386c0.566-0.65,0.929-1.782,1.599-1.984c2.987-0.901,5.561-1.962,5.557-5.769
		c-0.001-0.446,1.03-1.09,1.693-1.306c2.741-0.899,5.251-1.869,5.261-5.46c0.001-0.514,0.89-1.315,1.508-1.491
		c3.003-0.857,5.565-1.959,5.542-5.77c-0.003-0.436,1.048-1.067,1.715-1.283c2.755-0.892,3.806-3.113,5.505-5.205
		c2.638-3.25,5.876-6.284,8.863-9.274c1.764-1.764,3.431-3.72,5.186-5.359c3-2.803,6.113-5.05,8.674-8.61
		c1.2-1.669,3.645-3.586,5.477-5.345c2.969-2.85,5.647-5.956,8.567-8.671c1.995-1.854,4.936-2.675,5.747-5.953
		c0.149-0.605,1.049-1.446,1.617-1.459c4.45-0.098,4.822-3.076,4.647-5.682c4.514-1.865,8.52-4.117,12.819-5.157
		c6.373-1.542,12.963-2.509,19.149,1.174c1.111,0.661,2.315,1.369,3.558,1.578c7.478,1.257,10.984,5.651,13.487,12.651
		c2.091,5.844,4.11,11.394,3.492,17.628c-0.144,1.439-0.364,2.917-0.855,4.266c-1.651,4.542-3.44,9.032-5.458,14.274
		c-1.926,0.25-5.991-0.616-5.764,4.611c0.021,0.474-1.567,0.919-2.258,1.542c-1.573,1.419-3.031,2.964-4.578,4.412
		c-0.995,0.931-2.159,1.695-3.08,2.688c-1.333,1.436-2.494,3.031-3.772,4.521c-0.695,0.81-1.467,1.557-2.23,2.305
		c-1.729,1.692-3.476,3.368-5.217,5.049c-0.909,0.877-1.832,1.741-2.732,2.627c-1.374,1.351-2.703,2.746-4.107,4.063
		c-1.219,1.144-2.477,2.254-3.792,3.283c-0.855,0.67-2.398,0.977-2.677,1.779c-1.035,2.978-3.639,4.03-5.635,5.903
		c-2.821,2.649-5.105,5.856-8.307,8.432c-1.952,1.57-2.035,5.466-5.904,5.25c-0.848,5.158-6.882,6.412-8.358,11.099
		c-0.147,0.466-0.323,1.341-0.451,1.335c-6.386-0.321-6.602,6.751-10.848,9.104c-1.653,0.915-2.5,3.288-4.343,5.884
		c-2.834,0.218-6.131,1.654-5.502,6.824c-4.014,0.662-7.747,1.42-6.876,6.804c-3.519,0.954-7.662,1.205-7.188,6.433
		c0.042,0.454-1.054,1.327-1.737,1.478c-3.102,0.683-5.818,1.515-5.29,5.647c0.052,0.406-1.14,1.347-1.809,1.405
		c-3.514,0.306-5.177,2.117-5.544,5.601c-0.073,0.691-1.614,1.703-2.521,1.753c-4.443,0.238-5.27,3.458-4.852,6.619
		c0.401,3.036,0.055,7.194,4.821,7.802c0.492,0.063,1.4,0.097,1.413,0.219c0.529,4.986,6.074,6.086,7.813,10.143
		c0.764,1.783,1.493,3.983,2.937,4.994c3.487,2.441,3.845,5.93,3.997,9.497c0.199,4.657,0.269,9.344-0.054,13.986
		c-0.138,1.986-1.186,4.021-2.209,5.812c-1.911,3.346-4.106,6.529-5.656,10.192c-3.1,0.443-6.251,1.196-6.256,5.942
		c-0.001,0.343-0.89,0.791-1.439,0.998c-0.758,0.287-1.88,0.121-2.335,0.617c-3.418,3.73-6.164,8.359-10.194,11.168
		c-4.232,2.949-5.871,8.289-10.765,10.278c-0.146,0.06-0.404-0.045-0.485,0.042c-3.212,3.464-6.418,6.937-9.593,10.435
		c-0.184,0.202-0.011,0.886-0.155,0.94c-4.75,1.785-6.471,6.808-10.287,9.6c-1.419,1.039-3.446,2.345-3.615,3.722
		c-0.214,1.751,0.699,4.152,1.959,5.485c6.12,6.469,12.517,12.675,18.816,18.974c0.235,0.236,0.426,0.552,0.706,0.702
		c9.007,4.835,9.76,12.304,6.488,20.879c-0.706,1.848-2.028,3.598-3.447,5.01c-3.565,3.548-7.409,6.812-11.027,10.308
		c-3.825,3.695-7.508,7.538-11.271,11.297c-2.767,2.765-5.632,5.434-8.337,8.259c-5.729,5.984-11.254,12.172-17.105,18.034
		c-5.848,5.857-12.112,11.298-17.97,17.146c-5.626,5.617-10.821,11.668-16.47,17.261c-6.116,6.056-13.797,10.962-18.45,17.934
		c-4.138,6.2-11.104,6.489-15.923,11.14c-3.898,3.762-10.398,6.774-17.401,5.588c-4.601-0.78-9.458-0.005-14.2-0.018
		c-1.969-0.005-3.938-0.226-5.904-0.39c-1.642-0.137-3.278-0.474-4.917-0.476c-4.221-0.006-8.446,0.05-12.662,0.229
		c-2.582,0.109-5.148,0.546-7.728,0.728c-1.135,0.08-3.196,0.144-3.296-0.217c-1.121-3.991-4.647-2.611-7.052-3.067
		c-3.554-0.674-6.806-1.273-8.511-4.953c-0.256-0.553-0.907-1.198-1.462-1.293c-10.609-1.824-14.567-11.982-22.166-17.353
		c-5.46-3.857-4.477-11.646-10.869-14.045c-0.133-0.05-0.304-0.249-0.3-0.374c0.327-10.992-8.987-19.499-7.624-30.93
		c1.233-10.336,0.995-20.851,2.297-31.174c0.719-5.7,1.918-12.285,5.352-16.45c4.031-4.889,4.974-12.229,11.603-15.077
		c0.861-0.369,1.807-1.793,1.794-2.715c-0.039-2.933,1.371-4.23,4.05-4.595c0.149-0.021,0.36-0.142,0.409-0.268
		c1.818-4.677,6.995-6.128,9.603-10.028c0.344-0.515,0.191-1.477,0.607-1.811c3.807-3.064,7.913-5.795,11.486-9.103
		c3.506-3.248,6.46-7.086,9.72-10.606c2.375-2.564,4.773-5.116,7.303-7.527c3.319-3.163,6.812-6.146,10.164-9.276
		c3.162-2.952,6.266-5.969,9.346-9.009c4.242-4.186,8.551-8.312,12.614-12.666c3.534-3.786,6.762-7.858,10.143-11.789
		c0.424-0.492,0.915-1.219,1.443-1.284c4.005-0.495,4.433-3.38,4.442-6.503c7.476-1.748,7.476-1.748,6.114-8.806
		c4.654-0.903,9.339-1.813,14.472-2.809c2.092,0.888,4.95,2.082,7.788,3.318c0.899,0.392,1.966,0.7,2.589,1.382
		c5.515,6.034,10.912,12.176,16.421,18.215c2.187,2.396,4.501,4.685,6.878,6.892c2.428,2.254,5.69,1.36,7.55-1.485
		c1.253-1.92,3.123-3.441,4.739-5.118c1.061-1.101,2.199-2.126,3.236-3.245c0.933-1.009,1.762-2.111,2.66-3.154
		c1.467-1.705,2.969-3.379,4.413-5.103c0.297-0.354,0.359-1.239,0.592-1.262c4.782-0.479,5.679-5.039,8.443-7.609
		c2.879-2.68,2.081-4.727,0.357-6.655c-4.15-4.646-8.782-8.858-12.985-13.462c-1.494-1.636-2.472-3.821-3.384-5.89
		c-0.722-1.638-0.567-3.754-1.517-5.182c-5.109-7.674-3.846-14.88,0.407-22.507c2.072-3.717,2.942-8.032,7.281-10.072
		c0.43-0.202,0.73-1.134,0.729-1.726c-0.009-3.139,1.275-4.995,4.568-5.414c0.827-0.105,2.184-1.033,2.21-1.631
		c0.167-3.768,2.306-5.111,5.69-5.64c0.674-0.105,1.074-1.818,1.647-2.762c0.566-0.933,1.168-2.599,1.795-2.617
		c5.13-0.156,5.809-3.918,6.483-7.775C512.705,708.805,513.118,709.127,513.531,709.449z M483.442,752.188
		c-3.56,3.886-3.499,8.776,0,11.328C483.442,759.753,483.442,756.189,483.442,752.188z M653.552,579.628
		c0.051,0.597,0.103,1.193,0.153,1.79c3.299-0.348,6.598-0.698,9.895-1.046c-0.047-0.534-0.095-1.068-0.142-1.602
		C660.156,579.056,656.854,579.342,653.552,579.628z"/>
</g>
</svg>
