<?xml version="1.0" encoding="utf-8"?>
<!-- Generator: Adobe Illustrator 16.0.2, SVG Export Plug-In . SVG Version: 6.00 Build 0)  -->
<!DOCTYPE svg PUBLIC "-//W3C//DTD SVG 1.1//EN" "http://www.w3.org/Graphics/SVG/1.1/DTD/svg11.dtd">
<svg version="1.1" id="Layer_1" xmlns="http://www.w3.org/2000/svg" xmlns:xlink="http://www.w3.org/1999/xlink" x="0px" y="0px"
	 width="126.48px" height="122.88px" viewBox="0 0 126.48 122.88" enable-background="new 0 0 126.48 122.88" xml:space="preserve">
<g>
	<path fill-rule="evenodd" clip-rule="evenodd" d="M74.16,123.12c-7.28,0-14.56,0-21.84,0c-0.538-0.166-1.065-0.39-1.615-0.489
		c-6.674-1.207-12.896-3.665-18.703-7.09c-6.186-3.647-11.673-8.179-16.253-13.766c-2.798-3.413-5.275-7.029-7.352-10.923
		c-2.113-3.96-3.833-8.104-4.871-12.451c-0.935-3.919-1.65-7.93-1.987-11.94c-0.292-3.472-0.058-7.01,0.206-10.499
		c0.212-2.809,0.645-5.627,1.284-8.371c1.295-5.555,3.326-10.852,6.173-15.819c3.739-6.524,8.372-12.292,14.182-17.107
		c4.441-3.681,9.228-6.778,14.507-9.127C43.37,3.1,49.058,1.447,55.017,0.729c0.947-0.114,1.883-0.324,2.823-0.489
		c3.6,0,7.2,0,10.8,0c0.117,0.083,0.227,0.223,0.353,0.242c2.253,0.333,4.52,0.588,6.761,0.987c6.671,1.188,12.903,3.631,18.71,7.06
		c6.184,3.651,11.671,8.179,16.26,13.761c2.881,3.504,5.444,7.216,7.531,11.234c1.972,3.797,3.671,7.74,4.594,11.928
		c0.875,3.975,1.729,7.99,2.09,12.032c0.313,3.508,0.062,7.089-0.202,10.618c-0.209,2.809-0.645,5.627-1.275,8.372
		c-1.279,5.562-3.363,10.835-6.167,15.824c-2.77,4.93-6.167,9.388-10.096,13.428c-1.646,1.693-3.53,3.163-5.356,4.675
		c-4.396,3.64-9.243,6.571-14.521,8.721c-2.745,1.118-5.621,1.922-8.461,2.798C77.316,122.396,75.729,122.725,74.16,123.12z
		 M46.396,68.595c0.246,1.186,0.39,2.284,0.705,3.331c0.972,3.228,2.177,6.394,2.966,9.662c0.619,2.566,1.723,4.956,2.302,7.534
		c0.632,2.815,1.579,5.565,2.473,8.316c0.191,0.587-0.172,1.596,0.957,1.684c-0.013,0.063-0.032,0.126-0.038,0.19
		c-0.159,1.758,0.685,3.185,1.393,4.78c-0.338,0.428,0.092,2.222,1.242,4.162c0.456-8.744,0.902-17.293,1.351-25.913
		c1.861,0,3.777-0.009,5.693,0.011c0.26,0.003,0.556,0.097,0.764,0.247c0.128,0.092,0.119,0.372,0.172,0.567
		c-0.187-0.064-0.372-0.13-0.69-0.241c0.103,0.872,0.229,1.68,0.288,2.492c0.175,2.408,0.338,4.817,0.479,7.229
		c0.253,4.313,0.48,8.629,0.73,12.942c0.058,0.982,0.163,1.962,0.267,3.192c0.723-2.252,1.392-4.212,1.976-6.197
		c0.396-1.349,0.673-2.733,1.003-4.102c-0.053-0.291,0.177-0.536,0.279-0.827c0.416-1.178,0.813-2.363,1.18-3.558
		c1.518-4.935,3.029-9.871,4.527-14.812c0.578-1.906,1.181-3.809,1.649-5.742c0.307-1.262,1.453-2.364,0.791-3.825
		c0.799-0.092,0.652-0.601,0.3-0.943c-0.318-0.311-0.816-0.446-1.251-0.622c-0.286-0.116-0.596-0.188-0.901-0.244
		c-0.859-0.156-0.957-0.663-0.654-1.367c0.341-0.792,0.716-1.571,1.016-2.379c0.353-0.947,0.886-1.229,1.894-0.885
		c3.622,1.233,7.235,2.482,10.811,3.85c2.416,0.923,4.548,2.252,6.529,3.882c0.308,0.253,0.779,0.306,0.979,0.379
		c0.092,0.283,0.098,0.507,0.213,0.616c0.22,0.211,0.546,0.315,0.75,0.536c1.795,1.948,3.849,3.634,5.435,5.81
		c1.009,1.385,2.118,2.668,2.852,4.244c0.412,0.886,1.026,1.676,1.539,2.516c0.345,0.563,1.073,1.284,0.93,1.682
		c-0.423,1.173,0.529,1.954,0.555,2.99c0.022,0.928,0.594,1.842,0.974,2.903c5.217-7.856,8.189-16.581,8.885-25.964
		c1.046-14.104-2.54-27.028-10.996-38.463c-3.168-4.284-6.907-8.043-11.167-11.272c-4.188-3.175-8.7-5.762-13.604-7.664
		c-4.926-1.911-9.986-3.208-15.278-3.6C63.345,5.328,58.084,5.405,52.81,6.396c-5.171,0.972-10.067,2.638-14.784,4.907
		c-4.718,2.27-8.956,5.286-12.83,8.755C5.263,37.911,0.541,68.571,15.075,91.717c0.476-2.043,1.633-3.793,1.839-6.099
		c-0.06,0.051,0.211-0.085,0.333-0.304c0.641-1.147,1.18-2.355,1.878-3.465c0.76-1.207,1.671-2.316,2.48-3.494
		c0.191-0.278,0.238-0.657,0.396-1.123c0.848,0.315,0.924-0.769,1.487-1.313c1.896-1.83,3.871-3.591,5.918-5.251
		c2.757-2.233,5.915-3.747,9.298-4.815c2.048-0.647,4.078-1.355,6.101-2.078c0.735-0.263,1.426-0.646,2.341-1.067
		c0.267,0.268,0.799,0.593,1.019,1.063c0.497,1.061,0.88,2.181,1.205,3.308c0.055,0.19-0.356,0.659-0.644,0.778
		C47.978,68.169,47.176,68.357,46.396,68.595z M29.037,100.596c0.197-8.609-0.827-17.164,2.87-25.231
		c-0.817,0.421-1.463,0.866-2.012,1.409c-2.234,2.212-4.583,4.341-6.024,7.208c-1.104,2.196-2.216,4.394-3.165,6.657
		c-0.31,0.739-0.546,1.694,0.259,2.501c1.685,1.688,3.256,3.492,4.972,5.147C26.818,99.137,27.909,99.769,29.037,100.596z
		 M94.097,75.724c-0.057,0.069-0.112,0.138-0.169,0.207c0.263,0.483,0.629,0.938,0.771,1.454c1.216,4.403,2.132,8.863,2.229,13.448
		c0.059,2.757,0.002,5.516,0.025,8.273c0.003,0.257,0.214,0.512,0.328,0.768c0.196-0.101,0.424-0.167,0.584-0.309
		c1.523-1.351,3.066-2.683,4.541-4.086c0.93-0.886,1.769-1.869,2.61-2.842c0.159-0.185,0.269-0.581,0.18-0.785
		c-1.304-3.007-2.525-6.061-4.033-8.965c-0.646-1.243-1.89-2.184-2.891-3.233c-0.94-0.986-1.88-1.97-2.78-2.994
		C95.136,76.253,94.568,76.03,94.097,75.724z M91.341,99.707c-4.871,2.512-10.187,2.239-15.443,2.299c0,0.779,0,1.433,0,2.134
		c0.308,0.016,0.542,0.052,0.773,0.037c2.402-0.157,4.821-0.2,7.202-0.521c2.011-0.271,3.972-0.896,5.966-1.309
		C91.295,102.046,91.796,101.224,91.341,99.707z"/>
	<path fill-rule="evenodd" clip-rule="evenodd" d="M77.896,14.164c0.159,0.517,0.16,0.91,0.355,1.088
		c0.94,0.854,2.028,1.563,2.877,2.493c0.622,0.682,0.946,1.633,1.418,2.455c2.438,4.243,2.819,8.84,2.117,13.541
		c-0.312,2.082,0.35,3.909,0.724,5.848c0.239,1.237,0.192,2.588-0.019,3.839c-0.429,2.547-1.853,4.574-3.726,6.322
		c-0.499,0.466-0.936,1.055-1.238,1.667c-0.959,1.94-1.735,3.978-2.79,5.862c-0.702,1.254-1.854,2.25-2.637,3.469
		c-1.319,2.056-3.5,3.11-5.306,4.547c-1.086,0.864-2.894,0.876-4.398,1.15c-3.529,0.643-6.813-0.047-10.03-1.651
		c-1.434-0.715-2.383-1.869-3.562-2.802c-2.329-1.843-3.583-4.53-5.082-7.009c-0.26-0.429-0.413-0.929-0.576-1.409
		c-0.682-2.003-1.508-3.88-3.543-4.932c-0.253-0.131-0.279-0.675-0.44-1.014c-0.503-1.059-1.106-2.08-1.514-3.174
		c-0.58-1.554-0.903-3.153-0.441-4.84c0.71-2.597,0.036-5.256,0.259-7.877c0.147-1.728,0.26-3.464,0.537-5.173
		c0.489-3.015,1.555-5.869,3.274-8.371c1.634-2.378,3.734-4.338,6.342-5.736c2.829-1.515,5.806-2.313,8.997-2.353
		c1.799-0.023,3.599,0.021,5.397-0.01c3.054-0.054,5.862,0.953,8.656,1.992c0.725,0.27,1.462,0.446,2.104,1.082
		C76.266,13.773,77.321,13.928,77.896,14.164z M54.832,32.177c-2.31,2.036-4.522,3.97-6.708,5.935
		c-0.215,0.193-0.394,0.589-0.364,0.865c0.212,1.915,0.253,3.89,0.789,5.718c0.844,2.881,1.846,5.749,3.127,8.459
		c1.318,2.788,3.094,5.233,5.946,6.898c2.258,1.318,4.533,1.805,6.935,1.326c1.665-0.332,3.466-0.959,4.757-2.008
		c3.532-2.871,5.318-6.975,6.723-11.162c0.878-2.619,1.438-5.378,1.811-8.12c0.283-2.085,0.787-4.307-0.755-6.276
		c-0.509-0.651-0.665-1.573-1.008-2.36c-0.869-1.997-1.753-3.987-2.72-6.181c-0.452,1.822-0.807,3.346-1.226,4.852
		c-0.083,0.301-0.371,0.665-0.643,0.75c-0.172,0.054-0.518-0.328-0.735-0.561c-0.447-0.477-0.861-0.985-1.263-1.451
		c-4.406,4.518-9.883,6.76-15.958,8.257C54.037,35.218,54.446,33.654,54.832,32.177z"/>
	<path fill-rule="evenodd" clip-rule="evenodd" d="M65.861,80.956c-2.106,0-4.147,0-6.229,0c-0.556-0.834-1.1-1.77-1.763-2.611
		c-0.617-0.782-0.792-1.477-0.269-2.403c0.518-0.916,0.86-1.932,1.304-2.959c2.474,0,4.948-0.009,7.423,0.015
		c0.22,0.002,0.564,0.161,0.634,0.335c0.499,1.236,1.239,2.481,1.298,3.752c0.038,0.842-0.911,1.738-1.449,2.592
		C66.527,80.124,66.18,80.531,65.861,80.956z"/>
</g>
</svg>
