<?xml version="1.0" encoding="utf-8"?>
<!-- Generator: Adobe Illustrator 16.0.2, SVG Export Plug-In . SVG Version: 6.00 Build 0)  -->
<!DOCTYPE svg PUBLIC "-//W3C//DTD SVG 1.1//EN" "http://www.w3.org/Graphics/SVG/1.1/DTD/svg11.dtd">
<svg version="1.1" id="Layer_1" xmlns="http://www.w3.org/2000/svg" xmlns:xlink="http://www.w3.org/1999/xlink" x="0px" y="0px"
	 width="1298.838px" height="1298.838px" viewBox="0 0 1298.838 1298.838" enable-background="new 0 0 1298.838 1298.838"
	 xml:space="preserve">
<g>
	<path fill-rule="evenodd" clip-rule="evenodd" d="M615.42,467.863c-96.987,0-193.973-0.063-290.96,0.058
		c-17.573,0.022-32.227-15.334-32.325-31.887c-0.271-45.325-0.135-90.653-0.069-135.98c0.021-14.069,12.982-28.861,27.049-30.953
		c4.384-0.652,8.855-1.013,13.287-1.014c190.64-0.049,381.28-0.043,571.919-0.042c18.547,0,31.97,10.515,36.193,28.425
		c0.338,1.431,0.279,2.971,0.279,4.459c0.014,44.661,0.177,89.322-0.072,133.981c-0.098,17.491-14.172,33.004-32.843,32.99
		C810.393,467.821,712.906,467.863,615.42,467.863z M621.09,314.045c-82.792,0-165.582-0.001-248.373,0.004
		c-2.165,0-4.678-0.635-6.421,0.238c-3.47,1.74-7.963,3.615-9.473,6.69c-4.824,9.827,1.443,18.756,12.265,18.755
		c167.914-0.011,335.828-0.009,503.742-0.004c6.06,0,11.676-3.333,12.906-7.725c2.068-7.384-0.148-13.496-6.725-16.613
		c-2.5-1.186-5.68-1.292-8.549-1.295C787.338,314.032,704.215,314.045,621.09,314.045z"/>
	<path fill-rule="evenodd" clip-rule="evenodd" d="M702.819,1034.783c-2.542,0-4.356,0-6.172,0
		c-54.312,0-108.623,0.001-162.935-0.001c-6.682,0-6.69-0.005-6.69-6.429c-0.002-99.293-0.091-198.587,0.066-297.881
		c0.036-22.988,8.188-42.898,25.981-57.897c12.31-10.378,26.746-16.386,43.15-16.538c13.159-0.122,26.335-0.395,39.48,0.073
		c14.976,0.532,28.231,5.916,40.133,15.219c15.322,11.979,23.296,27.936,26.86,46.548c0.277,1.45,0.12,2.989,0.12,4.487
		c0.004,102.293,0.005,204.585,0.005,306.878C702.819,1030.882,702.819,1032.521,702.819,1034.783z"/>
	<path fill-rule="evenodd" clip-rule="evenodd" d="M965.975,348.191c12.055,2.238,22.878,6.03,31.332,14.816
		c7.198,7.482,11.3,16.598,12.328,26.723c1.002,9.865,1.061,19.85,1.101,29.785c0.125,30.994,0.035,61.989,0.05,92.984
		c0.01,20.971-5.641,40.251-18.364,56.961c-12.408,16.299-29.433,25.917-49.242,30.208c-8.767,1.899-17.888,3-26.853,3.03
		c-70.82,0.239-141.644-0.089-212.463,0.303c-16.018,0.089-32.117,1.589-47.513,7.029c-9.347,3.303-16.854,8.632-21.477,17.654
		c-0.496,0.966-1.949,2.037-2.97,2.049c-11.485,0.145-22.973,0.092-34.843,0.092c5.981-26.839,22.505-43.606,47.45-52.804
		c12.521-4.616,25.435-7.463,38.787-7.981c19.701-0.764,39.408-1.854,59.116-1.932c62.155-0.248,124.314,0.266,186.466-0.261
		c24.992-0.212,40.337-14.192,45.024-38.479c0.806-4.172,1.013-8.514,1.021-12.778c0.075-39.159,0.018-78.319,0.078-117.479
		c0.008-5.384-1.554-9.594-6.642-12.178c-1.063-0.54-2.268-2.098-2.285-3.204C965.911,371.27,965.975,359.806,965.975,348.191z"/>
</g>
</svg>
