<?xml version="1.0" encoding="utf-8"?>
<!-- Generator: Adobe Illustrator 16.0.2, SVG Export Plug-In . SVG Version: 6.00 Build 0)  -->
<!DOCTYPE svg PUBLIC "-//W3C//DTD SVG 1.1//EN" "http://www.w3.org/Graphics/SVG/1.1/DTD/svg11.dtd">
<svg version="1.1" id="Layer_1" xmlns="http://www.w3.org/2000/svg" xmlns:xlink="http://www.w3.org/1999/xlink" x="0px" y="0px"
	 width="376.385px" height="376.385px" viewBox="0 0 376.385 376.385" enable-background="new 0 0 376.385 376.385"
	 xml:space="preserve">
<g>
	<path fill-rule="evenodd" clip-rule="evenodd" d="M43.373,0.735c97.037,0,194.074,0,291.11,0c-0.12,1.45-0.348,2.901-0.348,4.351
		c-0.017,122.561-0.017,245.122,0,367.682c0,1.45,0.228,2.901,0.348,4.352c-9.312,0-18.623,0-27.935,0c0-17.791,0-35.582,0-53.409
		c-3.133,0-5.982,0-8.821,0c0,17.988,0,35.699,0,53.409c-0.49,0-0.98,0-1.471,0c-0.672-0.26-1.324-0.595-2.018-0.766
		c-46.788-11.544-93.566-23.121-140.389-34.52c-3.745-0.911-4.984-2.226-4.979-6.247c0.139-94.583,0.107-189.167,0.107-283.751
		c0-1.553,0-3.107,0-4.76c35.09-6.198,69.718-12.314,104.347-18.431c-0.032-0.133-0.063-0.267-0.094-0.401
		c-60.597,0-121.193,0-182.25,0c0,116.182,0,232.123,0,348.175c-9.245,0-18.029,0-27.247,0c0-1.867,0-3.557,0-5.247
		c0-121.659,0.001-243.32-0.015-364.98C43.72,4.373,43.494,2.554,43.373,0.735z M306.475,280.879c0-58.966,0-117.435,0-176.047
		c-3.019,0-5.771,0-8.731,0c0,58.695,0,117.168,0,175.837c0.727,0.081,1.309,0.196,1.891,0.202
		C301.819,280.893,304.006,280.879,306.475,280.879z M184.898,195.225c0.084-7.056-4.463-12.971-9.9-12.877
		c-5.326,0.091-9.635,5.797-9.626,12.745c0.009,6.928,4.373,12.66,9.685,12.723C180.367,207.876,184.815,202.185,184.898,195.225z
		 M297.818,28.147c0,11.441,0,22.595,0,33.854c3.039,0,5.79,0,8.639,0c0-11.393,0-22.553,0-33.854
		C303.521,28.147,300.866,28.147,297.818,28.147z"/>
</g>
</svg>
