<?xml version="1.0" encoding="utf-8"?>
<!-- Generator: Adobe Illustrator 16.0.2, SVG Export Plug-In . SVG Version: 6.00 Build 0)  -->
<!DOCTYPE svg PUBLIC "-//W3C//DTD SVG 1.1//EN" "http://www.w3.org/Graphics/SVG/1.1/DTD/svg11.dtd">
<svg version="1.1" id="Layer_1" xmlns="http://www.w3.org/2000/svg" xmlns:xlink="http://www.w3.org/1999/xlink" x="0px" y="0px"
	 width="382.938px" height="382.938px" viewBox="0 0 382.938 382.938" enable-background="new 0 0 382.938 382.938"
	 xml:space="preserve">
<g>
	<path fill-rule="evenodd" clip-rule="evenodd" d="M326.096,383.687c-72.05,0-144.1,0-216.15,0c-1.48-0.132-2.961-0.373-4.442-0.38
		c-14.46-0.067-28.919-0.092-43.379-0.144c-1.31-0.005-2.62-0.123-4.118-0.197c0-1.962,0-3.452,0-4.942
		c0-124.278-0.001-248.556,0.014-372.835c0-1.48,0.207-2.96,0.317-4.44c89.252,0,178.505,0,267.757,0
		c0.11,1.479,0.317,2.958,0.317,4.437c0.016,124.688,0.016,249.375,0,374.063C326.413,380.729,326.206,382.207,326.096,383.687z
		 M92.203,349.88c0-105.309,0-210.289,0-315.189c66.906,0,133.518,0,200.459,0c0,12.306,0,24.339,0,36.488c2.999,0,5.663,0,8.285,0
		c0-15.16,0-30.027,0-44.882c-72.682,0-145.041,0-217.429,0c0,110.69,0,221.139,0,331.781c72.707,0,145.061,0,217.58,0
		c0-15.039,0-29.818,0-44.789c-2.911,0-5.65,0-8.727,0c0,12.394,0,24.427,0,36.592C225.513,349.88,158.993,349.88,92.203,349.88z
		 M292.796,110.891c0,54.377,0,108.479,0,162.518c2.932,0,5.588,0,8.257,0c0-54.316,0-108.325,0-162.518
		C298.267,110.891,295.688,110.891,292.796,110.891z M133.269,192.396c0.08-7.377-5.751-13.392-13.052-13.463
		c-7.231-0.07-13.28,5.972-13.284,13.269c-0.003,7.295,6.041,13.337,13.277,13.273C127.37,205.411,133.19,199.582,133.269,192.396z"
		/>
</g>
</svg>
