<?xml version="1.0" encoding="utf-8"?>
<!-- Generator: Adobe Illustrator 16.0.2, SVG Export Plug-In . SVG Version: 6.00 Build 0)  -->
<!DOCTYPE svg PUBLIC "-//W3C//DTD SVG 1.1//EN" "http://www.w3.org/Graphics/SVG/1.1/DTD/svg11.dtd">
<svg version="1.1" id="Layer_1" xmlns="http://www.w3.org/2000/svg" xmlns:xlink="http://www.w3.org/1999/xlink" x="0px" y="0px"
	 width="400.021px" height="400.021px" viewBox="0 0 400.021 400.021" enable-background="new 0 0 400.021 400.021"
	 xml:space="preserve">
<g>
	<path fill-rule="evenodd" clip-rule="evenodd" d="M252.649,352.391c0-45.056,0-89.789,0-134.68c11.551,0,23.008,0,34.822,0
		c0,1.526,0,3.074,0,4.623c0,6.5-0.011,13,0.016,19.501c0.002,0.709,0.034,1.517,0.361,2.108c1.195,2.162,2.005,2.28,4.365-0.005
		c6.475-6.268,12.884-12.604,19.199-19.031c7.575-7.708,15.026-15.537,22.935-23.73c-3.48-3.355-7.556-7.191-11.528-11.132
		c-6.975-6.919-13.843-13.947-20.844-20.84c-3.5-3.446-7.163-6.731-10.837-9.993c-0.539-0.479-1.891-0.838-2.273-0.526
		c-0.698,0.569-1.323,1.678-1.335,2.57c-0.102,7.582-0.059,15.166-0.059,22.75c0,0.896,0,1.793,0,2.824c-23.568,0-46.908,0-70.248,0
		c-0.006-0.068-0.011-0.136-0.017-0.204c0.78-0.049,1.561-0.099,2.34-0.148c0.002-0.17,0.003-0.341,0.005-0.511
		c-1.561,0-3.158-0.222-4.673,0.039c-5.413,0.933-9.455-1.722-13.268-4.913c-4.432-3.71-8.692-7.626-13.154-11.298
		c-3.256-2.68-6.719-5.109-10.217-7.747c-10.142,19.169-20.248,38.273-30.421,57.502c1.983,1.205,4.157,2.606,6.406,3.875
		c5.632,3.18,11.275,6.339,16.956,9.431c4.52,2.461,9.138,4.742,13.644,7.229c5.5,3.034,10.909,6.229,16.395,9.287
		c1.517,0.845,3.251,1.312,4.718,2.222c0.595,0.369,1.177,1.57,1.02,2.208c-1.288,5.212-2.777,10.373-4.153,15.563
		c-0.672,2.532-1.157,5.115-1.861,7.638c-1.278,4.574-2.683,9.114-3.987,13.682c-1.038,3.635-1.93,7.313-3.024,10.932
		c-1.151,3.811-2.57,7.541-3.68,11.362c-1.213,4.177-2.061,8.462-3.335,12.619c-1.48,4.83-3.268,9.566-4.888,14.354
		c-0.552,1.631-0.896,3.338-1.523,4.936c-1.949,4.969-5.852,7.758-10.827,9.066c-2.282,0.6-4.912,1.461-7.01,0.871
		c-5.303-1.49-10.235-3.727-12.955-9.289c-2.166-4.429-1.878-8.851-1.099-13.323c0.732-4.197,1.827-8.345,2.995-12.448
		c1.084-3.809,2.612-7.492,3.695-11.302c1.234-4.342,2.11-8.782,3.292-13.14c1.239-4.57,2.64-9.098,4-13.636
		c1.176-3.922,2.394-7.832,3.606-11.789c-4.06-2.208-7.966-4.262-11.804-6.435c-6.835-3.869-13.594-7.876-20.453-11.703
		c-4.853-2.707-9.89-5.087-14.714-7.841c-5.647-3.223-11.004-6.983-16.776-9.946c-3.455-1.773-5.485-4.68-7.715-7.431
		c-1.158-1.43-1.49-3.627-1.898-5.541c-0.576-2.705-1.473-5.537-1.166-8.19c0.573-4.946,1.353-9.928,3.667-14.51
		c2.173-4.302,4.032-8.762,6.179-13.079c1.53-3.078,3.344-6.014,4.965-9.048c1.99-3.723,3.924-7.477,5.859-11.229
		c2.034-3.94,4.015-7.909,6.069-11.839c1.62-3.097,3.305-6.161,4.982-9.228c1.126-2.059,2.29-4.097,3.547-6.343
		c-2.278-0.201-4.417-0.202-6.472-0.615c-3.103-0.625-6.131-1.611-9.221-2.308c-2.836-0.639-5.705-1.15-8.579-1.586
		c-0.5-0.076-1.216,0.383-1.636,0.794c-7.086,6.95-14.048,14.03-21.239,20.869c-4.071,3.872-8.315,7.617-12.827,10.953
		c-4.867,3.6-10.388,3.026-15.461,0.441c-6.587-3.356-10.216-9.036-9.85-16.483c0.227-4.623,2.22-8.715,5.839-12.103
		c6.982-6.532,13.593-13.459,20.438-20.14c5.116-4.993,10.27-9.955,15.585-14.73c2.2-1.977,4.853-3.458,7.336-5.109
		c0.44-0.293,1.073-0.483,1.594-0.441c4.492,0.363,8.991,0.696,13.465,1.226c3.829,0.454,7.649,1.046,11.434,1.781
		c3.39,0.658,6.708,1.682,10.091,2.383c4.544,0.942,9.113,1.771,13.685,2.57c4.201,0.734,8.522,1.007,12.599,2.16
		c2.893,0.818,5.468,2.762,8.186,4.201c3.943,2.087,7.896,4.16,11.831,6.262c4.128,2.205,8.151,4.629,12.382,6.613
		c7.222,3.385,12.505,9.227,18.555,14.101c3.732,3.008,7.989,5.523,11.159,9.029c3.696,4.089,7.965,4.333,12.806,4.199
		c6.912-0.19,13.833-0.054,20.75-0.042c0.98,0.001,1.961,0.085,3.135,0.139c0-33.371,0-66.845,0-100.485
		c35.321,0,70.446,0,105.946,0c0,0.834,0,1.711,0,2.589c-0.001,98.337,0,196.674-0.001,295.012c0,3.081-0.071,3.105-3.256,3.17
		c-5.384,0.109-10.766,0.381-16.148,0.395c-28.186,0.064-56.371,0.071-84.557,0.094
		C253.948,352.472,253.384,352.424,252.649,352.391z"/>
	<path fill-rule="evenodd" clip-rule="evenodd" d="M71.85,262.195c3.778-8.099,7.663-16.425,11.462-24.569
		c2.641,2.469,4.956,4.973,7.617,7.029c3.044,2.353,6.364,4.36,9.625,6.421c3.409,2.154,6.934,4.127,10.31,6.331
		c0.861,0.562,1.166,1.188,0.291,2.728c-2.407,4.23-3.929,8.954-5.996,13.393c-2.931,6.293-6.057,12.494-9.047,18.761
		c-0.445,0.933-0.603,2.003-0.916,3.089c-3.029,0.199-6.094,0.234-9.107,0.644c-3.433,0.467-6.808,1.338-10.23,1.894
		c-1.943,0.316-3.934,0.341-5.9,0.521c-3.703,0.337-7.401,0.723-11.106,1.027c-2.714,0.222-5.54-0.063-8.133,0.595
		c-6.13,1.558-12.332,1.56-18.532,1.358c-5.243-0.171-8.873-3.301-11.623-7.536c-1.607-2.474-2.929-5.166-2.818-8.13
		c0.097-2.573,0.701-5.163,1.359-7.672c0.887-3.38,2.932-6.041,5.912-7.887c1.304-0.808,2.672-1.702,4.13-2.03
		c3.173-0.714,6.417-1.132,9.644-1.592c3.215-0.458,6.444-0.816,9.666-1.23c0.238-0.031,0.458-0.219,0.695-0.241
		c5.585-0.521,11.179-0.968,16.755-1.575C67.771,263.318,69.593,262.712,71.85,262.195z"/>
	<path fill-rule="evenodd" clip-rule="evenodd" d="M218.996,75.896c0.26,6.6-2.487,12.823-6.976,18.14
		c-5.907,6.998-13.805,10.096-22.921,9.91c-15.242-0.311-28.336-12.795-27.962-29.879c0.15-6.825,2.586-13.269,7.229-18.32
		c6.375-6.939,14.552-10.357,24.074-9.647c5.648,0.421,11.114,2.375,15.378,5.921C214.926,57.933,219.194,65.64,218.996,75.896z"/>
</g>
</svg>
