<?xml version="1.0" encoding="utf-8"?>
<!-- Generator: Adobe Illustrator 16.0.2, SVG Export Plug-In . SVG Version: 6.00 Build 0)  -->
<!DOCTYPE svg PUBLIC "-//W3C//DTD SVG 1.1//EN" "http://www.w3.org/Graphics/SVG/1.1/DTD/svg11.dtd">
<svg version="1.1" id="Layer_1" xmlns="http://www.w3.org/2000/svg" xmlns:xlink="http://www.w3.org/1999/xlink" x="0px" y="0px"
	 width="1298.838px" height="1298.838px" viewBox="0 0 1298.838 1298.838" enable-background="new 0 0 1298.838 1298.838"
	 xml:space="preserve">
<g>
	<path fill-rule="evenodd" clip-rule="evenodd" d="M1299.752,652.188c0,13.998,0.635,28.033-0.17,41.984
		c-0.896,15.555-2.589,31.108-4.869,46.524c-2.819,19.065-6.178,38.075-10.109,56.941c-2.758,13.224-6.326,26.342-10.494,39.195
		c-6.335,19.541-13.329,38.875-20.394,58.169c-3.253,8.88-7.079,17.576-11.088,26.15c-15.69,33.563-33.399,66.032-54.887,96.255
		c-12.045,16.941-24.438,33.731-37.907,49.539c-15.765,18.501-32.391,36.339-49.559,53.552
		c-12.071,12.104-25.229,23.249-38.699,33.808c-18.67,14.636-37.641,28.984-57.324,42.203
		c-16.258,10.918-33.513,20.428-50.723,29.836c-34.076,18.631-69.763,33.771-106.959,44.803c-25.76,7.641-52.014,13.8-78.312,19.37
		c-16.938,3.589-34.323,5.209-51.567,7.189c-38.119,4.377-76.403,1.736-114.6,1.702c-15.946-0.015-31.897-3.588-47.833-5.652
		c-29.375-3.809-58.073-10.72-86.487-18.954c-43.37-12.568-84.693-30.167-124.413-51.449c-29.002-15.54-56.901-33.02-82.658-53.565
		c-17.998-14.357-35.601-29.271-52.652-44.737c-13.739-12.461-26.962-25.604-39.39-39.372
		c-19.791-21.926-37.954-45.201-54.613-69.657c-20.15-29.581-37.768-60.604-52.788-93.02
		c-16.005-34.54-29.498-70.089-38.222-107.263c-4.471-19.052-9.151-38.079-12.726-57.306c-2.603-14-3.364-28.333-5.274-42.474
		c-4.353-32.217-3.157-64.609-2.698-96.924c0.235-16.535,3.06-33.032,4.707-49.547c2.571-25.76,7.815-51.04,14.077-76.105
		c7.242-28.991,16.035-57.537,27.976-84.953c9.148-21.003,18.644-41.904,29.121-62.266c13.48-26.198,29.188-51.145,46.959-74.683
		c11.951-15.829,23.922-31.705,36.903-46.677c13.027-15.026,26.558-29.79,41.239-43.164c19.671-17.921,40.047-35.207,61.268-51.248
		c18.87-14.263,38.905-27.115,59.168-39.361c17.221-10.408,35.172-19.762,53.401-28.301c18.157-8.507,36.805-16.139,55.705-22.834
		c20.415-7.231,41.167-13.735,62.149-19.069c19.428-4.94,39.282-8.363,59.087-11.611c14.719-2.413,29.671-3.37,44.498-5.164
		c28.314-3.425,56.751-2.092,85.114-1.706c16.532,0.224,33.028,3.06,49.546,4.684c25.932,2.55,51.375,7.828,76.602,14.111
		c29.001,7.223,57.501,16.18,84.941,28.054c20.572,8.902,41.008,18.242,60.904,28.548c16.664,8.632,32.962,18.198,48.514,28.698
		c20.465,13.816,40.314,28.596,59.887,43.666c10.569,8.138,20.113,17.626,29.925,26.716c8.768,8.123,17.782,16.07,25.771,24.921
		c14.556,16.129,28.87,32.519,42.457,49.465c11.245,14.025,22.078,28.514,31.684,43.689c12.939,20.437,25.052,41.444,36.566,62.721
		c17.063,31.536,30.604,64.728,40.831,99.035c7.676,25.745,13.645,52.052,19.206,78.355c3.516,16.62,5.671,33.631,7.022,50.579
		c1.766,22.129,2.133,44.369,3.102,66.561C1300.361,652.163,1300.057,652.176,1299.752,652.188z M649.22,405.035
		c119.972,0,239.941,0.001,359.912,0c10.851,0,13.825-3.016,13.826-14.004c0.002-23.327,0.014-46.655-0.007-69.982
		c-0.007-8.493-3.654-12.165-12.169-12.165c-240.94-0.011-481.882-0.011-722.823-0.001c-8.457,0-12.066,3.682-12.073,12.26
		c-0.02,23.328-0.009,46.655-0.006,69.983c0.002,10.946,2.971,13.908,13.929,13.908C409.612,405.036,529.417,405.035,649.22,405.035
		z M650.221,552.017c119.971,0,239.94,0.001,359.911,0c10.851,0,13.825-3.016,13.826-14.004c0.002-23.328,0.014-46.655-0.007-69.983
		c-0.007-8.493-3.654-12.163-12.17-12.163c-240.941-0.011-481.882-0.011-722.822-0.001c-8.457,0-12.066,3.682-12.073,12.26
		c-0.02,23.328-0.009,46.655-0.006,69.983c0.002,10.946,2.971,13.909,13.929,13.909
		C410.613,552.018,530.416,552.017,650.221,552.017z M649.884,698.999c120.47,0,240.941,0.002,361.412-0.003
		c9.171-0.001,12.654-3.491,12.658-12.667c0.012-23.494,0.009-46.988,0.002-70.482c-0.003-9.583-3.362-13.004-12.839-13.004
		c-240.607-0.006-481.215-0.006-721.823,0.001c-8.863,0-12.403,3.552-12.41,12.428c-0.017,23.16-0.007,46.321-0.005,69.482
		c0.001,11.33,2.886,14.245,14.093,14.245C410.61,699,530.247,698.999,649.884,698.999z M650.454,845.98
		c120.136,0,240.273,0.002,360.41-0.002c9.835,0,13.09-3.296,13.092-13.235c0.006-23.494,0.012-46.989-0.003-70.483
		c-0.006-8.882-3.525-12.433-12.405-12.433c-240.774-0.009-481.549-0.009-722.323-0.001c-8.784,0-12.335,3.607-12.341,12.496
		c-0.015,23.161-0.007,46.322-0.004,69.483c0.001,11.275,2.899,14.175,14.162,14.175C410.846,845.981,530.649,845.98,650.454,845.98
		z M650.445,896.802c-120.138,0-240.275-0.001-360.412,0.002c-9.855,0-13.15,3.308-13.153,13.192
		c-0.006,23.494-0.015,46.988,0.005,70.482c0.008,8.901,3.547,12.479,12.348,12.479c240.774,0.007,481.549,0.007,722.323,0
		c8.86,0,12.391-3.547,12.396-12.425c0.015-23.161,0.006-46.322,0.005-69.483c-0.001-11.323-2.89-14.246-14.102-14.247
		C890.053,896.801,770.249,896.802,650.445,896.802z"/>
</g>
</svg>
