<?xml version="1.0" encoding="utf-8"?>
<!-- Generator: Adobe Illustrator 16.0.0, SVG Export Plug-In . SVG Version: 6.00 Build 0)  -->
<!DOCTYPE svg PUBLIC "-//W3C//DTD SVG 1.1//EN" "http://www.w3.org/Graphics/SVG/1.1/DTD/svg11.dtd">
<svg version="1.1" id="Layer_1" xmlns="http://www.w3.org/2000/svg" xmlns:xlink="http://www.w3.org/1999/xlink" x="0px" y="0px"
	 width="327.046px" height="246.034px" viewBox="0 0 327.046 246.034" enable-background="new 0 0 327.046 246.034"
	 xml:space="preserve">
<g>
	<path fill-rule="evenodd" clip-rule="evenodd" d="M75.338,211.678c2.072-7.699,3.949-14.76,5.875-21.808
		c1.841-6.734,3.625-13.488,5.652-20.168c0.89-2.933,0.587-5.325-0.827-8.114c-24.696-48.729-1.525-106.79,49.865-125.207
		c52.16-18.692,110.041,16.137,117.746,70.851c6.96,49.424-25.255,93.647-74.442,101.761c-18.352,3.025-36.089,0.309-52.827-7.958
		c-2.65-1.31-4.99-1.535-7.823-0.765C104.479,204.094,90.352,207.735,75.338,211.678z M97.023,190.159
		c8.416-2.214,16.01-4.095,23.527-6.247c2.947-0.844,5.328-0.65,8.083,0.932c13.455,7.722,27.897,11.116,43.481,9.616
		c42.203-4.063,72.365-42.056,66.551-83.996c-4.17-30.074-26.611-54.886-55.806-61.699c-30.354-7.083-61.496,4.544-78.446,30.273
		c-17.185,26.087-17.638,53.111-2.059,80.221c1.585,2.76,1.919,5.077,1.037,8.031C101.216,174.568,99.297,181.922,97.023,190.159z"
		/>
	<path fill-rule="evenodd" clip-rule="evenodd" d="M188.752,163.692c-9.232-0.222-17.601-3.696-25.479-7.917
		c-17.562-9.407-30.546-23.607-39.726-41.128c-6.243-11.916-4.486-23.384,3.953-32.178c2.725-2.84,9.447-4.337,12.867-2.587
		c1.1,0.563,2.059,1.847,2.576,3.024c2.503,5.707,4.819,11.496,7.231,17.244c1.295,3.087-0.499,5.296-2.148,7.473
		c-5.558,7.333-5.561,7.295,0.052,14.876c6.71,9.063,15.348,15.576,25.736,19.902c2.337,0.974,4.016,0.742,5.56-1.263
		c1.904-2.472,4.067-4.757,5.823-7.325c1.542-2.258,3.289-2.912,5.715-1.761c5.969,2.833,11.962,5.618,17.854,8.605
		c0.913,0.463,1.89,1.881,1.897,2.864c0.039,4.941-0.671,9.729-4.598,13.352C201.18,161.381,195.521,163.905,188.752,163.692z"/>
</g>
</svg>
